<svg viewBox="0 0 24 24" xmlns="http://www.w3.org/2000/svg" width="25px" height="25px">
<!--    <path fill-rule="evenodd" clip-rule="evenodd" d="M5 2.8125H19C20.3807 2.8125 21.5 3.93179 21.5 5.3125V5.5625H2.5V5.3125C2.5 3.93179 3.61929 2.8125 5 2.8125ZM2.5 7.0625V19.3125C2.5 20.6932 3.61929 21.8125 5 21.8125H19C20.3807 21.8125 21.5 20.6932 21.5 19.3125V7.0625H2.5ZM1 5.3125C1 3.10336 2.79086 1.3125 5 1.3125H19C21.2091 1.3125 23 3.10336 23 5.3125V19.3125C23 21.5216 21.2091 23.3125 19 23.3125H5C2.79086 23.3125 1 21.5216 1 19.3125V5.3125ZM12 12.604C12.6256 12.604 13.1328 12.0968 13.1328 11.4712C13.1328 10.8456 12.6256 10.3384 12 10.3384C11.3744 10.3384 10.8672 10.8456 10.8672 11.4712C10.8672 12.0968 11.3744 12.604 12 12.604ZM12 14.104C13.4541 14.104 14.6328 12.9253 14.6328 11.4712C14.6328 10.0171 13.4541 8.83838 12 8.83838C10.5459 8.83838 9.36719 10.0171 9.36719 11.4712C9.36719 12.9253 10.5459 14.104 12 14.104ZM9.32031 18.9673C9.32031 17.4871 10.5203 16.2871 12.0005 16.2871C13.4807 16.2871 14.6807 17.4871 14.6807 18.9673C14.6807 19.3815 15.0165 19.7173 15.4307 19.7173C15.8449 19.7173 16.1807 19.3815 16.1807 18.9673C16.1807 16.6586 14.3091 14.7871 12.0005 14.7871C9.69184 14.7871 7.82031 16.6586 7.82031 18.9673C7.82031 19.3815 8.1561 19.7173 8.57031 19.7173C8.98453 19.7173 9.32031 19.3815 9.32031 18.9673Z"/>-->

    <path stroke="black" stroke-width="1.5" stroke-linecap="round" stroke-linejoin="round" fill="none" d="M16.6127 16.0846C13.9796 17.5677 12.4773 20.6409 12 21.5V8C12.4145 7.25396 13.602 5.11646 15.6317 3.66368C16.4868 3.05167 16.9143 2.74566 17.4572 3.02468C18 3.30371 18 3.91963 18 5.15146V13.9914C18 14.6568 18 14.9895 17.8634 15.2233C17.7267 15.4571 17.3554 15.6663 16.6127 16.0846L16.6127 16.0846Z"  />
    <path stroke="black" stroke-width="1.5" stroke-linecap="round" stroke-linejoin="round" fill="none" d="M12 7.80556C11.3131 7.08403 9.32175 5.3704 5.98056 4.76958C4.2879 4.4652 3.44157 4.31301 2.72078 4.89633C2 5.47965 2 6.42688 2 8.32133V15.1297C2 16.8619 2 17.728 2.4626 18.2687C2.9252 18.8095 3.94365 18.9926 5.98056 19.3589C7.79633 19.6854 9.21344 20.2057 10.2392 20.7285C11.2484 21.2428 11.753 21.5 12 21.5C12.247 21.5 12.7516 21.2428 13.7608 20.7285C14.7866 20.2057 16.2037 19.6854 18.0194 19.3589C20.0564 18.9926 21.0748 18.8095 21.5374 18.2687C22 17.728 22 16.8619 22 15.1297V8.32133C22 6.42688 22 5.47965 21.2792 4.89633C20.5584 4.31301 19 4.76958 18 5.5"  />

  </svg>