<svg width="25px" viewBox="0 0 400 178" fill="none" xmlns="http://www.w3.org/2000/svg" height="25px">
    <g clip-path="url(#clip0_1707_37148)">
      <path d="M24.0739 78.539C26.336 81.9322 29.8976 85.1809 34.7828 87.9965L339.108 263.622C355.568 273.128 380.475 274.163 394.722 265.908L527.969 188.949C533.985 185.459 537.114 180.887 537.523 176.05L537.547 176.026C539.039 168.036 536.753 158.868 536.753 158.868L527.897 159.373V159.397C526.693 158.507 525.418 157.64 523.998 156.822L219.673 -18.7794C203.213 -28.2851 178.306 -29.3199 164.059 -21.0656L30.788 55.8939L20.6567 55.3645C20.6567 55.3645 16.7823 66.3381 23.4483 77.6005C23.4964 77.6727 23.5204 77.7208 23.5686 77.7689C23.713 78.0096 23.8814 78.2502 24.0258 78.4668C24.0499 78.4909 24.0739 78.5149 24.0739 78.539Z" fill="#E0E0E0"/>
      <path d="M29.1682 44.0186L162.416 -32.9409C176.662 -41.1711 201.569 -40.1363 218.03 -30.6548L522.354 144.971C538.815 154.477 540.62 168.843 526.349 177.073L393.102 254.033C378.855 262.263 353.948 261.228 337.488 251.747L33.163 76.1212C16.7026 66.6156 14.8977 52.2488 29.1682 44.0186Z" fill="white"/>
      <path d="M29.1682 44.0186L162.416 -32.9409C176.662 -41.1711 201.569 -40.1363 218.03 -30.6548L522.354 144.971C538.815 154.477 540.62 168.843 526.349 177.073L393.102 254.033C378.855 262.263 353.948 261.228 337.488 251.747L33.163 76.1212C16.7026 66.6156 14.8977 52.2488 29.1682 44.0186Z" fill="url(#paint0_linear_1707_37148)"/>
      <path d="M367.687 250.956C358.759 250.956 349.855 249.006 343.044 245.084L35.1098 68.0142C31.1391 65.728 28.9492 62.5755 28.9492 59.1583C28.9492 55.717 31.1151 52.5645 35.0858 50.2784L55.8538 38.2459C59.5357 36.1041 65.3113 36.1041 69.0173 38.2218C71.7366 39.7861 76.3571 39.786 79.0764 38.1978L153.196 -4.75807C154.231 -5.3597 154.809 -6.08165 154.809 -6.77953C154.809 -7.45335 154.207 -8.19935 153.172 -8.80098C151.151 -9.95609 149.996 -11.6647 149.996 -13.4936C149.996 -15.3226 151.151 -17.0312 153.148 -18.1863L162.991 -23.8897C176.611 -31.783 198.823 -31.8311 212.468 -23.9859L520.427 153.084C524.397 155.37 526.587 158.522 526.587 161.939C526.587 165.357 524.421 168.533 520.451 170.819L392.522 244.963C385.687 248.958 376.687 250.956 367.687 250.956Z" fill="white"/>
      <path d="M123.819 1.02734L85.1953 23.3355" stroke="white" stroke-linecap="round"/>
      <path d="M123.819 1.02734L85.1953 23.3355" stroke="url(#paint1_linear_1707_37148)" stroke-linecap="round"/>
      <path d="M83.212 112.745L83.2112 112.745C82.6194 112.405 82.0729 111.848 81.6747 111.211C81.2747 110.57 81.0508 109.889 81.0508 109.317V108.997C81.0508 108.387 81.2779 108.007 81.6221 107.814L81.6221 107.814L81.6251 107.812C82.0088 107.593 82.6208 107.595 83.3384 107.998L96.4204 115.55L96.4211 115.551C97.0129 115.891 97.5595 116.447 97.9577 117.085C98.3577 117.726 98.5815 118.406 98.5815 118.979V119.299C98.5815 119.909 98.3544 120.288 98.0102 120.482L97.9974 120.489L97.985 120.497C97.8499 120.584 97.6642 120.637 97.4123 120.637C97.095 120.637 96.708 120.534 96.2955 120.299C96.2952 120.299 96.2949 120.298 96.2946 120.298L83.212 112.745Z" stroke="#C3C3C3"/>
      <path d="M104.204 124.849L104.203 124.848C103.612 124.508 103.065 123.952 102.667 123.314C102.267 122.673 102.043 121.993 102.043 121.421V121.1C102.043 120.491 102.27 120.112 102.613 119.918C103.018 119.694 103.616 119.7 104.331 120.101L117.413 127.654L117.413 127.654C118.005 127.995 118.552 128.551 118.95 129.189C119.35 129.83 119.574 130.51 119.574 131.082V131.403C119.574 132.012 119.347 132.392 119.002 132.586L118.99 132.593L118.977 132.601C118.842 132.688 118.656 132.741 118.404 132.741C118.087 132.741 117.7 132.638 117.288 132.402C117.287 132.402 117.287 132.402 117.287 132.402L104.204 124.849Z" stroke="#C3C3C3"/>
      <path d="M30.2031 74.623L30.2031 84.5385" stroke="#C3C3C3"/>
      <path d="M37.1191 78.6738L37.1191 89.1035" stroke="#C3C3C3"/>
      <path d="M242.593 12.2063C241.077 11.3308 238.618 11.3308 237.102 12.2063C235.586 13.0817 235.586 14.5011 237.102 15.3766L285.15 43.1172C286.667 43.9926 289.125 43.9926 290.641 43.1172C292.158 42.2417 292.158 40.8223 290.641 39.9469L242.593 12.2063Z" fill="#EFEFEF"/>
      <rect width="6.34064" height="78.4082" rx="3.17032" transform="matrix(-0.866025 0.5 0.866025 0.5 208.186 12.3105)" fill="#EFEFEF"/>
      <rect width="6.34064" height="30.534" rx="3.17032" transform="matrix(-0.866025 0.5 0.866025 0.5 232.348 46.2324)" fill="#EFEFEF"/>
      <rect width="6.34064" height="61.8218" rx="3.17032" transform="matrix(-0.866025 0.5 0.866025 0.5 187.953 40.5762)" fill="#EFEFEF"/>
      <rect width="6.34064" height="61.8218" rx="3.17032" transform="matrix(-0.866025 0.5 0.866025 0.5 153.361 60.5527)" fill="url(#paint2_linear_1707_37148)"/>
      <rect width="6.34064" height="61.8218" rx="3.17032" transform="matrix(-0.866025 0.5 0.866025 0.5 153.361 60.5527)" fill="url(#paint3_linear_1707_37148)"/>
      <rect width="6.34064" height="61.8218" rx="3.17032" transform="matrix(-0.866025 0.5 0.866025 0.5 153.361 60.5527)" fill="url(#paint4_linear_1707_37148)"/>
      <rect width="6.34064" height="88.9631" rx="3.17032" transform="matrix(-0.866025 0.5 0.866025 0.5 112.561 56.9707)" fill="#EFEFEF"/>
      <rect width="6.34064" height="61.8218" rx="3.17032" transform="matrix(-0.866025 0.5 0.866025 0.5 118.768 80.5254)" fill="#EFEFEF"/>
      <rect width="6.34064" height="8.29317" rx="3.17032" transform="matrix(-0.866025 0.5 0.866025 0.5 217.014 77.3301)" fill="#EFEFEF"/>
      <path d="M266.623 183.496L266.623 167.293L292.692 164.225L302.791 173.818L302.613 177.363L313.785 170.928C316.228 169.528 320.19 169.528 322.633 170.928L333.091 176.976L365.862 168.008L369.795 167.293L369.795 183.496C369.795 184.42 369.199 185.343 367.978 186.059L322.633 212.246C320.19 213.646 316.228 213.646 313.785 212.246L268.441 186.059C267.219 185.343 266.623 184.42 266.623 183.496Z" fill="white"/>
      <path d="M266.623 183.496L266.623 167.293L292.692 164.225L302.791 173.818L302.613 177.363L313.785 170.928C316.228 169.528 320.19 169.528 322.633 170.928L333.091 176.976L365.862 168.008L369.795 167.293L369.795 183.496C369.795 184.42 369.199 185.343 367.978 186.059L322.633 212.246C320.19 213.646 316.228 213.646 313.785 212.246L268.441 186.059C267.219 185.343 266.623 184.42 266.623 183.496Z" fill="url(#paint5_linear_1707_37148)" fill-opacity="0.4"/>
      <path d="M268.439 168.455L313.784 194.643C316.227 196.043 320.189 196.043 322.632 194.643L367.976 168.455C370.419 167.055 370.419 164.761 367.976 163.361L322.632 137.173C320.189 135.773 316.227 135.773 313.784 137.173L268.439 163.361C265.996 164.761 265.996 167.025 268.439 168.455Z" fill="white"/>
      <path d="M268.439 168.455L313.784 194.643C316.227 196.043 320.189 196.043 322.632 194.643L367.976 168.455C370.419 167.055 370.419 164.761 367.976 163.361L322.632 137.173C320.189 135.773 316.227 135.773 313.784 137.173L268.439 163.361C265.996 164.761 265.996 167.025 268.439 168.455Z" fill="url(#paint6_linear_1707_37148)" fill-opacity="0.2"/>
      <path d="M302.328 176.439C302.466 176.352 302.572 176.25 302.64 176.138C302.708 176.027 302.737 175.908 302.726 175.79C302.714 175.672 302.662 175.555 302.572 175.448C302.482 175.341 302.357 175.245 302.202 175.165C302.048 175.086 301.869 175.025 301.674 174.985C301.48 174.946 301.274 174.929 301.069 174.936C300.864 174.942 300.664 174.973 300.481 175.024C300.297 175.076 300.133 175.149 299.999 175.238C299.733 175.415 299.599 175.646 299.627 175.882C299.655 176.117 299.843 176.338 300.149 176.496C300.456 176.654 300.856 176.737 301.264 176.726C301.672 176.715 302.055 176.612 302.328 176.439ZM312.552 180.978C312.616 180.796 312.552 180.605 312.372 180.448C312.193 180.291 311.914 180.181 311.597 180.142C311.279 180.103 310.95 180.138 310.68 180.24C310.411 180.342 310.223 180.501 310.16 180.684C310.128 180.775 310.128 180.868 310.159 180.959C310.189 181.05 310.251 181.137 310.34 181.215C310.429 181.292 310.543 181.359 310.676 181.412C310.809 181.464 310.958 181.501 311.115 181.52C311.272 181.54 311.434 181.541 311.592 181.524C311.749 181.507 311.898 181.473 312.032 181.423C312.165 181.372 312.28 181.307 312.369 181.231C312.459 181.155 312.521 181.069 312.553 180.978L312.552 180.978ZM293.492 169.585C293.441 169.497 293.361 169.416 293.256 169.345C293.15 169.275 293.022 169.217 292.879 169.174C292.735 169.132 292.579 169.107 292.419 169.099C292.259 169.092 292.099 169.103 291.947 169.132C291.718 169.174 291.517 169.256 291.369 169.365C291.222 169.474 291.134 169.607 291.118 169.746C291.101 169.884 291.156 170.024 291.276 170.145C291.396 170.267 291.576 170.366 291.792 170.429C292.008 170.493 292.251 170.518 292.491 170.502C292.73 170.486 292.955 170.429 293.137 170.339C293.319 170.248 293.45 170.129 293.513 169.994C293.576 169.86 293.569 169.718 293.492 169.585ZM314.997 177.147C315.096 176.865 314.996 176.57 314.72 176.328C314.444 176.085 314.014 175.915 313.524 175.855C313.034 175.794 312.525 175.848 312.109 176.005C311.692 176.162 311.402 176.408 311.303 176.69C311.207 176.972 311.309 177.265 311.585 177.506C311.862 177.746 312.291 177.915 312.778 177.976C313.266 178.036 313.773 177.983 314.189 177.827C314.605 177.672 314.895 177.427 314.997 177.147ZM300.908 168.448C300.83 168.312 300.707 168.186 300.545 168.077C300.383 167.967 300.186 167.877 299.965 167.812C299.744 167.746 299.503 167.706 299.256 167.694C299.009 167.683 298.761 167.699 298.526 167.742C298.174 167.807 297.864 167.931 297.635 168.097C297.406 168.264 297.268 168.467 297.238 168.68C297.208 168.893 297.288 169.107 297.467 169.296C297.646 169.484 297.917 169.639 298.246 169.74C298.575 169.841 298.947 169.885 299.315 169.865C299.684 169.845 300.033 169.763 300.319 169.628C300.605 169.494 300.815 169.314 300.923 169.11C301.031 168.906 301.032 168.687 300.926 168.481L300.908 168.448ZM309.685 172.582C309.827 172.342 309.841 172.084 309.727 171.838C309.613 171.592 309.376 171.371 309.045 171.202C308.127 170.731 306.729 170.773 305.921 171.297C305.704 171.438 305.544 171.605 305.453 171.787C305.362 171.968 305.342 172.16 305.395 172.347C305.448 172.534 305.572 172.713 305.758 172.871C305.945 173.028 306.189 173.16 306.473 173.257C306.757 173.354 307.074 173.413 307.401 173.431C307.728 173.449 308.057 173.425 308.365 173.36C308.672 173.296 308.95 173.192 309.178 173.058C309.407 172.923 309.58 172.76 309.685 172.582ZM326.055 179.245C325.922 179.02 325.642 178.834 325.275 178.727C324.908 178.619 324.484 178.599 324.096 178.671C323.707 178.743 323.386 178.901 323.201 179.111C323.016 179.321 322.983 179.565 323.109 179.791C323.235 180.017 323.509 180.205 323.873 180.316C324.237 180.427 324.66 180.452 325.051 180.383C325.442 180.315 325.768 180.16 325.959 179.953C326.15 179.745 326.19 179.501 326.071 179.274L326.055 179.245L326.055 179.245ZM296.186 162.358C296.228 162.243 296.231 162.123 296.193 162.007C296.155 161.89 296.078 161.779 295.965 161.679C295.852 161.579 295.707 161.493 295.537 161.425C295.367 161.358 295.176 161.31 294.975 161.285C294.774 161.261 294.566 161.259 294.365 161.281C294.164 161.302 293.973 161.347 293.802 161.412C293.632 161.477 293.486 161.56 293.372 161.658C293.259 161.756 293.181 161.867 293.142 161.983C293.065 162.214 293.15 162.455 293.378 162.653C293.606 162.85 293.959 162.989 294.36 163.038C294.761 163.088 295.177 163.044 295.519 162.917C295.861 162.79 296.101 162.589 296.186 162.358ZM319.54 170.253C319.295 169.788 318.789 169.381 318.102 169.098C317.415 168.814 316.587 168.67 315.748 168.688C314.91 168.705 314.109 168.884 313.472 169.196C312.835 169.508 312.399 169.934 312.233 170.408C312.107 170.762 312.137 171.129 312.32 171.477C312.503 171.824 312.834 172.14 313.281 172.397C313.879 172.742 314.656 172.962 315.49 173.025C316.323 173.087 317.166 172.987 317.884 172.741C318.603 172.495 319.155 172.117 319.455 171.666C319.755 171.216 319.785 170.718 319.54 170.253ZM312.96 166.224C312.545 165.761 311.858 165.396 311.024 165.196C310.19 164.996 309.263 164.974 308.411 165.134C306.442 165.506 305.383 166.73 306.042 167.873C306.229 168.198 306.544 168.494 306.961 168.738C307.6 169.107 308.445 169.334 309.342 169.377C310.238 169.421 311.129 169.278 311.853 168.975C312.576 168.671 313.085 168.228 313.288 167.723C313.491 167.219 313.375 166.687 312.96 166.224ZM324.409 174.535C324.432 174.346 324.381 174.156 324.262 173.979C324.142 173.802 323.956 173.641 323.718 173.51C323.479 173.378 323.193 173.279 322.881 173.218C322.569 173.157 322.239 173.137 321.913 173.159C321.588 173.181 321.276 173.245 320.999 173.345C320.723 173.445 320.489 173.58 320.315 173.739C320.141 173.899 320.031 174.079 319.993 174.266C319.954 174.454 319.988 174.645 320.093 174.826C320.257 175.107 320.584 175.349 321.019 175.509C321.454 175.669 321.97 175.738 322.478 175.704C322.987 175.669 323.458 175.534 323.81 175.321C324.162 175.108 324.374 174.83 324.409 174.535ZM305.644 163.839C305.886 163.148 305.108 162.467 303.907 162.319C302.706 162.173 301.538 162.614 301.295 163.305C301.053 163.996 301.831 164.677 303.031 164.824C304.233 164.972 305.402 164.531 305.644 163.839ZM327.348 171.043C328.706 170.162 328.581 168.807 327.065 167.996C325.55 167.184 323.202 167.214 321.785 168.064C320.383 168.903 320.401 170.239 321.813 171.085L321.862 171.114L322.008 171.199C323.558 171.996 325.91 171.934 327.296 171.067L327.342 171.038L327.348 171.043ZM314.718 163.717C316.095 162.823 315.944 161.445 314.38 160.64C314.011 160.447 313.58 160.298 313.112 160.202C312.644 160.106 312.148 160.064 311.654 160.08C310.934 160.101 310.242 160.241 309.66 160.483C309.078 160.725 308.63 161.059 308.37 161.446C308.11 161.833 308.048 162.256 308.192 162.665C308.335 163.074 308.679 163.452 309.181 163.754L309.235 163.786L309.391 163.876C310.955 164.682 313.34 164.611 314.717 163.717L314.718 163.717ZM333.642 174.782C333.972 174.568 334.14 174.286 334.109 173.998C334.078 173.71 333.85 173.439 333.475 173.246C333.1 173.052 332.609 172.952 332.11 172.967C331.611 172.982 331.145 173.11 330.814 173.324C330.484 173.538 330.316 173.821 330.347 174.109C330.379 174.397 330.607 174.667 330.982 174.861C331.357 175.054 331.848 175.154 332.347 175.14C332.845 175.125 333.311 174.996 333.642 174.782ZM305.579 158.511C305.907 158.296 306.072 158.015 306.04 157.728C306.007 157.441 305.779 157.171 305.406 156.979C305.032 156.786 304.544 156.686 304.046 156.699C303.549 156.713 303.084 156.84 302.753 157.053C302.422 157.267 302.254 157.549 302.286 157.838C302.317 158.126 302.545 158.396 302.92 158.59C303.295 158.783 303.786 158.883 304.284 158.869C304.783 158.854 305.249 158.725 305.579 158.511L305.579 158.511ZM338.055 176.445L338.021 176.427C337.901 176.365 337.761 176.317 337.61 176.286C337.458 176.255 337.298 176.241 337.138 176.246C336.978 176.251 336.822 176.274 336.678 176.313C336.534 176.353 336.406 176.409 336.3 176.478C336.142 176.58 336.04 176.708 336.007 176.844C335.974 176.981 336.012 177.12 336.115 177.245C336.218 177.37 336.383 177.476 336.587 177.548C336.792 177.62 337.029 177.657 337.268 177.652C337.506 177.648 337.737 177.603 337.93 177.523C338.124 177.443 338.271 177.332 338.355 177.204C338.439 177.075 338.455 176.935 338.402 176.8C338.348 176.665 338.228 176.542 338.055 176.445ZM300.021 154.384L299.983 154.364C299.74 154.24 299.422 154.175 299.1 154.184C298.777 154.194 298.475 154.277 298.261 154.416C298.103 154.518 298.001 154.646 297.968 154.782C297.935 154.919 297.972 155.059 298.075 155.184C298.179 155.309 298.343 155.415 298.548 155.487C298.753 155.56 298.99 155.596 299.229 155.592C299.468 155.588 299.698 155.543 299.892 155.463C300.086 155.384 300.234 155.273 300.319 155.144C300.403 155.015 300.42 154.875 300.367 154.74C300.314 154.605 300.194 154.481 300.021 154.384ZM329.431 163.1C328.936 162.812 328.314 162.608 327.635 162.511C326.955 162.415 326.244 162.429 325.582 162.552C324.97 162.666 324.421 162.869 323.987 163.141C323.553 163.414 323.248 163.747 323.102 164.109C322.956 164.47 322.973 164.849 323.153 165.208C323.332 165.567 323.667 165.894 324.126 166.159C324.622 166.448 325.246 166.651 325.928 166.747C326.61 166.843 327.322 166.827 327.985 166.702C328.594 166.587 329.14 166.383 329.571 166.111C330.003 165.838 330.306 165.506 330.45 165.145C330.595 164.784 330.578 164.407 330.399 164.049C330.221 163.691 329.887 163.365 329.431 163.1ZM323.119 159.434C322.521 159.09 321.744 158.87 320.91 158.807C320.076 158.745 319.234 158.845 318.516 159.091C317.798 159.338 317.245 159.716 316.946 160.167C316.646 160.617 316.617 161.115 316.862 161.58C317.107 162.045 317.614 162.451 318.3 162.735C318.987 163.018 319.815 163.162 320.654 163.145C321.492 163.127 322.293 162.948 322.93 162.636C323.566 162.325 324.002 161.898 324.169 161.424C324.292 161.07 324.261 160.703 324.078 160.356C323.895 160.008 323.565 159.692 323.119 159.434ZM335.102 168.53C335.345 167.839 334.568 167.158 333.367 167.01C332.166 166.862 330.996 167.302 330.753 167.994C330.511 168.686 331.288 169.366 332.488 169.515C332.774 169.55 333.068 169.553 333.354 169.522C333.64 169.492 333.913 169.429 334.155 169.338C334.398 169.246 334.607 169.128 334.769 168.99C334.932 168.851 335.045 168.695 335.102 168.53ZM316.301 157.008C316.208 156.847 316.062 156.699 315.871 156.571C315.679 156.443 315.446 156.337 315.185 156.261C314.924 156.184 314.64 156.138 314.349 156.125C314.059 156.111 313.767 156.131 313.491 156.183C312.33 156.401 311.705 157.123 312.096 157.796C312.487 158.469 313.745 158.838 314.906 158.621C316.068 158.403 316.692 157.681 316.301 157.008L316.301 157.008ZM343.252 169.852C343.333 169.619 343.251 169.376 343.023 169.177C342.911 169.078 342.766 168.993 342.596 168.926C342.427 168.859 342.237 168.812 342.037 168.787C341.837 168.763 341.632 168.761 341.432 168.782C341.231 168.804 341.041 168.847 340.871 168.911C340.701 168.975 340.555 169.058 340.442 169.155C340.328 169.252 340.249 169.361 340.208 169.476C340.127 169.709 340.209 169.951 340.437 170.151C340.665 170.35 341.019 170.491 341.423 170.54C341.826 170.59 342.246 170.545 342.589 170.416C342.932 170.287 343.17 170.084 343.252 169.852ZM313.283 152.039C313.149 151.816 312.867 151.631 312.5 151.525C312.133 151.418 311.71 151.4 311.323 151.472C310.936 151.545 310.615 151.703 310.432 151.912C310.248 152.122 310.215 152.365 310.341 152.591C310.472 152.817 310.753 153.005 311.122 153.113C311.491 153.221 311.918 153.241 312.309 153.168C312.699 153.095 313.02 152.934 313.203 152.723C313.386 152.511 313.415 152.265 313.284 152.039L313.283 152.039ZM330.596 160.607C331.406 160.082 331.317 159.272 330.399 158.798C329.48 158.325 328.079 158.366 327.268 158.891C326.458 159.415 326.545 160.225 327.463 160.699C328.383 161.173 329.785 161.132 330.596 160.607ZM339.061 162.718C338.983 162.582 338.858 162.456 338.696 162.347C338.533 162.238 338.335 162.149 338.113 162.084C337.892 162.019 337.651 161.979 337.404 161.968C337.157 161.956 336.909 161.973 336.675 162.017C336.44 162.061 336.223 162.131 336.037 162.224C335.85 162.317 335.698 162.43 335.588 162.557C335.478 162.684 335.412 162.823 335.395 162.965C335.378 163.108 335.41 163.251 335.489 163.387C335.649 163.662 335.99 163.89 336.437 164.021C336.885 164.152 337.403 164.176 337.876 164.088C338.35 163.999 338.741 163.804 338.963 163.548C339.186 163.291 339.221 162.992 339.061 162.718ZM325.097 155.146C325.172 154.936 325.136 154.716 324.995 154.516C324.853 154.316 324.613 154.144 324.304 154.021C323.995 153.899 323.63 153.831 323.257 153.828C322.884 153.824 322.519 153.885 322.208 154.001C321.897 154.118 321.654 154.286 321.51 154.483C321.365 154.681 321.326 154.899 321.397 155.111C321.468 155.323 321.646 155.519 321.908 155.674C322.171 155.829 322.506 155.936 322.871 155.981C323.114 156.012 323.364 156.014 323.608 155.989C323.851 155.963 324.083 155.91 324.29 155.832C324.497 155.755 324.675 155.654 324.813 155.537C324.952 155.419 325.048 155.286 325.097 155.146ZM345.222 161.821C345.118 161.644 344.898 161.497 344.609 161.412C344.321 161.328 343.987 161.312 343.681 161.368C343.375 161.425 343.122 161.549 342.977 161.714C342.831 161.879 342.806 162.072 342.905 162.249C342.956 162.338 343.036 162.421 343.141 162.492C343.247 162.563 343.376 162.621 343.52 162.664C343.664 162.707 343.821 162.732 343.982 162.74C344.143 162.747 344.305 162.736 344.458 162.707C344.763 162.65 345.015 162.524 345.159 162.358C345.302 162.191 345.324 161.999 345.222 161.821ZM326.236 151.151C326.268 151.061 326.269 150.968 326.238 150.876C326.208 150.785 326.146 150.699 326.058 150.621C325.969 150.543 325.856 150.476 325.723 150.423C325.59 150.371 325.441 150.334 325.283 150.314C325.126 150.295 324.965 150.293 324.807 150.31C324.65 150.326 324.5 150.361 324.366 150.411C324.233 150.461 324.118 150.526 324.028 150.602C323.939 150.678 323.876 150.764 323.844 150.854C323.78 151.037 323.844 151.228 324.022 151.385C324.201 151.542 324.48 151.652 324.797 151.692C325.114 151.731 325.444 151.696 325.714 151.595C325.984 151.494 326.172 151.334 326.236 151.151L326.236 151.151ZM336.741 155.677C336.653 155.569 336.529 155.472 336.376 155.392C336.223 155.311 336.045 155.249 335.851 155.208C335.657 155.168 335.451 155.15 335.246 155.155C335.04 155.161 334.84 155.19 334.655 155.241C334.47 155.292 334.305 155.364 334.17 155.452C334.034 155.54 333.931 155.644 333.865 155.756C333.8 155.868 333.774 155.986 333.789 156.105C333.803 156.223 333.859 156.339 333.952 156.446C334.136 156.657 334.456 156.82 334.843 156.897C335.23 156.975 335.653 156.962 336.019 156.861C336.386 156.76 336.667 156.579 336.802 156.357C336.937 156.136 336.915 155.891 336.741 155.677Z" fill="#E6E6E6"/>
      <path d="M196.961 134.475L196.961 126.012L223.03 122.943L233.129 132.537L232.951 136.082L244.123 129.647C246.566 128.246 250.528 128.246 252.971 129.647L263.428 135.695L296.2 126.727L300.133 126.012L300.133 134.475C300.133 135.399 299.537 136.322 298.315 137.037L252.971 163.225C250.528 164.625 246.566 164.625 244.123 163.225L198.779 137.037C197.557 136.322 196.961 135.399 196.961 134.475Z" fill="white"/>
      <path d="M196.961 134.475L196.961 126.012L223.03 122.943L233.129 132.537L232.951 136.082L244.123 129.647C246.566 128.246 250.528 128.246 252.971 129.647L263.428 135.695L296.2 126.727L300.133 126.012L300.133 134.475C300.133 135.399 299.537 136.322 298.315 137.037L252.971 163.225C250.528 164.625 246.566 164.625 244.123 163.225L198.779 137.037C197.557 136.322 196.961 135.399 196.961 134.475Z" fill="url(#paint7_linear_1707_37148)" fill-opacity="0.4"/>
      <path d="M198.777 127.174L244.122 153.362C246.565 154.762 250.527 154.762 252.97 153.362L298.314 127.174C300.757 125.774 300.757 123.48 298.314 122.08L252.97 95.892C250.527 94.4917 246.565 94.4917 244.122 95.892L198.777 122.08C196.334 123.48 196.334 125.744 198.777 127.174Z" fill="white"/>
      <path d="M198.777 127.174L244.122 153.362C246.565 154.762 250.527 154.762 252.97 153.362L298.314 127.174C300.757 125.774 300.757 123.48 298.314 122.08L252.97 95.892C250.527 94.4917 246.565 94.4917 244.122 95.892L198.777 122.08C196.334 123.48 196.334 125.744 198.777 127.174Z" fill="url(#paint8_linear_1707_37148)" fill-opacity="0.2"/>
      <path d="M338.867 134.475L338.867 126.012L364.936 122.943L375.036 132.537L374.857 136.082L386.029 129.647C388.472 128.246 392.434 128.246 394.877 129.647L405.335 135.695L438.106 126.727L442.039 126.012L442.039 134.475C442.039 135.399 441.443 136.322 440.222 137.037L394.877 163.225C392.434 164.625 388.472 164.625 386.029 163.225L340.685 137.037C339.463 136.322 338.867 135.399 338.867 134.475Z" fill="white"/>
      <path d="M338.867 134.475L338.867 126.012L364.936 122.943L375.036 132.537L374.857 136.082L386.029 129.647C388.472 128.246 392.434 128.246 394.877 129.647L405.335 135.695L438.106 126.727L442.039 126.012L442.039 134.475C442.039 135.399 441.443 136.322 440.222 137.037L394.877 163.225C392.434 164.625 388.472 164.625 386.029 163.225L340.685 137.037C339.463 136.322 338.867 135.399 338.867 134.475Z" fill="url(#paint9_linear_1707_37148)" fill-opacity="0.4"/>
      <path d="M340.684 127.174L386.028 153.362C388.471 154.762 392.433 154.762 394.876 153.362L440.22 127.174C442.663 125.774 442.663 123.48 440.22 122.08L394.876 95.892C392.433 94.4917 388.471 94.4917 386.028 95.892L340.684 122.08C338.241 123.48 338.241 125.744 340.684 127.174Z" fill="white"/>
      <path d="M340.684 127.174L386.028 153.362C388.471 154.762 392.433 154.762 394.876 153.362L440.22 127.174C442.663 125.774 442.663 123.48 440.22 122.08L394.876 95.892C392.433 94.4917 388.471 94.4917 386.028 95.892L340.684 122.08C338.241 123.48 338.241 125.744 340.684 127.174Z" fill="url(#paint10_linear_1707_37148)" fill-opacity="0.2"/>
      <path d="M365.515 92.0878C366.251 91.6325 366.751 90.957 367.012 90.2045L367.229 43.219L351.696 42.3809L270.047 43.3028L270.047 88.9254C270.047 90.1332 270.605 91.3382 271.721 92.0271L286.591 101.211L298.733 108.71L312.322 117.102C316.249 119.528 321.088 119.528 325.015 117.102L336.652 109.915L352.602 100.052V100.064L352.612 100.057L364.437 92.7534L365.515 92.0878Z" fill="white"/>
      <path d="M365.515 92.0878C366.251 91.6325 366.751 90.957 367.012 90.2045L367.229 43.219L351.696 42.3809L270.047 43.3028L270.047 88.9254C270.047 90.1332 270.605 91.3382 271.721 92.0271L286.591 101.211L298.733 108.71L312.322 117.102C316.249 119.528 321.088 119.528 325.015 117.102L336.652 109.915L352.602 100.052V100.064L352.612 100.057L364.437 92.7534L365.515 92.0878Z" fill="url(#paint11_linear_1707_37148)" fill-opacity="0.14"/>
      <path d="M312.351 15.8248L271.722 40.9968C270.605 41.6879 270.048 42.8988 270.047 44.1097C270.047 45.3213 270.605 46.53 271.721 47.2211L286.591 56.4337L298.733 63.9567L312.322 72.3755C316.249 74.8092 321.088 74.8092 325.015 72.3755L336.652 65.1655L352.602 55.271V55.2837L352.612 55.2766L364.437 47.9498L365.515 47.282C366.251 46.8253 366.751 46.1476 367.012 45.3928C367.156 44.9778 367.229 44.5388 367.229 44.0998C367.23 42.8613 366.659 41.6221 365.517 40.914L325.047 15.8269C321.119 13.3917 316.279 13.391 312.351 15.8248Z" fill="#FDFDFD"/>
      <path d="M312.351 15.8248L271.722 40.9968C270.605 41.6879 270.048 42.8988 270.047 44.1097C270.047 45.3213 270.605 46.53 271.721 47.2211L286.591 56.4337L298.733 63.9567L312.322 72.3755C316.249 74.8092 321.088 74.8092 325.015 72.3755L336.652 65.1655L352.602 55.271V55.2837L352.612 55.2766L364.437 47.9498L365.515 47.282C366.251 46.8253 366.751 46.1476 367.012 45.3928C367.156 44.9778 367.229 44.5388 367.229 44.0998C367.23 42.8613 366.659 41.6221 365.517 40.914L325.047 15.8269C321.119 13.3917 316.279 13.391 312.351 15.8248Z" fill="url(#paint12_linear_1707_37148)"/>
      <path d="M312.351 15.8248L271.722 40.9968C270.605 41.6879 270.048 42.8988 270.047 44.1097C270.047 45.3213 270.605 46.53 271.721 47.2211L286.591 56.4337L298.733 63.9567L312.322 72.3755C316.249 74.8092 321.088 74.8092 325.015 72.3755L336.652 65.1655L352.602 55.271V55.2837L352.612 55.2766L364.437 47.9498L365.515 47.282C366.251 46.8253 366.751 46.1476 367.012 45.3928C367.156 44.9778 367.229 44.5388 367.229 44.0998C367.23 42.8613 366.659 41.6221 365.517 40.914L325.047 15.8269C321.119 13.3917 316.279 13.391 312.351 15.8248Z" fill="url(#paint13_linear_1707_37148)"/>
      <path d="M305.505 51.3238C305.623 51.2492 305.714 51.1617 305.772 51.0663C305.83 50.9709 305.855 50.8696 305.845 50.7681C305.835 50.6667 305.79 50.5671 305.714 50.4753C305.637 50.3835 305.529 50.3012 305.397 50.2331C305.265 50.1651 305.112 50.1127 304.945 50.0789C304.778 50.0452 304.602 50.0308 304.427 50.0366C304.251 50.0424 304.08 50.0682 303.923 50.1126C303.765 50.157 303.625 50.2191 303.511 50.2953C303.282 50.4468 303.168 50.6449 303.192 50.8466C303.216 51.0483 303.376 51.2373 303.639 51.3726C303.901 51.508 304.244 51.5788 304.594 51.5696C304.943 51.5605 305.271 51.4721 305.505 51.3238ZM314.26 55.2109C314.315 55.0544 314.259 54.8911 314.106 54.7568C313.952 54.6225 313.713 54.5283 313.442 54.4949C313.17 54.4614 312.887 54.4916 312.657 54.5786C312.426 54.6656 312.265 54.8024 312.211 54.9589C312.184 55.0364 312.183 55.1164 312.21 55.1944C312.236 55.2723 312.289 55.3466 312.365 55.4131C312.441 55.4796 312.539 55.5369 312.653 55.5819C312.767 55.6268 312.895 55.6585 313.029 55.675C313.164 55.6915 313.302 55.6926 313.437 55.6783C313.572 55.6639 313.7 55.6343 313.814 55.5912C313.928 55.5481 314.027 55.4923 314.103 55.4271C314.18 55.3618 314.233 55.2883 314.26 55.2108L314.26 55.2109ZM297.938 45.4552C297.895 45.3797 297.826 45.3098 297.736 45.2494C297.646 45.189 297.536 45.1393 297.413 45.1032C297.29 45.0671 297.157 45.0453 297.02 45.039C296.883 45.0327 296.745 45.0421 296.615 45.0665C296.419 45.1032 296.247 45.1727 296.121 45.2663C295.994 45.3599 295.919 45.4733 295.905 45.5923C295.891 45.7113 295.938 45.8304 296.041 45.9346C296.144 46.0388 296.298 46.1235 296.483 46.1779C296.668 46.2322 296.876 46.2538 297.081 46.24C297.286 46.2262 297.479 46.1775 297.635 46.1002C297.79 46.0228 297.902 45.9202 297.957 45.8054C298.011 45.6906 298.004 45.5687 297.938 45.4552ZM316.353 51.9298C316.438 51.6883 316.353 51.436 316.116 51.2286C315.88 51.0211 315.511 50.8754 315.092 50.8234C314.673 50.7717 314.236 50.818 313.88 50.9522C313.523 51.0864 313.275 51.2975 313.19 51.5391C313.108 51.78 313.195 52.031 313.431 52.2372C313.668 52.4434 314.036 52.5881 314.453 52.6397C314.871 52.6913 315.305 52.6456 315.661 52.5126C316.017 52.3796 316.266 52.17 316.353 51.9298ZM304.289 44.4813C304.222 44.3647 304.116 44.2566 303.978 44.1631C303.839 44.0696 303.67 43.9926 303.481 43.9364C303.292 43.8803 303.085 43.8462 302.874 43.836C302.663 43.8258 302.45 43.8397 302.249 43.877C301.948 43.9325 301.682 44.0382 301.486 44.181C301.29 44.3237 301.172 44.4972 301.146 44.6797C301.121 44.8622 301.189 45.0456 301.342 45.2071C301.496 45.3686 301.728 45.5009 302.009 45.5876C302.291 45.6742 302.609 45.7114 302.925 45.6944C303.241 45.6774 303.54 45.607 303.784 45.492C304.029 45.377 304.209 45.2226 304.302 45.0479C304.394 44.8732 304.395 44.686 304.304 44.5098L304.289 44.4813ZM311.805 48.0208C311.926 47.816 311.938 47.5944 311.84 47.3841C311.743 47.1737 311.54 46.9841 311.257 46.8393C310.47 46.4357 309.273 46.4723 308.581 46.9211C308.395 47.0415 308.258 47.1846 308.181 47.34C308.103 47.4955 308.086 47.6593 308.131 47.8198C308.176 47.9803 308.282 48.1335 308.442 48.2682C308.602 48.4029 308.81 48.5158 309.054 48.5988C309.297 48.6818 309.569 48.7328 309.849 48.7481C310.129 48.7634 310.411 48.7427 310.674 48.6874C310.937 48.6321 311.175 48.5436 311.371 48.4283C311.566 48.3131 311.715 48.1738 311.805 48.0208ZM325.822 53.7266C325.708 53.5343 325.468 53.3748 325.154 53.2828C324.84 53.1907 324.477 53.1737 324.144 53.2353C323.812 53.2969 323.536 53.4323 323.378 53.6118C323.219 53.7913 323.191 54.0006 323.299 54.1939C323.407 54.3873 323.642 54.5491 323.954 54.6441C324.265 54.7392 324.628 54.7597 324.962 54.7014C325.297 54.643 325.576 54.5104 325.74 54.3325C325.903 54.1545 325.938 53.9456 325.836 53.7513L325.822 53.7267L325.822 53.7266ZM300.245 39.2668C300.282 39.1678 300.284 39.0654 300.251 38.9655C300.219 38.8656 300.152 38.7702 300.056 38.6847C299.96 38.5993 299.835 38.5255 299.689 38.4677C299.544 38.4099 299.38 38.3692 299.208 38.3479C299.036 38.3267 298.858 38.3253 298.686 38.3438C298.514 38.3624 298.35 38.4005 298.204 38.4561C298.058 38.5116 297.933 38.5834 297.836 38.6673C297.739 38.7513 297.672 38.8456 297.639 38.945C297.573 39.1432 297.646 39.3493 297.841 39.5186C298.036 39.6878 298.338 39.8065 298.681 39.8489C299.025 39.8913 299.382 39.8539 299.674 39.7449C299.967 39.6359 300.172 39.4641 300.245 39.2668ZM320.243 46.027C320.033 45.6286 319.6 45.2804 319.012 45.0376C318.424 44.7948 317.715 44.6712 316.997 44.6865C316.278 44.7017 315.592 44.8548 315.047 45.1216C314.502 45.3885 314.129 45.7537 313.986 46.1596C313.878 46.4625 313.904 46.7771 314.061 47.0746C314.218 47.3721 314.5 47.643 314.884 47.8628C315.395 48.1577 316.061 48.3469 316.775 48.4003C317.489 48.4537 318.21 48.3683 318.825 48.1576C319.44 47.9469 319.914 47.623 320.171 47.2371C320.427 46.8512 320.453 46.4253 320.243 46.027ZM314.608 42.5767C314.253 42.1799 313.665 41.8679 312.951 41.6967C312.237 41.5256 311.443 41.5067 310.714 41.6433C309.028 41.9618 308.121 43.0104 308.685 43.9889C308.845 44.267 309.114 44.5205 309.472 44.7296C310.019 45.0458 310.742 45.2399 311.51 45.2771C312.278 45.3142 313.041 45.192 313.661 44.9323C314.28 44.6726 314.716 44.2925 314.89 43.8606C315.064 43.4288 314.964 42.9734 314.608 42.5767ZM324.413 49.6932C324.432 49.5315 324.389 49.3689 324.286 49.2172C324.184 49.0655 324.025 48.9283 323.821 48.8157C323.616 48.703 323.372 48.6177 323.104 48.5657C322.837 48.5138 322.554 48.4966 322.275 48.5154C321.997 48.5342 321.729 48.5885 321.493 48.6743C321.256 48.7602 321.056 48.8755 320.907 49.012C320.758 49.1485 320.664 49.3027 320.631 49.4635C320.598 49.6244 320.627 49.7879 320.717 49.9422C320.857 50.1836 321.137 50.3905 321.509 50.5276C321.882 50.6647 322.324 50.7236 322.759 50.6942C323.195 50.6648 323.598 50.549 323.9 50.3665C324.201 50.184 324.382 49.946 324.413 49.6932ZM308.344 40.5348C308.551 39.9424 307.885 39.3597 306.857 39.2333C305.829 39.108 304.829 39.4852 304.62 40.0769C304.413 40.6692 305.079 41.2519 306.107 41.3784C307.136 41.5049 308.137 41.1272 308.344 40.5348ZM326.929 46.7036C328.092 45.9491 327.985 44.7888 326.687 44.0937C325.389 43.3988 323.379 43.4247 322.165 44.152C320.965 44.8711 320.98 46.0146 322.189 46.7395L322.231 46.764L322.357 46.8365C323.684 47.5191 325.698 47.4666 326.885 46.7242L326.924 46.6992L326.929 46.7036ZM316.114 40.4299C317.294 39.6648 317.164 38.485 315.825 37.7949C315.509 37.6299 315.139 37.5025 314.739 37.4202C314.338 37.3379 313.914 37.3024 313.491 37.3156C312.874 37.3336 312.281 37.4533 311.783 37.6606C311.284 37.8679 310.901 38.1541 310.678 38.4853C310.455 38.8164 310.402 39.1786 310.526 39.5289C310.649 39.8793 310.943 40.203 311.373 40.4619L311.419 40.4892L311.553 40.5661C312.892 41.2562 314.934 41.1953 316.114 40.4302L316.114 40.4299ZM332.318 49.905C332.602 49.7216 332.745 49.48 332.719 49.2333C332.692 48.9866 332.497 48.755 332.176 48.5894C331.855 48.4239 331.434 48.338 331.007 48.3506C330.58 48.3632 330.181 48.4733 329.897 48.6566C329.615 48.8401 329.471 49.0817 329.498 49.3285C329.524 49.5752 329.72 49.8069 330.041 49.9724C330.362 50.138 330.782 50.2239 331.209 50.2112C331.637 50.1986 332.035 50.0884 332.318 49.905ZM308.289 35.9721C308.569 35.7885 308.711 35.5474 308.683 35.3016C308.655 35.0557 308.46 34.8251 308.14 34.6601C307.82 34.4951 307.402 34.4091 306.976 34.421C306.551 34.4328 306.152 34.5416 305.868 34.7234C305.585 34.9069 305.442 35.1487 305.468 35.3955C305.495 35.6424 305.691 35.8741 306.012 36.0398C306.333 36.2053 306.753 36.2911 307.18 36.2784C307.607 36.2657 308.006 36.1556 308.289 35.9722L308.289 35.9721ZM336.097 51.3293L336.068 51.3139C335.966 51.2607 335.846 51.2196 335.716 51.1929C335.587 51.1663 335.449 51.1546 335.312 51.1586C335.175 51.1627 335.041 51.1823 334.918 51.2163C334.795 51.2504 334.685 51.2983 334.595 51.3572C334.459 51.445 334.372 51.554 334.344 51.6709C334.316 51.7877 334.348 51.9071 334.436 52.0143C334.525 52.1214 334.665 52.2116 334.841 52.2735C335.016 52.3355 335.219 52.3665 335.423 52.3627C335.628 52.3589 335.825 52.3205 335.991 52.2522C336.156 52.1839 336.283 52.0888 336.355 51.9786C336.426 51.8685 336.44 51.7482 336.395 51.6328C336.349 51.5173 336.245 51.4118 336.097 51.3293ZM303.529 32.4386L303.497 32.4215C303.289 32.3146 303.017 32.2592 302.74 32.2674C302.464 32.2756 302.205 32.3469 302.022 32.4654C301.887 32.5533 301.799 32.6624 301.771 32.7794C301.743 32.8963 301.775 33.0159 301.863 33.1232C301.952 33.2305 302.092 33.3208 302.268 33.3829C302.443 33.445 302.646 33.4762 302.851 33.4726C303.055 33.4689 303.253 33.4306 303.419 33.3624C303.585 33.2942 303.712 33.1992 303.784 33.089C303.856 32.9788 303.871 32.8585 303.825 32.7428C303.78 32.6272 303.677 32.5214 303.529 32.4386ZM328.712 39.9018C328.289 39.6552 327.757 39.4806 327.175 39.3977C326.593 39.3147 325.984 39.3267 325.417 39.4323C324.893 39.5298 324.423 39.7036 324.051 39.937C323.679 40.1704 323.418 40.4556 323.293 40.7654C323.168 41.0752 323.183 41.3993 323.337 41.7067C323.49 42.0141 323.777 42.2946 324.17 42.5214C324.595 42.7682 325.13 42.9424 325.713 43.0245C326.297 43.1065 326.907 43.0931 327.474 42.9858C327.996 42.8873 328.464 42.7131 328.833 42.4799C329.203 42.2466 329.462 41.962 329.586 41.6531C329.71 41.3441 329.695 41.0211 329.542 40.7146C329.389 40.4081 329.103 40.1283 328.712 39.9018ZM323.308 36.7629C322.796 36.4681 322.13 36.2792 321.416 36.226C320.702 36.1728 319.981 36.2584 319.366 36.4692C318.751 36.68 318.278 37.0041 318.022 37.39C317.765 37.776 317.74 38.2018 317.95 38.6001C318.16 38.9984 318.594 39.3464 319.182 39.5891C319.77 39.8317 320.479 39.9552 321.197 39.9399C321.915 39.9246 322.601 39.7714 323.146 39.5046C323.691 39.2378 324.064 38.8726 324.207 38.4668C324.313 38.1637 324.286 37.8492 324.129 37.5518C323.972 37.2543 323.69 36.9832 323.308 36.7629ZM333.569 44.5517C333.777 43.9594 333.112 43.3765 332.083 43.2497C331.055 43.1229 330.053 43.5002 329.845 44.0923C329.638 44.6846 330.303 45.2676 331.331 45.3945C331.576 45.4248 331.827 45.427 332.072 45.4011C332.317 45.3751 332.55 45.3215 332.758 45.2432C332.966 45.1649 333.145 45.0635 333.284 44.9449C333.423 44.8262 333.52 44.6926 333.569 44.5517ZM317.47 34.6848C317.39 34.5477 317.265 34.4207 317.101 34.3109C316.937 34.2012 316.738 34.111 316.514 34.0454C316.291 33.9799 316.047 33.9402 315.799 33.9288C315.55 33.9174 315.3 33.9344 315.063 33.9789C314.069 34.1655 313.534 34.7839 313.869 35.3602C314.204 35.9365 315.281 36.2524 316.275 36.066C317.27 35.8795 317.804 35.261 317.47 34.6848L317.47 34.6848ZM340.548 45.683C340.617 45.484 340.547 45.2761 340.352 45.1052C340.255 45.0206 340.131 44.9476 339.986 44.8904C339.841 44.8332 339.679 44.7929 339.508 44.7718C339.336 44.7507 339.16 44.7492 338.989 44.7674C338.818 44.7856 338.654 44.8232 338.509 44.878C338.364 44.9327 338.239 45.0036 338.141 45.0866C338.044 45.1696 337.976 45.263 337.941 45.3616C337.872 45.5606 337.942 45.7685 338.137 45.9394C338.332 46.1103 338.636 46.2302 338.981 46.2728C339.327 46.3155 339.686 46.2773 339.98 46.1667C340.274 46.056 340.478 45.8821 340.548 45.683ZM314.886 30.4305C314.77 30.239 314.529 30.0807 314.215 29.9898C313.901 29.8988 313.539 29.8827 313.207 29.9448C312.875 30.007 312.601 30.1423 312.444 30.3216C312.286 30.5009 312.258 30.7097 312.366 30.9026C312.478 31.0963 312.719 31.2572 313.035 31.3499C313.351 31.4426 313.717 31.4595 314.051 31.3969C314.385 31.3341 314.661 31.197 314.817 31.0158C314.974 30.8345 314.998 30.624 314.886 30.4304L314.886 30.4305ZM329.711 37.7669C330.404 37.3174 330.328 36.624 329.541 36.2182C328.755 35.8125 327.555 35.8478 326.861 36.2972C326.167 36.7463 326.242 37.4396 327.028 37.8457C327.815 38.2518 329.016 38.2166 329.711 37.7669ZM336.959 39.5742C336.892 39.4578 336.785 39.3499 336.646 39.2568C336.507 39.1637 336.337 39.0871 336.148 39.0314C335.958 38.9757 335.751 38.942 335.54 38.9322C335.328 38.9225 335.116 38.9368 334.915 38.9745C334.715 39.0121 334.529 39.0723 334.369 39.1516C334.21 39.231 334.079 39.3279 333.985 39.4368C333.89 39.5457 333.834 39.6646 333.82 39.7865C333.806 39.9085 333.833 40.0312 333.901 40.1476C334.037 40.3827 334.329 40.5779 334.712 40.6904C335.096 40.8029 335.539 40.8234 335.944 40.7473C336.35 40.6713 336.685 40.505 336.875 40.285C337.066 40.065 337.096 39.8093 336.959 39.5742ZM325.002 33.0909C325.066 32.9106 325.035 32.7229 324.914 32.5514C324.793 32.3799 324.587 32.2324 324.322 32.1275C324.058 32.0226 323.746 31.965 323.426 31.962C323.107 31.959 322.794 32.0107 322.528 32.1106C322.262 32.2105 322.053 32.3541 321.93 32.5233C321.806 32.6925 321.773 32.8796 321.833 33.0611C321.894 33.2425 322.046 33.4101 322.271 33.5427C322.496 33.6752 322.783 33.7668 323.096 33.8059C323.304 33.832 323.518 33.8341 323.726 33.8123C323.935 33.7905 324.133 33.745 324.311 33.6786C324.488 33.6122 324.64 33.5261 324.759 33.4252C324.877 33.3244 324.96 33.2107 325.002 33.0909ZM342.234 38.8066C342.146 38.6551 341.957 38.5294 341.71 38.4567C341.463 38.3841 341.177 38.3705 340.915 38.4189C340.653 38.4673 340.436 38.5738 340.312 38.7152C340.187 38.8565 340.165 39.0212 340.251 39.1733C340.294 39.2494 340.363 39.3199 340.453 39.3808C340.543 39.4417 340.654 39.4919 340.777 39.5283C340.901 39.5648 341.035 39.5869 341.173 39.5933C341.311 39.5997 341.449 39.5903 341.58 39.5656C341.842 39.516 342.058 39.4082 342.18 39.266C342.303 39.1237 342.322 38.9585 342.234 38.8066ZM325.977 29.6702C326.005 29.5927 326.005 29.5127 325.979 29.4348C325.953 29.3568 325.9 29.2824 325.825 29.2158C325.749 29.1493 325.651 29.0918 325.537 29.0467C325.424 29.0016 325.296 28.9698 325.161 28.9531C325.027 28.9364 324.888 28.9352 324.754 28.9494C324.619 28.9636 324.491 28.993 324.376 29.036C324.262 29.079 324.163 29.1346 324.087 29.1998C324.01 29.265 323.956 29.3384 323.929 29.4158C323.874 29.5723 323.928 29.7357 324.081 29.8702C324.234 30.0046 324.473 30.0991 324.745 30.1329C325.016 30.1666 325.299 30.1368 325.53 30.0501C325.761 29.9633 325.922 29.8267 325.977 29.6703L325.977 29.6702ZM334.972 33.5457C334.897 33.4533 334.791 33.3702 334.66 33.3013C334.529 33.2324 334.376 33.179 334.21 33.1442C334.044 33.1095 333.868 33.0941 333.692 33.0989C333.516 33.1036 333.344 33.1286 333.186 33.1722C333.028 33.2157 332.887 33.2771 332.771 33.3528C332.654 33.4284 332.566 33.5168 332.51 33.6128C332.454 33.7088 332.431 33.8104 332.444 33.9119C332.457 34.0134 332.504 34.1126 332.584 34.2039C332.742 34.385 333.016 34.5238 333.347 34.5903C333.678 34.6567 334.04 34.6455 334.354 34.5589C334.668 34.4724 334.909 34.3176 335.025 34.1279C335.14 33.9383 335.121 33.7291 334.972 33.5457Z" fill="white"/>
    </g>
    <defs>
      <linearGradient id="paint0_linear_1707_37148" x1="535.978" y1="-73.3757" x2="399.393" y2="373.506" gradientUnits="userSpaceOnUse">
        <stop stop-color="white"/>
        <stop offset="1" stop-color="#E8E8E8"/>
      </linearGradient>
      <linearGradient id="paint1_linear_1707_37148" x1="146.629" y1="28.685" x2="127.99" y2="-30.5017" gradientUnits="userSpaceOnUse">
        <stop stop-color="#808080"/>
        <stop offset="1" stop-color="#EAEAEA" stop-opacity="0"/>
      </linearGradient>
      <linearGradient id="paint2_linear_1707_37148" x1="-11.191" y1="25.8971" x2="17.4929" y2="25.8888" gradientUnits="userSpaceOnUse">
        <stop stop-color="#44FFF9"/>
        <stop offset="0.166667" stop-color="#7188FF"/>
        <stop offset="0.511814" stop-color="#FF5178"/>
        <stop offset="0.833333" stop-color="#FFB719"/>
        <stop offset="1" stop-color="#D153D1"/>
      </linearGradient>
      <linearGradient id="paint3_linear_1707_37148" x1="-29.9858" y1="-81.2354" x2="-71.0592" y2="70.6641" gradientUnits="userSpaceOnUse">
        <stop stop-color="#44FFF9"/>
        <stop offset="0.166667" stop-color="#7188FF"/>
        <stop offset="0.511814" stop-color="#FF5178"/>
        <stop offset="0.833333" stop-color="#FFB719"/>
        <stop offset="1" stop-color="#D153D1"/>
      </linearGradient>
      <linearGradient id="paint4_linear_1707_37148" x1="-28.7972" y1="-83.8742" x2="-91.489" y2="93.4108" gradientUnits="userSpaceOnUse">
        <stop stop-color="#44FFF9"/>
        <stop offset="0.166667" stop-color="#7188FF"/>
        <stop offset="0.511814" stop-color="#FF5178"/>
        <stop offset="0.833333" stop-color="#FFB719"/>
        <stop offset="1" stop-color="#D153D1"/>
      </linearGradient>
      <linearGradient id="paint5_linear_1707_37148" x1="365.924" y1="218.378" x2="265.053" y2="271.461" gradientUnits="userSpaceOnUse">
        <stop stop-color="#EFEFEF" stop-opacity="0"/>
        <stop offset="1" stop-color="#C1C1C1"/>
      </linearGradient>
      <linearGradient id="paint6_linear_1707_37148" x1="279.427" y1="181.539" x2="300.046" y2="118.308" gradientUnits="userSpaceOnUse">
        <stop stop-color="#EFEFEF" stop-opacity="0"/>
        <stop offset="1" stop-color="#C1C1C1"/>
      </linearGradient>
      <linearGradient id="paint7_linear_1707_37148" x1="296.262" y1="177.097" x2="195.391" y2="230.179" gradientUnits="userSpaceOnUse">
        <stop stop-color="#EFEFEF" stop-opacity="0"/>
        <stop offset="1" stop-color="#C1C1C1"/>
      </linearGradient>
      <linearGradient id="paint8_linear_1707_37148" x1="209.765" y1="140.258" x2="230.384" y2="77.0267" gradientUnits="userSpaceOnUse">
        <stop stop-color="#EFEFEF" stop-opacity="0"/>
        <stop offset="1" stop-color="#C1C1C1"/>
      </linearGradient>
      <linearGradient id="paint9_linear_1707_37148" x1="438.168" y1="177.097" x2="337.297" y2="230.179" gradientUnits="userSpaceOnUse">
        <stop stop-color="#EFEFEF" stop-opacity="0"/>
        <stop offset="1" stop-color="#C1C1C1"/>
      </linearGradient>
      <linearGradient id="paint10_linear_1707_37148" x1="351.671" y1="140.258" x2="372.29" y2="77.0267" gradientUnits="userSpaceOnUse">
        <stop stop-color="#EFEFEF" stop-opacity="0"/>
        <stop offset="1" stop-color="#C1C1C1"/>
      </linearGradient>
      <linearGradient id="paint11_linear_1707_37148" x1="538.751" y1="77.5463" x2="99.1249" y2="75.8654" gradientUnits="userSpaceOnUse">
        <stop stop-color="#44FFF9"/>
        <stop offset="0.166667" stop-color="#7188FF"/>
        <stop offset="0.511814" stop-color="#FF5178"/>
        <stop offset="0.833333" stop-color="#FFB719"/>
        <stop offset="1" stop-color="#D153D1"/>
      </linearGradient>
      <linearGradient id="paint12_linear_1707_37148" x1="538.75" y1="39.218" x2="99.1276" y2="37.23" gradientUnits="userSpaceOnUse">
        <stop stop-color="#44FFF9"/>
        <stop offset="0.166667" stop-color="#7188FF"/>
        <stop offset="0.511814" stop-color="#FF5178"/>
        <stop offset="0.833333" stop-color="#FFB719"/>
        <stop offset="1" stop-color="#D153D1"/>
      </linearGradient>
      <linearGradient id="paint13_linear_1707_37148" x1="633.732" y1="91.3448" x2="227.772" y2="-211.356" gradientUnits="userSpaceOnUse">
        <stop stop-color="#44FFF9"/>
        <stop offset="0.166667" stop-color="#7188FF"/>
        <stop offset="0.511814" stop-color="#FF5178"/>
        <stop offset="0.833333" stop-color="#FFB719"/>
        <stop offset="1" stop-color="#D153D1"/>
      </linearGradient>
      <clipPath id="clip0_1707_37148">
        <rect width="400" height="178" fill="white"/>
      </clipPath>
    </defs>
  </svg>