<svg width="25px" height="25px" viewBox="0 0 375 120" fill="none" xmlns="http://www.w3.org/2000/svg">
    <g clip-path="url(#clip0_1439_34584)">
      <rect width="375" height="120" fill="#141414"/>
      <path d="M168.59 70.6544L119.702 44.0337C118.481 43.3687 116.566 43.384 115.377 44.0682L73.8582 67.9646" stroke="#3D3D3D" stroke-width="0.422802" stroke-linecap="round"/>
      <path d="M288.768 90.2146L308.878 101.746C310.103 102.449 312.087 102.44 313.292 101.726L327.143 93.5212M402.227 80.8855L377.193 66.1004C375.966 65.3761 373.945 65.3813 372.73 66.1119L327.143 93.5212M327.143 93.5212L351.224 108.443" stroke="#3D3D3D" stroke-width="0.422802" stroke-linecap="round"/>
      <path d="M327.652 77.6789C326.41 79.5429 324.453 81.3276 321.769 82.8744L154.588 179.354C145.546 184.576 131.863 185.145 124.037 180.61L50.8374 138.333C47.5324 136.416 45.8138 133.904 45.5891 131.247L45.5758 131.233C44.7562 126.844 46.0121 121.807 46.0121 121.807L50.8771 122.085V122.098C51.5381 121.609 52.2387 121.133 53.0187 120.684L220.2 24.217C229.242 18.9951 242.925 18.4266 250.751 22.9611L323.964 65.2388L329.529 64.948C329.529 64.948 331.658 70.9763 327.996 77.1633C327.97 77.203 327.956 77.2294 327.93 77.2558C327.851 77.388 327.758 77.5203 327.679 77.6392C327.665 77.6525 327.652 77.6657 327.652 77.6789Z" fill="#1A1A1A"/>
      <path d="M324.851 58.7212L251.651 16.4434C243.825 11.9222 230.142 12.4906 221.1 17.6993L53.919 114.179C44.8765 119.401 43.8849 127.294 51.7245 131.815L124.924 174.093C132.75 178.614 146.433 178.045 155.475 172.837L322.656 76.3567C331.699 71.1348 332.69 63.2424 324.851 58.7212Z" fill="#252525"/>
      <path d="M138.883 172.4C143.788 172.4 148.679 171.329 152.421 169.174L321.584 71.9007C323.766 70.6448 324.969 68.9129 324.969 67.0357C324.969 65.1452 323.779 63.4134 321.598 62.1575L310.189 55.5475C308.166 54.3709 304.993 54.3709 302.957 55.5342C301.463 56.3935 298.925 56.3935 297.431 55.521L256.714 31.9232C256.145 31.5927 255.828 31.1961 255.828 30.8127C255.828 30.4426 256.158 30.0327 256.727 29.7022C257.837 29.0677 258.472 28.1291 258.472 27.1243C258.472 26.1196 257.837 25.181 256.74 24.5464L251.333 21.4133C243.85 17.0771 231.648 17.0506 224.153 21.3604L54.9756 118.634C52.7943 119.889 51.5912 121.621 51.5912 123.499C51.5912 125.376 52.781 127.121 54.9623 128.377L125.24 169.108C128.995 171.302 133.939 172.4 138.883 172.4Z" fill="#141414"/>
      <path d="M269.195 32.8263C269.651 32.5586 269.651 32.1326 269.195 31.8649C268.738 31.5971 267.99 31.5971 267.534 31.8649C267.077 32.1326 267.077 32.5586 267.534 32.8263C267.99 33.0941 268.732 33.0941 269.195 32.8263Z" fill="#303030"/>
      <path d="M272.856 35.1055L294.074 47.3605" stroke="#303030" stroke-width="0.422802" stroke-linecap="round"/>
      <path d="M295.193 96.5339L295.193 96.5337C295.529 96.3407 295.836 96.0272 296.059 95.6695C296.283 95.3105 296.412 94.9252 296.412 94.5957V94.4198C296.412 94.0682 296.279 93.835 296.066 93.7148L296.066 93.7148L296.064 93.7141C295.827 93.5787 295.466 93.5881 295.06 93.8161C295.06 93.8163 295.06 93.8165 295.059 93.8167L287.873 97.9653L287.873 97.9654C287.538 98.1584 287.23 98.472 287.007 98.8297C286.783 99.1886 286.655 99.5739 286.655 99.9034V100.079C286.655 100.431 286.787 100.664 287.001 100.784L287.001 100.784L287.011 100.791C287.098 100.847 287.213 100.878 287.36 100.878C287.548 100.878 287.771 100.817 288.005 100.683C288.005 100.683 288.005 100.683 288.006 100.683L295.193 96.5339Z" stroke="#303030" stroke-width="0.422802"/>
      <path d="M283.662 103.182L283.662 103.182C283.997 102.989 284.305 102.676 284.528 102.318C284.752 101.959 284.88 101.574 284.88 101.244V101.068C284.88 100.717 284.748 100.484 284.535 100.363C284.287 100.226 283.934 100.237 283.529 100.465C283.529 100.465 283.528 100.465 283.528 100.465L276.342 104.614L276.342 104.614C276.006 104.807 275.699 105.12 275.476 105.478C275.252 105.837 275.123 106.222 275.123 106.552V106.728C275.123 107.079 275.256 107.313 275.469 107.433L275.47 107.432L275.48 107.439C275.567 107.495 275.682 107.526 275.829 107.526C276.016 107.526 276.24 107.466 276.474 107.332C276.474 107.332 276.474 107.332 276.474 107.332L283.662 103.182Z" stroke="#303030" stroke-width="0.422802"/>
      <path d="M324.281 75.5352L324.281 80.9822" stroke="#303030" stroke-width="0.422802"/>
      <path d="M320.484 77.7617L320.484 83.4913" stroke="#303030" stroke-width="0.422802"/>
      <path opacity="0.2" d="M325.045 17.9245C325.045 16.6237 326.452 15.8099 327.58 16.4587L333.892 20.0914C335.984 21.2955 337.277 23.5234 337.283 25.9375L337.291 29.3958C337.295 30.6986 335.886 31.5157 334.757 30.8659L328.435 27.2281C326.338 26.0209 325.045 23.785 325.045 21.3648V17.9245Z" fill="#222222"/>
      <g filter="url(#filter0_b_1439_34584)">
        <path d="M315.171 17.9245C315.171 16.6237 316.578 15.8099 317.706 16.4587L330.24 23.672C332.333 24.8762 333.625 27.1041 333.631 29.5182L333.653 38.2135C333.656 39.5163 332.247 40.3334 331.118 39.6836L318.561 32.4573C316.464 31.2501 315.171 29.0143 315.171 26.5941V17.9245Z" fill="black"/>
        <path d="M315.171 17.9245C315.171 16.6237 316.578 15.8099 317.706 16.4587L330.24 23.672C332.333 24.8762 333.625 27.1041 333.631 29.5182L333.653 38.2135C333.656 39.5163 332.247 40.3334 331.118 39.6836L318.561 32.4573C316.464 31.2501 315.171 29.0143 315.171 26.5941V17.9245Z" fill="url(#paint0_linear_1439_34584)" fill-opacity="0.1"/>
      </g>
      <g filter="url(#filter1_b_1439_34584)">
        <path d="M303.999 17.9245C303.999 16.6237 305.406 15.8099 306.533 16.4587L321.787 25.2368C323.879 26.441 325.172 28.6689 325.178 31.083L325.205 42.0669C325.209 43.3697 323.8 44.1868 322.671 43.537L307.389 34.7425C305.292 33.5354 303.999 31.2995 303.999 28.8793V17.9245Z" fill="#242424"/>
      </g>
      <path d="M318.329 36.6819L310.255 32.0203L309.979 31.8614C309.091 31.3487 308.57 29.8943 309.079 29.3469L310.547 27.7658C310.881 27.4058 311.59 27.8151 311.924 28.5612C312.258 29.3073 312.967 29.7166 313.302 29.3566L314.631 27.9251C315.068 27.4542 315.995 27.9895 316.432 28.9652L319.23 35.2076C319.738 36.3419 319.217 37.1946 318.329 36.6819Z" fill="#141414"/>
      <circle cx="1.08884" cy="1.08884" r="1.08884" transform="matrix(0.866025 0.5 -2.20305e-08 1 309.145 22.8418)" fill="#141414"/>
      <path d="M228.585 41.2924L226.509 40.0934L232.367 36.7109L234.461 37.9199C235.05 38.2601 235.44 38.6207 235.631 39.0017C235.824 39.3815 235.816 39.7636 235.608 40.1479C235.402 40.5332 234.995 40.9015 234.387 41.2528C233.777 41.6051 233.137 41.8413 232.467 41.9613C231.8 42.0824 231.134 42.0868 230.471 41.9745C229.809 41.8633 229.18 41.6359 228.585 41.2924ZM228.809 40.1957L229.595 40.6499C229.961 40.8613 230.334 41.0017 230.714 41.0711C231.097 41.1404 231.489 41.1322 231.889 41.0463C232.294 40.9604 232.714 40.7914 233.151 40.5393C233.584 40.2893 233.874 40.0482 234.021 39.8159C234.169 39.5847 234.184 39.3595 234.064 39.1404C233.943 38.9213 233.7 38.706 233.334 38.4946L232.545 38.0388L228.809 40.1957Z" fill="black"/>
      <path d="M228.585 41.2924L226.509 40.0934L232.367 36.7109L234.461 37.9199C235.05 38.2601 235.44 38.6207 235.631 39.0017C235.824 39.3815 235.816 39.7636 235.608 40.1479C235.402 40.5332 234.995 40.9015 234.387 41.2528C233.777 41.6051 233.137 41.8413 232.467 41.9613C231.8 42.0824 231.134 42.0868 230.471 41.9745C229.809 41.8633 229.18 41.6359 228.585 41.2924ZM228.809 40.1957L229.595 40.6499C229.961 40.8613 230.334 41.0017 230.714 41.0711C231.097 41.1404 231.489 41.1322 231.889 41.0463C232.294 40.9604 232.714 40.7914 233.151 40.5393C233.584 40.2893 233.874 40.0482 234.021 39.8159C234.169 39.5847 234.184 39.3595 234.064 39.1404C233.943 38.9213 233.7 38.706 233.334 38.4946L232.545 38.0388L228.809 40.1957Z" fill="url(#paint1_linear_1439_34584)"/>
      <path d="M233.049 43.8692L231.721 43.1029L239.602 40.8882L241.199 41.8097L237.36 46.3582L236.032 45.5918L239.085 42.1351L239.039 42.1087L233.049 43.8692ZM235.269 42.4918L238.404 44.302L237.437 44.8602L234.302 43.0501L235.269 42.4918Z" fill="black"/>
      <path d="M233.049 43.8692L231.721 43.1029L239.602 40.8882L241.199 41.8097L237.36 46.3582L236.032 45.5918L239.085 42.1351L239.039 42.1087L233.049 43.8692ZM235.269 42.4918L238.404 44.302L237.437 44.8602L234.302 43.0501L235.269 42.4918Z" fill="url(#paint2_linear_1439_34584)"/>
      <path d="M236.394 47.7034L242.436 44.2153L243.637 44.9089L242.899 45.335L242.954 45.3664C243.125 45.329 243.323 45.3042 243.546 45.2921C243.773 45.28 244.009 45.2976 244.255 45.3449C244.505 45.3923 244.753 45.487 244.999 45.629C245.319 45.814 245.531 46.0331 245.634 46.2863C245.739 46.5385 245.704 46.8082 245.531 47.0956C245.359 47.3819 245.022 47.6703 244.518 47.961C244.028 48.244 243.535 48.4372 243.039 48.5407C242.547 48.6442 242.079 48.6679 241.635 48.6117C241.194 48.5556 240.807 48.4312 240.473 48.2385C240.237 48.1019 240.075 47.9632 239.987 47.8223C239.901 47.6824 239.865 47.5481 239.878 47.4193C239.894 47.2894 239.935 47.1732 240.001 47.0708L239.964 47.0493L237.613 48.4069L236.394 47.7034ZM241.432 46.1724C241.17 46.3232 240.979 46.4757 240.857 46.6298C240.735 46.784 240.688 46.9321 240.717 47.0741C240.747 47.2151 240.861 47.3422 241.057 47.4556C241.255 47.5701 241.477 47.6357 241.723 47.6522C241.971 47.6676 242.228 47.6395 242.493 47.5679C242.762 47.4964 243.024 47.3868 243.28 47.2393C243.533 47.0928 243.721 46.9436 243.843 46.7917C243.965 46.6398 244.012 46.4928 243.983 46.3507C243.955 46.2087 243.84 46.0799 243.64 45.9643C243.442 45.8498 243.221 45.7831 242.979 45.7644C242.739 45.7468 242.486 45.7727 242.221 45.842C241.956 45.9114 241.693 46.0215 241.432 46.1724Z" fill="black"/>
      <path d="M236.394 47.7034L242.436 44.2153L243.637 44.9089L242.899 45.335L242.954 45.3664C243.125 45.329 243.323 45.3042 243.546 45.2921C243.773 45.28 244.009 45.2976 244.255 45.3449C244.505 45.3923 244.753 45.487 244.999 45.629C245.319 45.814 245.531 46.0331 245.634 46.2863C245.739 46.5385 245.704 46.8082 245.531 47.0956C245.359 47.3819 245.022 47.6703 244.518 47.961C244.028 48.244 243.535 48.4372 243.039 48.5407C242.547 48.6442 242.079 48.6679 241.635 48.6117C241.194 48.5556 240.807 48.4312 240.473 48.2385C240.237 48.1019 240.075 47.9632 239.987 47.8223C239.901 47.6824 239.865 47.5481 239.878 47.4193C239.894 47.2894 239.935 47.1732 240.001 47.0708L239.964 47.0493L237.613 48.4069L236.394 47.7034ZM241.432 46.1724C241.17 46.3232 240.979 46.4757 240.857 46.6298C240.735 46.784 240.688 46.9321 240.717 47.0741C240.747 47.2151 240.861 47.3422 241.057 47.4556C241.255 47.5701 241.477 47.6357 241.723 47.6522C241.971 47.6676 242.228 47.6395 242.493 47.5679C242.762 47.4964 243.024 47.3868 243.28 47.2393C243.533 47.0928 243.721 46.9436 243.843 46.7917C243.965 46.6398 244.012 46.4928 243.983 46.3507C243.955 46.2087 243.84 46.0799 243.64 45.9643C243.442 45.8498 243.221 45.7831 242.979 45.7644C242.739 45.7468 242.486 45.7727 242.221 45.842C241.956 45.9114 241.693 46.0215 241.432 46.1724Z" fill="url(#paint3_linear_1439_34584)"/>
      <path d="M241.492 50.6465L247.533 47.1583L248.735 47.852L247.997 48.2781L248.051 48.3095C248.223 48.2721 248.42 48.2473 248.643 48.2352C248.87 48.2231 249.107 48.2407 249.353 48.288C249.603 48.3354 249.85 48.4301 250.096 48.5721C250.417 48.7571 250.629 48.9762 250.732 49.2294C250.836 49.4816 250.802 49.7513 250.629 50.0387C250.457 50.325 250.119 50.6134 249.616 50.9041C249.126 51.1871 248.633 51.3803 248.137 51.4838C247.645 51.5873 247.177 51.611 246.732 51.5548C246.292 51.4987 245.905 51.3743 245.571 51.1816C245.335 51.045 245.172 50.9063 245.085 50.7654C244.999 50.6255 244.963 50.4912 244.976 50.3624C244.991 50.2325 245.032 50.1163 245.099 50.0139L245.062 49.9924L242.71 51.35L241.492 50.6465ZM246.529 49.1155C246.268 49.2663 246.076 49.4188 245.954 49.5729C245.832 49.7271 245.786 49.8752 245.814 50.0172C245.845 50.1581 245.958 50.2853 246.155 50.3987C246.353 50.5132 246.575 50.5787 246.821 50.5953C247.069 50.6107 247.326 50.5826 247.591 50.511C247.859 50.4395 248.122 50.3299 248.377 50.1824C248.631 50.0359 248.819 49.8867 248.941 49.7348C249.063 49.5829 249.11 49.4359 249.081 49.2938C249.052 49.1518 248.938 49.023 248.738 48.9074C248.539 48.7928 248.319 48.7262 248.077 48.7075C247.837 48.6899 247.584 48.7158 247.319 48.7851C247.054 48.8545 246.791 48.9646 246.529 49.1155Z" fill="black"/>
      <path d="M241.492 50.6465L247.533 47.1583L248.735 47.852L247.997 48.2781L248.051 48.3095C248.223 48.2721 248.42 48.2473 248.643 48.2352C248.87 48.2231 249.107 48.2407 249.353 48.288C249.603 48.3354 249.85 48.4301 250.096 48.5721C250.417 48.7571 250.629 48.9762 250.732 49.2294C250.836 49.4816 250.802 49.7513 250.629 50.0387C250.457 50.325 250.119 50.6134 249.616 50.9041C249.126 51.1871 248.633 51.3803 248.137 51.4838C247.645 51.5873 247.177 51.611 246.732 51.5548C246.292 51.4987 245.905 51.3743 245.571 51.1816C245.335 51.045 245.172 50.9063 245.085 50.7654C244.999 50.6255 244.963 50.4912 244.976 50.3624C244.991 50.2325 245.032 50.1163 245.099 50.0139L245.062 49.9924L242.71 51.35L241.492 50.6465ZM246.529 49.1155C246.268 49.2663 246.076 49.4188 245.954 49.5729C245.832 49.7271 245.786 49.8752 245.814 50.0172C245.845 50.1581 245.958 50.2853 246.155 50.3987C246.353 50.5132 246.575 50.5787 246.821 50.5953C247.069 50.6107 247.326 50.5826 247.591 50.511C247.859 50.4395 248.122 50.3299 248.377 50.1824C248.631 50.0359 248.819 49.8867 248.941 49.7348C249.063 49.5829 249.11 49.4359 249.081 49.2938C249.052 49.1518 248.938 49.023 248.738 48.9074C248.539 48.7928 248.319 48.7262 248.077 48.7075C247.837 48.6899 247.584 48.7158 247.319 48.7851C247.054 48.8545 246.791 48.9646 246.529 49.1155Z" fill="url(#paint4_linear_1439_34584)"/>
      <path d="M250.124 53.7279L255.983 50.3455L258.329 51.6997C258.76 51.9486 259.055 52.193 259.215 52.433C259.376 52.6731 259.415 52.9004 259.333 53.1151C259.253 53.3287 259.066 53.5203 258.772 53.6899C258.543 53.822 258.296 53.9117 258.031 53.9591C257.768 54.0053 257.501 54.0141 257.23 53.9855C256.963 53.9569 256.705 53.8969 256.455 53.8055L256.398 53.8385C256.611 53.9729 256.757 54.1298 256.835 54.3092C256.915 54.4898 256.912 54.6759 256.824 54.8675C256.738 55.0579 256.551 55.2363 256.263 55.4026C255.952 55.582 255.598 55.6976 255.199 55.7494C254.804 55.8011 254.387 55.7813 253.946 55.6899C253.506 55.5986 253.066 55.4262 252.627 55.173L250.124 53.7279ZM252.376 53.8583L253.385 54.4414C253.731 54.6406 254.048 54.748 254.338 54.7634C254.63 54.7777 254.886 54.721 255.108 54.5933C255.27 54.4997 255.374 54.3946 255.419 54.2778C255.465 54.1611 255.451 54.0406 255.376 53.9162C255.304 53.7928 255.169 53.6739 254.97 53.5594L253.932 52.9599L252.376 53.8583ZM254.77 52.476L255.688 53.0061C255.858 53.1041 256.038 53.174 256.229 53.2159C256.423 53.2577 256.614 53.2687 256.801 53.2489C256.99 53.2302 257.161 53.1763 257.316 53.0871C257.528 52.9648 257.623 52.8228 257.602 52.661C257.583 52.5002 257.436 52.3406 257.161 52.182L256.22 51.6386L254.77 52.476Z" fill="black"/>
      <path d="M250.124 53.7279L255.983 50.3455L258.329 51.6997C258.76 51.9486 259.055 52.193 259.215 52.433C259.376 52.6731 259.415 52.9004 259.333 53.1151C259.253 53.3287 259.066 53.5203 258.772 53.6899C258.543 53.822 258.296 53.9117 258.031 53.9591C257.768 54.0053 257.501 54.0141 257.23 53.9855C256.963 53.9569 256.705 53.8969 256.455 53.8055L256.398 53.8385C256.611 53.9729 256.757 54.1298 256.835 54.3092C256.915 54.4898 256.912 54.6759 256.824 54.8675C256.738 55.0579 256.551 55.2363 256.263 55.4026C255.952 55.582 255.598 55.6976 255.199 55.7494C254.804 55.8011 254.387 55.7813 253.946 55.6899C253.506 55.5986 253.066 55.4262 252.627 55.173L250.124 53.7279ZM252.376 53.8583L253.385 54.4414C253.731 54.6406 254.048 54.748 254.338 54.7634C254.63 54.7777 254.886 54.721 255.108 54.5933C255.27 54.4997 255.374 54.3946 255.419 54.2778C255.465 54.1611 255.451 54.0406 255.376 53.9162C255.304 53.7928 255.169 53.6739 254.97 53.5594L253.932 52.9599L252.376 53.8583ZM254.77 52.476L255.688 53.0061C255.858 53.1041 256.038 53.174 256.229 53.2159C256.423 53.2577 256.614 53.2687 256.801 53.2489C256.99 53.2302 257.161 53.1763 257.316 53.0871C257.528 52.9648 257.623 52.8228 257.602 52.661C257.583 52.5002 257.436 52.3406 257.161 52.182L256.22 51.6386L254.77 52.476Z" fill="url(#paint5_linear_1439_34584)"/>
      <path d="M255.427 56.7895L259.821 54.2527L261.003 54.9348L260.236 55.3774L260.282 55.4038C260.634 55.2926 260.975 55.2513 261.303 55.2799C261.633 55.3075 261.921 55.3922 262.167 55.5343C262.228 55.5695 262.29 55.6097 262.353 55.6548C262.416 55.7 262.467 55.7418 262.507 55.7804L261.426 56.4047C261.386 56.3617 261.322 56.3072 261.234 56.2411C261.146 56.1751 261.061 56.1178 260.977 56.0694C260.798 55.9659 260.598 55.896 260.379 55.8596C260.163 55.8233 259.946 55.8211 259.727 55.853C259.509 55.8861 259.311 55.9543 259.132 56.0578L256.646 57.493L255.427 56.7895Z" fill="black"/>
      <path d="M255.427 56.7895L259.821 54.2527L261.003 54.9348L260.236 55.3774L260.282 55.4038C260.634 55.2926 260.975 55.2513 261.303 55.2799C261.633 55.3075 261.921 55.3922 262.167 55.5343C262.228 55.5695 262.29 55.6097 262.353 55.6548C262.416 55.7 262.467 55.7418 262.507 55.7804L261.426 56.4047C261.386 56.3617 261.322 56.3072 261.234 56.2411C261.146 56.1751 261.061 56.1178 260.977 56.0694C260.798 55.9659 260.598 55.896 260.379 55.8596C260.163 55.8233 259.946 55.8211 259.727 55.853C259.509 55.8861 259.311 55.9543 259.132 56.0578L256.646 57.493L255.427 56.7895Z" fill="url(#paint6_linear_1439_34584)"/>
      <path d="M260.418 59.7701C259.974 59.5136 259.684 59.2372 259.549 58.9411C259.417 58.6449 259.433 58.3481 259.597 58.0509C259.763 57.7525 260.071 57.4734 260.521 57.2135C260.975 56.9515 261.459 56.7731 261.974 56.6784C262.491 56.5826 263.005 56.5733 263.516 56.6503C264.031 56.7274 264.511 56.8942 264.955 57.1508C265.399 57.4073 265.687 57.6837 265.819 57.9798C265.954 58.276 265.939 58.5733 265.773 58.8717C265.609 59.169 265.3 59.4486 264.846 59.7107C264.396 59.9705 263.913 60.1483 263.396 60.2441C262.881 60.3388 262.366 60.3476 261.851 60.2706C261.34 60.1935 260.863 60.0267 260.418 59.7701ZM261.368 59.2284C261.57 59.3451 261.796 59.4095 262.046 59.4217C262.298 59.4327 262.558 59.4002 262.827 59.3242C263.098 59.2493 263.361 59.1381 263.616 58.9906C263.872 58.8431 264.065 58.6911 264.194 58.5348C264.326 58.3795 264.382 58.2292 264.363 58.0839C264.344 57.9385 264.233 57.8075 264.031 57.6908C263.827 57.573 263.597 57.5075 263.342 57.4943C263.088 57.4822 262.826 57.5135 262.555 57.5884C262.286 57.6644 262.024 57.7761 261.768 57.9237C261.513 58.0712 261.319 58.2226 261.188 58.3779C261.058 58.5342 261.004 58.6856 261.025 58.832C261.049 58.9785 261.164 59.1106 261.368 59.2284Z" fill="black"/>
      <path d="M260.418 59.7701C259.974 59.5136 259.684 59.2372 259.549 58.9411C259.417 58.6449 259.433 58.3481 259.597 58.0509C259.763 57.7525 260.071 57.4734 260.521 57.2135C260.975 56.9515 261.459 56.7731 261.974 56.6784C262.491 56.5826 263.005 56.5733 263.516 56.6503C264.031 56.7274 264.511 56.8942 264.955 57.1508C265.399 57.4073 265.687 57.6837 265.819 57.9798C265.954 58.276 265.939 58.5733 265.773 58.8717C265.609 59.169 265.3 59.4486 264.846 59.7107C264.396 59.9705 263.913 60.1483 263.396 60.2441C262.881 60.3388 262.366 60.3476 261.851 60.2706C261.34 60.1935 260.863 60.0267 260.418 59.7701ZM261.368 59.2284C261.57 59.3451 261.796 59.4095 262.046 59.4217C262.298 59.4327 262.558 59.4002 262.827 59.3242C263.098 59.2493 263.361 59.1381 263.616 58.9906C263.872 58.8431 264.065 58.6911 264.194 58.5348C264.326 58.3795 264.382 58.2292 264.363 58.0839C264.344 57.9385 264.233 57.8075 264.031 57.6908C263.827 57.573 263.597 57.5075 263.342 57.4943C263.088 57.4822 262.826 57.5135 262.555 57.5884C262.286 57.6644 262.024 57.7761 261.768 57.9237C261.513 58.0712 261.319 58.2226 261.188 58.3779C261.058 58.5342 261.004 58.6856 261.025 58.832C261.049 58.9785 261.164 59.1106 261.368 59.2284Z" fill="url(#paint7_linear_1439_34584)"/>
      <path d="M264.216 61.8635L267.414 58.6363L268.647 59.3482L266.375 61.4457L266.415 61.4688L270.077 60.1739L271.287 60.8726L269.073 62.9833L269.11 63.0047L272.715 61.6967L273.945 62.4069L268.358 64.255L267.068 63.5101L269.076 61.4787L269.021 61.4473L265.503 62.6067L264.216 61.8635Z" fill="black"/>
      <path d="M264.216 61.8635L267.414 58.6363L268.647 59.3482L266.375 61.4457L266.415 61.4688L270.077 60.1739L271.287 60.8726L269.073 62.9833L269.11 63.0047L272.715 61.6967L273.945 62.4069L268.358 64.255L267.068 63.5101L269.076 61.4787L269.021 61.4473L265.503 62.6067L264.216 61.8635Z" fill="url(#paint8_linear_1439_34584)"/>
      <path d="M276.998 65.6163L275.813 65.0118C275.89 64.9457 275.934 64.8725 275.948 64.7921C275.963 64.7107 275.942 64.627 275.885 64.5411C275.831 64.4552 275.734 64.3715 275.593 64.2901C275.404 64.1811 275.205 64.1123 274.995 64.0836C274.787 64.0539 274.618 64.077 274.486 64.153C274.381 64.2135 274.334 64.289 274.346 64.3793C274.357 64.4695 274.443 64.5862 274.603 64.7294L275.238 65.281C275.578 65.5783 275.755 65.8436 275.77 66.0771C275.786 66.3105 275.635 66.5186 275.318 66.7014C275.03 66.8676 274.693 66.9645 274.306 66.992C273.921 67.0207 273.52 66.9854 273.104 66.8863C272.692 66.7872 272.296 66.6276 271.914 66.4074C271.333 66.0716 270.99 65.7341 270.887 65.395C270.788 65.0558 270.919 64.7481 271.279 64.4717L272.541 65.1274C272.4 65.2507 272.352 65.3796 272.398 65.5139C272.445 65.6471 272.578 65.7765 272.795 65.902C273.009 66.0253 273.222 66.1007 273.433 66.1283C273.649 66.1558 273.823 66.1321 273.957 66.0572C274.065 65.9923 274.109 65.913 274.088 65.8194C274.069 65.7247 273.983 65.6113 273.831 65.4792L273.222 64.9523C272.878 64.6551 272.708 64.3848 272.71 64.1414C272.713 63.8992 272.879 63.6834 273.207 63.494C273.49 63.3311 273.809 63.2347 274.166 63.205C274.524 63.1764 274.898 63.2105 275.287 63.3074C275.678 63.4054 276.061 63.5628 276.437 63.7797C276.992 64.1001 277.311 64.42 277.395 64.7393C277.481 65.0597 277.348 65.352 276.998 65.6163Z" fill="black"/>
      <path d="M276.998 65.6163L275.813 65.0118C275.89 64.9457 275.934 64.8725 275.948 64.7921C275.963 64.7107 275.942 64.627 275.885 64.5411C275.831 64.4552 275.734 64.3715 275.593 64.2901C275.404 64.1811 275.205 64.1123 274.995 64.0836C274.787 64.0539 274.618 64.077 274.486 64.153C274.381 64.2135 274.334 64.289 274.346 64.3793C274.357 64.4695 274.443 64.5862 274.603 64.7294L275.238 65.281C275.578 65.5783 275.755 65.8436 275.77 66.0771C275.786 66.3105 275.635 66.5186 275.318 66.7014C275.03 66.8676 274.693 66.9645 274.306 66.992C273.921 67.0207 273.52 66.9854 273.104 66.8863C272.692 66.7872 272.296 66.6276 271.914 66.4074C271.333 66.0716 270.99 65.7341 270.887 65.395C270.788 65.0558 270.919 64.7481 271.279 64.4717L272.541 65.1274C272.4 65.2507 272.352 65.3796 272.398 65.5139C272.445 65.6471 272.578 65.7765 272.795 65.902C273.009 66.0253 273.222 66.1007 273.433 66.1283C273.649 66.1558 273.823 66.1321 273.957 66.0572C274.065 65.9923 274.109 65.913 274.088 65.8194C274.069 65.7247 273.983 65.6113 273.831 65.4792L273.222 64.9523C272.878 64.6551 272.708 64.3848 272.71 64.1414C272.713 63.8992 272.879 63.6834 273.207 63.494C273.49 63.3311 273.809 63.2347 274.166 63.205C274.524 63.1764 274.898 63.2105 275.287 63.3074C275.678 63.4054 276.061 63.5628 276.437 63.7797C276.992 64.1001 277.311 64.42 277.395 64.7393C277.481 65.0597 277.348 65.352 276.998 65.6163Z" fill="url(#paint9_linear_1439_34584)"/>
      <path d="M276.641 69.1362C276.189 68.8752 275.891 68.5978 275.748 68.3038C275.609 68.0098 275.62 67.7147 275.783 67.4186C275.947 67.1213 276.26 66.8389 276.724 66.5713C277.176 66.3103 277.66 66.132 278.177 66.0362C278.694 65.9404 279.207 65.9294 279.716 66.0032C280.227 66.078 280.698 66.2399 281.129 66.4887C281.419 66.6561 281.642 66.8389 281.798 67.037C281.959 67.2352 282.04 67.4417 282.042 67.6564C282.045 67.8722 281.96 68.0913 281.784 68.3137C281.611 68.535 281.337 68.7536 280.963 68.9694L280.628 69.1626L276.918 67.0205L277.673 66.5845L280.236 68.0643C280.412 67.963 280.529 67.8513 280.588 67.729C280.647 67.6068 280.647 67.4846 280.588 67.3624C280.533 67.2402 280.417 67.1279 280.239 67.0255C280.054 66.9187 279.847 66.8488 279.619 66.8157C279.394 66.7827 279.169 66.7844 278.946 66.8207C278.725 66.8559 278.527 66.9231 278.351 67.0222L277.633 67.4367C277.416 67.5622 277.268 67.6938 277.19 67.8314C277.114 67.9702 277.107 68.1073 277.17 68.2427C277.233 68.3781 277.366 68.5047 277.57 68.6225C277.706 68.7007 277.849 68.7613 277.999 68.8042C278.15 68.8472 278.304 68.8697 278.46 68.8719C278.616 68.8741 278.771 68.8554 278.923 68.8158L279.976 69.5094C279.648 69.6328 279.294 69.7016 278.915 69.7159C278.539 69.7302 278.156 69.6895 277.765 69.5937C277.378 69.4979 277.003 69.3454 276.641 69.1362Z" fill="black"/>
      <path d="M276.641 69.1362C276.189 68.8752 275.891 68.5978 275.748 68.3038C275.609 68.0098 275.62 67.7147 275.783 67.4186C275.947 67.1213 276.26 66.8389 276.724 66.5713C277.176 66.3103 277.66 66.132 278.177 66.0362C278.694 65.9404 279.207 65.9294 279.716 66.0032C280.227 66.078 280.698 66.2399 281.129 66.4887C281.419 66.6561 281.642 66.8389 281.798 67.037C281.959 67.2352 282.04 67.4417 282.042 67.6564C282.045 67.8722 281.96 68.0913 281.784 68.3137C281.611 68.535 281.337 68.7536 280.963 68.9694L280.628 69.1626L276.918 67.0205L277.673 66.5845L280.236 68.0643C280.412 67.963 280.529 67.8513 280.588 67.729C280.647 67.6068 280.647 67.4846 280.588 67.3624C280.533 67.2402 280.417 67.1279 280.239 67.0255C280.054 66.9187 279.847 66.8488 279.619 66.8157C279.394 66.7827 279.169 66.7844 278.946 66.8207C278.725 66.8559 278.527 66.9231 278.351 67.0222L277.633 67.4367C277.416 67.5622 277.268 67.6938 277.19 67.8314C277.114 67.9702 277.107 68.1073 277.17 68.2427C277.233 68.3781 277.366 68.5047 277.57 68.6225C277.706 68.7007 277.849 68.7613 277.999 68.8042C278.15 68.8472 278.304 68.8697 278.46 68.8719C278.616 68.8741 278.771 68.8554 278.923 68.8158L279.976 69.5094C279.648 69.6328 279.294 69.7016 278.915 69.7159C278.539 69.7302 278.156 69.6895 277.765 69.5937C277.378 69.4979 277.003 69.3454 276.641 69.1362Z" fill="url(#paint10_linear_1439_34584)"/>
      <path d="M279.538 70.7101L283.932 68.1733L285.114 68.8554L284.347 69.298L284.393 69.3245C284.746 69.2133 285.086 69.172 285.414 69.2006C285.744 69.2281 286.032 69.3129 286.278 69.4549C286.339 69.4902 286.401 69.5304 286.464 69.5755C286.527 69.6206 286.578 69.6625 286.618 69.701L285.537 70.3253C285.497 70.2824 285.433 70.2279 285.346 70.1618C285.258 70.0957 285.172 70.0385 285.088 69.99C284.909 69.8865 284.71 69.8166 284.49 69.7803C284.275 69.744 284.057 69.7418 283.838 69.7737C283.621 69.8067 283.422 69.875 283.243 69.9785L280.757 71.4137L279.538 70.7101Z" fill="black"/>
      <path d="M279.538 70.7101L283.932 68.1733L285.114 68.8554L284.347 69.298L284.393 69.3245C284.746 69.2133 285.086 69.172 285.414 69.2006C285.744 69.2281 286.032 69.3129 286.278 69.4549C286.339 69.4902 286.401 69.5304 286.464 69.5755C286.527 69.6206 286.578 69.6625 286.618 69.701L285.537 70.3253C285.497 70.2824 285.433 70.2279 285.346 70.1618C285.258 70.0957 285.172 70.0385 285.088 69.99C284.909 69.8865 284.71 69.8166 284.49 69.7803C284.275 69.744 284.057 69.7418 283.838 69.7737C283.621 69.8067 283.422 69.875 283.243 69.9785L280.757 71.4137L279.538 70.7101Z" fill="url(#paint11_linear_1439_34584)"/>
      <path d="M181.01 63.4046C180.636 63.1742 180.382 62.8323 180.249 62.4515L180.139 60.0355L188.041 59.6113L229.579 60.0779L229.579 61.8042C229.579 62.4154 229.295 63.0252 228.727 63.3739L221.162 68.0216L214.985 71.817L208.072 76.0642C206.074 77.2921 203.612 77.2921 201.614 76.0642L195.694 72.4268L187.58 67.435V67.4415L187.575 67.4379L181.559 63.7415L181.01 63.4046Z" fill="#1A1A1A"/>
      <path d="M217.678 87.5081C217.304 87.2777 217.05 86.9358 216.917 86.555L216.807 79.7679L224.709 79.3438L266.247 79.8103L266.247 85.9077C266.247 86.5189 265.963 87.1287 265.395 87.4774L257.83 92.1252L251.653 95.9205L244.74 100.168C242.742 101.396 240.28 101.396 238.282 100.168L232.362 96.5303L224.248 91.5386V91.545L224.243 91.5414L218.227 87.845L217.678 87.5081Z" fill="#141414"/>
      <path d="M217.678 87.5081C217.304 87.2777 217.05 86.9358 216.917 86.555L216.807 79.7679L224.709 79.3438L266.247 79.8103L266.247 85.9077C266.247 86.5189 265.963 87.1287 265.395 87.4774L257.83 92.1252L251.653 95.9205L244.74 100.168C242.742 101.396 240.28 101.396 238.282 100.168L232.362 96.5303L224.248 91.5386V91.545L224.243 91.5414L218.227 87.845L217.678 87.5081Z" fill="url(#paint12_linear_1439_34584)" fill-opacity="0.14"/>
      <path d="M208.073 45.3048L228.832 57.9953C229.403 58.3438 229.688 58.9542 229.688 59.5647C229.688 60.1755 229.403 60.7849 228.833 61.1334L221.235 65.7779L215.031 69.5707L208.088 73.815C206.081 75.042 203.609 75.042 201.602 73.815L195.656 70.1801L187.507 65.1917V65.1981L187.502 65.1946L181.459 61.5007L180.908 61.1641C180.533 60.9338 180.277 60.5921 180.144 60.2116C180.07 60.0024 180.033 59.781 180.033 59.5597C180.033 58.9353 180.324 58.3106 180.908 57.9536L201.586 45.3058C203.593 44.0781 206.066 44.0777 208.073 45.3048Z" fill="#222222"/>
      <path d="M54.1196 73.3961C53.7453 73.1657 53.4911 72.8238 53.3582 72.443L53.248 35.7328L61.15 35.3086L102.688 35.7752L102.688 71.7957C102.688 72.4069 102.405 73.0167 101.837 73.3654L94.2718 78.0131L88.0944 81.8085L81.1816 86.0557C79.1834 87.2836 76.7217 87.2836 74.7239 86.0557L68.8034 82.4183L60.6894 77.4265V77.433L60.6843 77.4294L54.6681 73.733L54.1196 73.3961Z" fill="#1A1A1A"/>
      <path d="M81.1824 21.5079L101.942 34.1985C102.512 34.5469 102.797 35.1574 102.797 35.7678C102.797 36.3787 102.512 36.988 101.942 37.3365L94.3443 41.981L88.1401 45.7738L81.1973 50.0181C79.1905 51.2451 76.7181 51.2451 74.7116 50.0181L68.7654 46.3832L60.6161 41.3948V41.4013L60.6111 41.3977L54.5688 37.7038L54.0179 37.3672C53.6419 37.1369 53.3867 36.7953 53.2532 36.4147C53.1797 36.2055 53.1426 35.9842 53.1426 35.7628C53.1419 35.1384 53.4336 34.5137 54.0172 34.1567L74.6951 21.5089C76.7022 20.2812 79.175 20.2809 81.1824 21.5079Z" fill="#222222"/>
      <path d="M244.739 65.3126L265.498 78.0031C266.069 78.3516 266.354 78.962 266.354 79.5725C266.354 80.1833 266.069 80.7927 265.499 81.1412L257.901 85.7857L251.697 89.5785L244.754 93.8228C242.747 95.0498 240.275 95.0498 238.268 93.8228L232.322 90.1879L224.173 85.1995V85.206L224.168 85.2024L218.125 81.5085L217.574 81.1719C217.199 80.9416 216.943 80.6 216.81 80.2194C216.736 80.0102 216.699 79.7889 216.699 79.5675C216.699 78.9431 216.99 78.3184 217.574 77.9614L238.252 65.3136C240.259 64.0859 242.732 64.0856 244.739 65.3126Z" fill="#FDFDFD"/>
      <path d="M244.739 65.3126L265.498 78.0031C266.069 78.3516 266.354 78.962 266.354 79.5725C266.354 80.1833 266.069 80.7927 265.499 81.1412L257.901 85.7857L251.697 89.5785L244.754 93.8228C242.747 95.0498 240.275 95.0498 238.268 93.8228L232.322 90.1879L224.173 85.1995V85.206L224.168 85.2024L218.125 81.5085L217.574 81.1719C217.199 80.9416 216.943 80.6 216.81 80.2194C216.736 80.0102 216.699 79.7889 216.699 79.5675C216.699 78.9431 216.99 78.3184 217.574 77.9614L238.252 65.3136C240.259 64.0859 242.732 64.0856 244.739 65.3126Z" fill="url(#paint13_linear_1439_34584)"/>
      <path d="M181.12 108.192C180.745 107.961 180.491 107.619 180.358 107.239L180.248 104.823L188.15 104.398L229.688 104.865L229.688 106.591C229.688 107.203 229.405 107.812 228.837 108.161L221.272 112.809L215.094 116.604L208.182 120.851C206.183 122.079 203.722 122.079 201.724 120.851L195.803 117.214L187.689 112.222V112.229L187.684 112.225L181.668 108.529L181.12 108.192Z" fill="#1A1A1A"/>
      <path d="M208.182 90.0919L228.942 102.782C229.512 103.131 229.797 103.741 229.797 104.352C229.797 104.963 229.512 105.572 228.942 105.92L221.344 110.565L215.14 114.358L208.197 118.602C206.19 119.829 203.718 119.829 201.712 118.602L195.765 114.967L187.616 109.979V109.985L187.611 109.982L181.569 106.288L181.018 105.951C180.642 105.721 180.387 105.379 180.253 104.999C180.18 104.789 180.143 104.568 180.143 104.347C180.142 103.722 180.434 103.098 181.017 102.741L201.695 90.0929C203.702 88.8652 206.175 88.8649 208.182 90.0919Z" fill="#222222"/>
      <path d="M103.495 109.602C103.12 109.371 102.866 109.03 102.733 108.649L102.623 106.233L110.525 105.809L152.063 106.275L152.063 108.001C152.063 108.613 151.78 109.222 151.212 109.571L143.647 114.219L137.469 118.014L130.557 122.261C128.558 123.489 126.097 123.489 124.099 122.261L118.178 118.624L110.064 113.632V113.639L110.059 113.635L104.043 109.939L103.495 109.602Z" fill="#1A1A1A"/>
      <path d="M130.557 91.502L151.317 104.193C151.887 104.541 152.172 105.152 152.172 105.762C152.172 106.373 151.887 106.982 151.317 107.331L143.719 111.975L137.515 115.768L130.572 120.012C128.565 121.239 126.093 121.239 124.087 120.012L118.14 116.377L109.991 111.389V111.395L109.986 111.392L103.944 107.698L103.393 107.361C103.017 107.131 102.762 106.789 102.628 106.409C102.555 106.2 102.518 105.978 102.518 105.757C102.517 105.133 102.809 104.508 103.392 104.151L124.07 91.5031C126.077 90.2754 128.55 90.275 130.557 91.502Z" fill="#222222"/>
      <path d="M142.057 86.3828C141.683 86.1524 141.429 85.8105 141.296 85.4297L141.186 61.6507L149.088 61.2266L190.626 61.6932L190.626 84.7824C190.626 85.3936 190.342 86.0035 189.774 86.3521L182.209 90.9999L176.032 94.7952L169.119 99.0425C167.121 100.27 164.659 100.27 162.661 99.0425L156.741 95.405L148.627 90.4133V90.4197L148.622 90.4161L142.606 86.7197L142.057 86.3828Z" fill="#141414"/>
      <path d="M142.057 86.3828C141.683 86.1524 141.429 85.8105 141.296 85.4297L141.186 61.6507L149.088 61.2266L190.626 61.6932L190.626 84.7824C190.626 85.3936 190.342 86.0035 189.774 86.3521L182.209 90.9999L176.032 94.7952L169.119 99.0425C167.121 100.27 164.659 100.27 162.661 99.0425L156.741 95.405L148.627 90.4133V90.4197L148.622 90.4161L142.606 86.7197L142.057 86.3828Z" fill="url(#paint14_linear_1439_34584)" fill-opacity="0.14"/>
      <path d="M169.116 47.5508L189.875 60.2414C190.446 60.5899 190.731 61.2003 190.731 61.8108C190.731 62.4216 190.446 63.031 189.875 63.3794L182.278 68.024L176.074 71.8168L169.131 76.0611C167.124 77.2881 164.652 77.2881 162.645 76.0611L156.699 72.4261L148.55 67.4378V67.4442L148.545 67.4407L142.502 63.7468L141.951 63.4102C141.576 63.1799 141.32 62.8382 141.187 62.4577C141.113 62.2485 141.076 62.0271 141.076 61.8058C141.075 61.1814 141.367 60.5567 141.951 60.1997L162.629 47.5519C164.636 46.3242 167.109 46.3238 169.116 47.5508Z" fill="#FDFDFD"/>
      <path d="M169.116 47.5508L189.875 60.2414C190.446 60.5899 190.731 61.2003 190.731 61.8108C190.731 62.4216 190.446 63.031 189.875 63.3794L182.278 68.024L176.074 71.8168L169.131 76.0611C167.124 77.2881 164.652 77.2881 162.645 76.0611L156.699 72.4261L148.55 67.4378V67.4442L148.545 67.4407L142.502 63.7468L141.951 63.4102C141.576 63.1799 141.32 62.8382 141.187 62.4577C141.113 62.2485 141.076 62.0271 141.076 61.8058C141.075 61.1814 141.367 60.5567 141.951 60.1997L162.629 47.5519C164.636 46.3242 167.109 46.3238 169.116 47.5508Z" fill="url(#paint15_linear_1439_34584)"/>
      <path d="M169.116 47.5508L189.875 60.2414C190.446 60.5899 190.731 61.2003 190.731 61.8108C190.731 62.4216 190.446 63.031 189.875 63.3794L182.278 68.024L176.074 71.8168L169.131 76.0611C167.124 77.2881 164.652 77.2881 162.645 76.0611L156.699 72.4261L148.55 67.4378V67.4442L148.545 67.4407L142.502 63.7468L141.951 63.4102C141.576 63.1799 141.32 62.8382 141.187 62.4577C141.113 62.2485 141.076 62.0271 141.076 61.8058C141.075 61.1814 141.367 60.5567 141.951 60.1997L162.629 47.5519C164.636 46.3242 167.109 46.3238 169.116 47.5508Z" fill="url(#paint16_linear_1439_34584)"/>
      <path d="M168.448 55.0747C163.985 55.2618 160.433 56.5592 158.286 57.5525C157.376 57.9737 157.695 58.7893 158.801 59.0032L159.422 59.1234C160.173 59.2687 161.016 59.0704 161.394 58.6682C161.618 58.43 161.908 58.1234 162.281 57.7346C163.166 56.8095 165.942 57.1044 167.922 57.5102C168.621 57.6534 169.449 57.5446 169.755 57.1545C170.512 56.1904 169.9 55.5306 169.245 55.2055C169.028 55.0974 168.734 55.0627 168.448 55.0747Z" fill="white"/>
      <path d="M175.212 58.8056C170.881 58.61 167.307 59.0334 165.139 59.4561C164.23 59.6332 163.979 60.2599 164.562 60.6998L164.719 60.8186C165.318 61.2712 166.519 61.3077 167.212 60.9019C167.474 60.748 167.783 60.5683 168.142 60.3595C169.434 59.6102 171.962 60.3333 173.674 61.0371C174.278 61.2856 175.126 61.3121 175.606 60.9855C176.739 60.2141 176.538 59.512 176.104 59.0878C175.92 58.9092 175.571 58.8218 175.212 58.8056Z" fill="white"/>
      <path fill-rule="evenodd" clip-rule="evenodd" d="M157.708 65.8599C161.579 68.0943 167.419 68.3454 170.752 66.4206C174.086 64.4958 173.651 61.1241 169.781 58.8896C165.911 56.6552 160.071 56.4041 156.737 58.3289C153.403 60.2537 153.838 63.6254 157.708 65.8599ZM168.266 63.6577C168.289 63.5762 168.193 63.4993 168.052 63.4859C167.911 63.4726 167.778 63.5278 167.755 63.6092C167.682 63.8642 167.756 64.2453 168.197 64.5811C168.643 64.921 169.44 65.1946 170.75 65.259C170.892 65.2661 171.018 65.2051 171.03 65.1228C171.042 65.0405 170.936 64.9682 170.794 64.9612C169.594 64.9021 168.947 64.6578 168.609 64.4004C168.266 64.1389 168.213 63.8435 168.266 63.6577ZM161.931 59.9411C162.07 59.9622 162.152 60.044 162.116 60.1238C162.008 60.3588 162.014 60.7392 162.396 61.0966C162.774 61.4495 163.543 61.8011 165.032 61.9578C165.173 61.9726 165.266 62.0504 165.24 62.1316C165.215 62.2128 165.08 62.2667 164.939 62.2519C163.342 62.0839 162.428 61.6948 161.956 61.2538C161.488 60.8172 161.477 60.3503 161.615 60.0476C161.652 59.9677 161.793 59.9201 161.931 59.9411ZM166.693 64.2095C166.601 64.3245 165.688 64.5872 164.989 64.372L164.103 64.8835C164.112 65.0108 164.293 65.1733 164.637 65.2839C164.988 65.3967 165.452 65.4334 165.898 65.3143C166.028 65.2797 166.182 65.3124 166.242 65.3873C166.302 65.4623 166.245 65.5511 166.115 65.5857C165.498 65.7504 164.86 65.6976 164.385 65.5452C164.004 65.4226 163.685 65.2191 163.604 64.988C162.944 64.8826 162.546 64.6064 162.321 64.3123C162.08 63.9972 162.026 63.649 162.049 63.4218C162.057 63.3393 162.179 63.2764 162.322 63.2811C162.465 63.2858 162.574 63.3565 162.566 63.4389C162.547 63.6311 162.594 63.9298 162.795 64.1916C162.97 64.4213 163.253 64.6124 163.701 64.6928L164.599 64.174C164.145 63.7928 164.526 63.1529 165.064 63.269C165.787 63.4249 166.798 64.0787 166.693 64.2095Z" fill="white"/>
      <path d="M235.538 76.7941C235.772 76.4287 236.131 76.1041 236.545 75.7997C238.092 74.6636 240.148 74.163 242.603 74.2066C244.355 74.2374 245.886 74.6025 247.137 75.3162C248.391 76.0314 249.64 76.7502 250.876 77.476C252.01 78.142 252.161 79.1658 251.255 79.8858C250.203 80.7219 248.201 80.9081 246.763 80.304C246.534 80.208 246.323 80.1022 246.123 79.9866C244.893 79.2746 243.708 78.5336 242.416 77.8603C240.604 76.9153 238.459 76.5039 235.989 76.7543C235.856 76.768 235.724 76.7901 235.592 76.8076C235.584 76.8092 235.574 76.8036 235.538 76.7941Z" fill="white"/>
      <path d="M244.772 80.1829C243.762 80.0519 242.81 79.9397 241.869 79.8042C240.204 79.5647 238.791 79.8129 237.589 80.5169C236.903 80.9193 236.215 81.3207 235.513 81.7139C234.257 82.4175 232.235 82.4214 231.024 81.7295C229.81 81.0365 229.806 79.849 231.04 79.1247C231.694 78.7403 232.312 78.333 233.101 78.03C235.568 77.0837 239.229 77.1836 241.48 78.2793C242.63 78.8389 243.623 79.4936 244.699 80.0985C244.719 80.1098 244.725 80.1283 244.772 80.1829Z" fill="white"/>
      <path d="M330.43 120.842C330.056 120.612 329.802 120.27 329.669 119.889L329.559 100.202L337.461 99.7773L378.999 100.244L378.999 119.242C378.999 119.853 378.715 120.463 378.147 120.811L370.582 125.459L364.405 129.254L357.492 133.502C355.494 134.73 353.032 134.73 351.034 133.502L345.114 129.864L337 124.872V124.879L336.995 124.875L330.979 121.179L330.43 120.842Z" fill="#1A1A1A"/>
      <path d="M357.493 85.8477L378.252 98.5383C378.823 98.8867 379.107 99.4972 379.108 100.108C379.108 100.718 378.823 101.328 378.252 101.676L370.655 106.321L364.451 110.114L357.508 114.358C355.501 115.585 353.029 115.585 351.022 114.358L345.076 110.723L336.927 105.735V105.741L336.922 105.738L330.879 102.044L330.328 101.707C329.952 101.477 329.697 101.135 329.564 100.755C329.49 100.545 329.453 100.324 329.453 100.103C329.452 99.4783 329.744 98.8535 330.328 98.4965L351.006 85.8488C353.013 84.6211 355.486 84.6207 357.493 85.8477Z" fill="#222222"/>
      <path d="M165.512 29.3184C165.503 29.2678 162.488 29.1504 162.454 29.1926V32.6031C162.454 33.368 162.289 34.1239 161.968 34.8186C161.769 35.2518 161.862 35.7636 162.2 36.0993L162.994 36.8855L165.003 34.5555C165.012 34.5386 165.02 34.5217 165.02 34.5048L164.834 32.0228V32.0144L165.512 29.3184Z" fill="#1A1A1A"/>
      <path d="M149.656 19.8557L168.034 9.24384C168.49 8.98213 168.912 8.93992 169.233 9.075L171.513 10.225C171.572 10.2588 171.58 10.3348 171.538 10.377L167.241 14.9189C167.224 14.9357 167.216 14.9611 167.216 14.9864V22.4915C167.216 23.6903 166.371 25.1508 165.333 25.7502L162.589 27.3289C162.522 27.4217 162.463 27.5062 162.395 27.599C162.26 28.3926 161.5 31.7019 158.132 33.9982C157.997 34.0911 157.912 33.956 157.997 33.7956C158.436 32.9514 159.272 31.1279 159.018 29.6927C158.875 29.6336 158.858 29.6251 158.714 29.566L153.05 32.8416C153.033 32.8501 153.016 32.8669 153.007 32.8923L150.644 39.207C150.618 39.2661 150.551 39.2914 150.5 39.2577L148.263 38.1245C147.959 37.9219 147.773 37.5252 147.773 36.9764V23.1228C147.773 21.9156 148.617 20.4551 149.656 19.8557Z" fill="#1A1A1A"/>
      <path d="M151.944 21.074L170.373 10.4369C171.386 9.85438 172.205 10.3271 172.205 11.4922V25.4049C172.205 26.5699 171.386 27.9966 170.373 28.5791L167.537 30.2169C167.469 30.2591 167.41 30.352 167.393 30.4364C167.266 31.1793 166.532 34.5393 163.13 36.8694C162.995 36.9622 162.91 36.8272 162.995 36.6668C163.451 35.7972 164.329 33.8724 163.982 32.4119C163.965 32.3444 163.898 32.319 163.83 32.3612L151.944 39.2247C150.931 39.8072 150.112 39.3345 150.112 38.1695V24.2567C150.112 23.0833 150.931 21.665 151.944 21.074Z" fill="#262626"/>
      <path d="M161.936 29.0167L162.121 28.9921C162.244 28.9613 162.361 28.869 162.434 28.7397L165.445 23.2244C165.549 23.0336 165.531 22.8181 165.395 22.6889C165.272 22.5719 165.094 22.5534 164.94 22.6458L163.98 23.1998V19.6357C163.98 19.488 163.912 19.3649 163.795 19.2972C163.678 19.2295 163.536 19.2356 163.407 19.3095L160.44 21.0207C160.286 21.113 160.175 21.2977 160.175 21.4824V25.3973L158.914 26.1298C158.76 26.216 158.655 26.3945 158.649 26.573C158.643 26.7146 158.704 26.8377 158.809 26.9115L161.936 29.0167Z" fill="#141414"/>
      <g filter="url(#filter2_b_1439_34584)">
        <path fill-rule="evenodd" clip-rule="evenodd" d="M52.8241 34.0621C52.8241 34.0621 54.6743 33.8669 55.716 33.9372C56.2741 33.9744 56.6377 34.046 57.4189 34.6717C57.782 34.963 58.0181 35.2176 57.9041 35.442C57.8526 35.5448 57.6599 35.3386 57.6599 35.3386C57.6599 35.3386 58.0753 35.7065 57.9677 35.9945C57.8601 36.2834 57.6371 35.9584 57.6371 35.9584C57.6371 35.9584 58.0916 36.3664 57.9669 36.6467C57.8422 36.9269 57.6075 36.5815 57.6075 36.5815C57.6075 36.5815 57.988 36.9406 57.9242 37.1863C57.8615 37.432 57.7083 37.3823 57.4075 37.1939C57.0541 36.9747 56.2206 36.4834 55.4489 36.4416C54.6286 36.3965 54.0477 36.772 53.507 36.3855C52.9673 35.9999 52.0936 36.0577 52.0936 36.0577L52.8241 34.0621Z" fill="white"/>
        <path fill-rule="evenodd" clip-rule="evenodd" d="M52.8241 34.0621C52.8241 34.0621 54.6743 33.8669 55.716 33.9372C56.2741 33.9744 56.6377 34.046 57.4189 34.6717C57.782 34.963 58.0181 35.2176 57.9041 35.442C57.8526 35.5448 57.6599 35.3386 57.6599 35.3386C57.6599 35.3386 58.0753 35.7065 57.9677 35.9945C57.8601 36.2834 57.6371 35.9584 57.6371 35.9584C57.6371 35.9584 58.0916 36.3664 57.9669 36.6467C57.8422 36.9269 57.6075 36.5815 57.6075 36.5815C57.6075 36.5815 57.988 36.9406 57.9242 37.1863C57.8615 37.432 57.7083 37.3823 57.4075 37.1939C57.0541 36.9747 56.2206 36.4834 55.4489 36.4416C54.6286 36.3965 54.0477 36.772 53.507 36.3855C52.9673 35.9999 52.0936 36.0577 52.0936 36.0577L52.8241 34.0621Z" fill="url(#paint17_linear_1439_34584)" fill-opacity="0.24"/>
        <path fill-rule="evenodd" clip-rule="evenodd" d="M53.4567 36.3431C54.0986 36.8504 54.5813 37.2381 54.9279 37.5915C55.2971 37.9687 55.7125 38.3062 55.9002 38.1071C56.2673 37.7199 54.6679 36.1762 54.6679 36.1762L53.4567 36.3431Z" fill="white"/>
        <path fill-rule="evenodd" clip-rule="evenodd" d="M53.4567 36.3431C54.0986 36.8504 54.5813 37.2381 54.9279 37.5915C55.2971 37.9687 55.7125 38.3062 55.9002 38.1071C56.2673 37.7199 54.6679 36.1762 54.6679 36.1762L53.4567 36.3431Z" fill="url(#paint18_linear_1439_34584)" fill-opacity="0.24"/>
      </g>
      <path fill-rule="evenodd" clip-rule="evenodd" d="M36.107 28.8898C34.7655 29.9147 34.7287 31.7623 35.9052 33.0015C37.0818 34.2417 42.5829 36.9192 44.449 37.0072C45.7213 37.0664 49.6099 36.7476 51.9579 36.5385C53.006 36.4452 53.8786 35.524 53.5525 34.5235C53.4306 34.1511 53.2399 33.9394 53.0837 33.8217C52.9249 33.7019 52.7263 33.6661 52.5304 33.631C51.3785 33.4242 47.1289 32.6717 45.7042 32.5665C44.0498 32.4434 41.9826 30.7148 40.2785 29.7144C38.4089 28.6164 37.4032 27.9006 36.107 28.8898Z" fill="#9FB8ED"/>
      <path fill-rule="evenodd" clip-rule="evenodd" d="M36.107 28.8898C34.7655 29.9147 34.7287 31.7623 35.9052 33.0015C37.0818 34.2417 42.5829 36.9192 44.449 37.0072C45.7213 37.0664 49.6099 36.7476 51.9579 36.5385C53.006 36.4452 53.8786 35.524 53.5525 34.5235C53.4306 34.1511 53.2399 33.9394 53.0837 33.8217C52.9249 33.7019 52.7263 33.6661 52.5304 33.631C51.3785 33.4242 47.1289 32.6717 45.7042 32.5665C44.0498 32.4434 41.9826 30.7148 40.2785 29.7144C38.4089 28.6164 37.4032 27.9006 36.107 28.8898Z" fill="url(#paint19_linear_1439_34584)"/>
      <g filter="url(#filter3_b_1439_34584)">
        <path fill-rule="evenodd" clip-rule="evenodd" d="M55.2698 41.9511C55.2698 41.9511 57.0304 42.5413 58.0655 42.699C58.6198 42.784 58.9925 42.7934 59.9079 42.357C60.3335 42.1536 60.6261 41.9582 60.5692 41.7163C60.5439 41.6056 60.3054 41.7635 60.3054 41.7635C60.3054 41.7635 60.8008 41.4973 60.7656 41.1951C60.7306 40.892 60.4338 41.1583 60.4338 41.1583C60.4338 41.1583 60.9771 40.8618 60.9232 40.5634C60.8694 40.265 60.5562 40.5486 60.5562 40.5486C60.5562 40.5486 61.0153 40.2833 61.0127 40.0315C61.011 39.7801 60.8492 39.7949 60.5095 39.9122C60.1109 40.0478 59.1771 40.3428 58.4128 40.216C57.6003 40.0818 57.1239 39.5923 56.5016 39.8493C55.8805 40.1057 55.0408 39.8603 55.0408 39.8603L55.2698 41.9511Z" fill="white"/>
        <path fill-rule="evenodd" clip-rule="evenodd" d="M55.2698 41.9511C55.2698 41.9511 57.0304 42.5413 58.0655 42.699C58.6198 42.784 58.9925 42.7934 59.9079 42.357C60.3335 42.1536 60.6261 41.9582 60.5692 41.7163C60.5439 41.6056 60.3054 41.7635 60.3054 41.7635C60.3054 41.7635 60.8008 41.4973 60.7656 41.1951C60.7306 40.892 60.4338 41.1583 60.4338 41.1583C60.4338 41.1583 60.9771 40.8618 60.9232 40.5634C60.8694 40.265 60.5562 40.5486 60.5562 40.5486C60.5562 40.5486 61.0153 40.2833 61.0127 40.0315C61.011 39.7801 60.8492 39.7949 60.5095 39.9122C60.1109 40.0478 59.1771 40.3428 58.4128 40.216C57.6003 40.0818 57.1239 39.5923 56.5016 39.8493C55.8805 40.1057 55.0408 39.8603 55.0408 39.8603L55.2698 41.9511Z" fill="url(#paint20_linear_1439_34584)" fill-opacity="0.24"/>
        <path fill-rule="evenodd" clip-rule="evenodd" d="M56.419 39.8706C57.17 39.5181 57.7364 39.2469 58.1612 38.9795C58.6141 38.694 59.1023 38.4569 59.2373 38.6903C59.5018 39.1447 57.5623 40.2943 57.5623 40.2943L56.419 39.8706Z" fill="white"/>
        <path fill-rule="evenodd" clip-rule="evenodd" d="M56.419 39.8706C57.17 39.5181 57.7364 39.2469 58.1612 38.9795C58.6141 38.694 59.1023 38.4569 59.2373 38.6903C59.5018 39.1447 57.5623 40.2943 57.5623 40.2943L56.419 39.8706Z" fill="url(#paint21_linear_1439_34584)" fill-opacity="0.24"/>
      </g>
      <path d="M42.8844 84.6974C42.8147 85.5235 42.0092 86.4286 44.1968 86.613C46.5849 86.8143 51.2857 84.1547 51.1177 83.2199C50.9497 82.285 49.0433 82.2543 46.7697 82.6623C44.4961 83.0703 42.9684 83.7005 42.8844 84.6974Z" fill="#9FB8ED"/>
      <path d="M42.8844 84.6974C42.8147 85.5235 42.0092 86.4286 44.1968 86.613C46.5849 86.8143 51.2857 84.1547 51.1177 83.2199C50.9497 82.285 49.0433 82.2543 46.7697 82.6623C44.4961 83.0703 42.9684 83.7005 42.8844 84.6974Z" fill="url(#paint22_linear_1439_34584)"/>
      <path d="M34.5769 82.913C34.4744 83.7357 33.6334 84.6079 35.8119 84.8795C38.1901 85.1759 42.9933 82.706 42.8627 81.7652C42.7321 80.8244 40.8284 80.7177 38.5404 81.0346C36.2523 81.3516 34.7007 81.9203 34.5769 82.913Z" fill="#9FB8ED"/>
      <path d="M34.5769 82.913C34.4744 83.7357 33.6334 84.6079 35.8119 84.8795C38.1901 85.1759 42.9933 82.706 42.8627 81.7652C42.7321 80.8244 40.8284 80.7177 38.5404 81.0346C36.2523 81.3516 34.7007 81.9203 34.5769 82.913Z" fill="url(#paint23_linear_1439_34584)"/>
      <path fill-rule="evenodd" clip-rule="evenodd" d="M36.122 47.1094C36.122 47.1094 34.4812 48.4237 34.6635 51.3529C34.7146 52.1689 35.8056 66.7518 35.8056 66.7518C35.8056 66.7518 34.5941 82.8447 34.9982 83.1431C35.3976 83.4383 35.8992 83.4693 36.3786 83.2746C37.0422 83.0051 37.6953 82.5111 38.0657 82.1004C38.3849 81.7464 39.8309 73.4679 40.6055 66.8502C41.6424 57.9888 42.2578 49.4675 42.2578 49.4675L36.122 47.1094Z" fill="#0F0C17"/>
      <mask id="mask0_1439_34584" style="mask-type:luminance" maskUnits="userSpaceOnUse" x="34" y="47" width="9" height="37">
        <path fill-rule="evenodd" clip-rule="evenodd" d="M36.9401 47.1601C36.9401 47.1601 35.2993 48.4744 35.4816 51.4036C35.5327 52.2196 35.8056 66.7523 35.8056 66.7523C35.8056 66.7523 34.5941 82.8452 34.9982 83.1436C35.3976 83.4388 35.8992 83.4698 36.3786 83.2752C37.0422 83.0057 37.6953 82.5116 38.0657 82.1009C38.3849 81.7469 39.8309 73.4684 40.6055 66.8507C41.6424 57.9893 42.2578 49.468 42.2578 49.468L36.9401 47.1601Z" fill="white"/>
      </mask>
      <g mask="url(#mask0_1439_34584)">
      </g>
      <path fill-rule="evenodd" clip-rule="evenodd" d="M36.8164 49.2085C36.8164 49.2085 35.5178 51.5399 36.6133 54.7111C37.7078 57.8815 42.227 70.0168 42.227 70.0168C42.227 70.0168 42.8637 83.0335 42.9615 84.5849C42.991 85.0539 44.0703 85.1976 45.171 84.7725C46.549 84.2399 46.5039 83.8782 46.5416 83.2611C46.5735 82.7207 47.3815 71.1553 47.0562 68.1767C46.629 64.2569 45.084 52.3815 45.084 52.3815L36.8164 49.2085Z" fill="#0F0C17"/>
      <mask id="mask1_1439_34584" style="mask-type:luminance" maskUnits="userSpaceOnUse" x="36" y="49" width="12" height="37">
        <path fill-rule="evenodd" clip-rule="evenodd" d="M36.8164 49.2085C36.8164 49.2085 35.5178 51.5399 36.6133 54.7111C37.7078 57.8815 42.227 70.0168 42.227 70.0168C42.227 70.0168 42.8637 83.0335 42.9615 84.5849C42.991 85.0539 44.0703 85.1976 45.171 84.7725C46.549 84.2399 46.5039 83.8782 46.5416 83.2611C46.5735 82.7207 47.3815 71.1553 47.0562 68.1767C46.629 64.2569 45.084 52.3815 45.084 52.3815L36.8164 49.2085Z" fill="white"/>
      </mask>
      <g mask="url(#mask1_1439_34584)">
      </g>
      <path fill-rule="evenodd" clip-rule="evenodd" d="M43.7575 53.6792C43.145 53.7221 42.5676 53.7416 42.0253 53.7416C41.3923 53.7416 40.8061 53.7153 40.2609 53.6705C44.6071 53.3458 44.6568 52.241 44.6568 52.241C44.6568 52.241 46.5635 42.3618 45.6496 36.4023L47.9398 36.1069C47.9535 36.2025 47.9662 36.3039 47.9789 36.4023C48.0686 42.473 48.252 52.241 48.252 52.241C48.252 52.241 48.0686 42.4574 47.9789 36.3877C47.9584 34.9593 47.8452 34.0671 47.615 33.4411C47.5156 33.1691 47.3936 32.9468 47.2473 32.7527C47.063 32.506 46.8396 32.3042 46.5743 32.1004C46.0759 31.7182 44.967 30.9694 43.8307 30.2722C43.2591 29.9222 42.6807 29.5858 42.1706 29.3157C41.1299 28.7648 39.4747 28.2207 38.2624 28.2207C38.0332 28.2207 37.8215 28.2402 37.6313 28.2821C36.2395 28.5912 34.8447 29.0456 34.7101 32.4154C34.636 34.2767 34.6409 42.4857 34.6526 47.6593C34.6545 48.3155 34.6555 48.922 34.6575 49.4622C34.6614 50.9901 34.6653 51.9719 34.6653 51.9719C34.6653 51.9719 34.864 52.1738 34.9615 52.241C35.4004 52.5453 36.7184 53.2561 39.5333 53.6003C40.2599 53.69 41.0753 53.7436 41.9863 53.7436C42.5413 53.7436 43.1313 53.7231 43.7575 53.6792Z" fill="#D9D9D9"/>
      <path fill-rule="evenodd" clip-rule="evenodd" d="M43.7575 53.6792C43.145 53.7221 42.5676 53.7416 42.0253 53.7416C41.3923 53.7416 40.8061 53.7153 40.2609 53.6705C44.6071 53.3458 44.6568 52.241 44.6568 52.241C44.6568 52.241 46.5635 42.3618 45.6496 36.4023L47.9398 36.1069C47.9535 36.2025 47.9662 36.3039 47.9789 36.4023C48.0686 42.473 48.252 52.241 48.252 52.241C48.252 52.241 48.0686 42.4574 47.9789 36.3877C47.9584 34.9593 47.8452 34.0671 47.615 33.4411C47.5156 33.1691 47.3936 32.9468 47.2473 32.7527C47.063 32.506 46.8396 32.3042 46.5743 32.1004C46.0759 31.7182 44.967 30.9694 43.8307 30.2722C43.2591 29.9222 42.6807 29.5858 42.1706 29.3157C41.1299 28.7648 39.4747 28.2207 38.2624 28.2207C38.0332 28.2207 37.8215 28.2402 37.6313 28.2821C36.2395 28.5912 34.8447 29.0456 34.7101 32.4154C34.636 34.2767 34.6409 42.4857 34.6526 47.6593C34.6545 48.3155 34.6555 48.922 34.6575 49.4622C34.6614 50.9901 34.6653 51.9719 34.6653 51.9719C34.6653 51.9719 34.864 52.1738 34.9615 52.241C35.4004 52.5453 36.7184 53.2561 39.5333 53.6003C40.2599 53.69 41.0753 53.7436 41.9863 53.7436C42.5413 53.7436 43.1313 53.7231 43.7575 53.6792Z" fill="url(#paint24_linear_1439_34584)"/>
      <path fill-rule="evenodd" clip-rule="evenodd" d="M43.7583 53.6779C43.9933 53.6614 44.2147 53.6428 44.4254 53.6214C46.5527 53.4118 47.4978 53.0022 47.9172 52.6824C47.9767 52.6385 48.0245 52.5956 48.0645 52.5547C47.7104 52.9116 46.6921 53.4703 43.7583 53.6779Z" fill="#D9D9D9"/>
      <path fill-rule="evenodd" clip-rule="evenodd" d="M42.547 30.7421C40.8935 31.0823 40.0575 32.7304 40.5788 34.3577C41.0998 35.9859 44.8913 40.7875 46.5338 41.6775C47.6632 42.2886 51.7074 42.4748 54.1274 42.5314C55.2642 42.558 56.4059 41.9081 56.5582 40.7812C56.6584 40.0329 55.8688 39.6589 55.1222 39.5471C53.4977 39.3038 50.6051 38.8065 49.5937 38.2232C48.1571 37.3936 47.0462 34.9385 45.946 33.2972C44.7391 31.4959 44.1443 30.4143 42.547 30.7421Z" fill="#9FB8ED"/>
      <path fill-rule="evenodd" clip-rule="evenodd" d="M42.547 30.7421C40.8935 31.0823 40.0575 32.7304 40.5788 34.3577C41.0998 35.9859 44.8913 40.7875 46.5338 41.6775C47.6632 42.2886 51.7074 42.4748 54.1274 42.5314C55.2642 42.558 56.4059 41.9081 56.5582 40.7812C56.6584 40.0329 55.8688 39.6589 55.1222 39.5471C53.4977 39.3038 50.6051 38.8065 49.5937 38.2232C48.1571 37.3936 47.0462 34.9385 45.946 33.2972C44.7391 31.4959 44.1443 30.4143 42.547 30.7421Z" fill="url(#paint25_linear_1439_34584)"/>
      <g filter="url(#filter4_b_1439_34584)">
        <path fill-rule="evenodd" clip-rule="evenodd" d="M38.3823 29.1425C38.3089 29.2964 38.3692 29.4778 38.4595 29.6214C38.634 29.8976 39.4401 30.5059 40.5437 30.5642C41.6541 30.6227 42.2494 30.371 42.5403 30.2047C42.6914 30.1184 42.794 29.9711 42.8281 29.7993L43.1328 28.2973C43.1328 28.2973 44.3076 28.4279 44.6813 28.0017C45.056 27.5753 46.5274 22.0243 44.9241 20.5378C43.3199 19.0515 39.6341 19.2577 38.9195 21.779C38.2039 24.3004 39.2839 25.7367 39.3532 26.3333C39.41 26.8224 38.6772 28.5193 38.3823 29.1425Z" fill="white"/>
        <path fill-rule="evenodd" clip-rule="evenodd" d="M38.3823 29.1425C38.3089 29.2964 38.3692 29.4778 38.4595 29.6214C38.634 29.8976 39.4401 30.5059 40.5437 30.5642C41.6541 30.6227 42.2494 30.371 42.5403 30.2047C42.6914 30.1184 42.794 29.9711 42.8281 29.7993L43.1328 28.2973C43.1328 28.2973 44.3076 28.4279 44.6813 28.0017C45.056 27.5753 46.5274 22.0243 44.9241 20.5378C43.3199 19.0515 39.6341 19.2577 38.9195 21.779C38.2039 24.3004 39.2839 25.7367 39.3532 26.3333C39.41 26.8224 38.6772 28.5193 38.3823 29.1425Z" fill="url(#paint26_linear_1439_34584)" fill-opacity="0.24"/>
      </g>
      <path fill-rule="evenodd" clip-rule="evenodd" d="M41.2112 27.1498C42.2365 26.914 42.3153 24.5745 43.0192 24.0746C43.4373 23.7767 43.7648 24.1617 43.7062 24.5789C43.6956 24.6546 43.7046 24.7051 43.7263 24.7382C43.8803 24.9732 44.6774 24.6924 44.9171 24.5459C45.7877 24.0137 45.4607 22.6521 46.0388 21.8113C46.1499 21.6497 46.2573 21.4782 46.3557 21.2986C46.4558 21.1161 46.4499 20.8937 46.3454 20.7137C44.9213 18.2622 42.73 17.9768 40.5822 18.9286C38.6422 19.7883 37.4984 21.9386 37.8786 24.0263C38.1801 25.6826 38.9249 26.6335 39.3213 26.7715C39.3213 26.7715 40.6375 27.2823 41.2112 27.1498Z" fill="#0F0C17"/>
      <g filter="url(#filter5_b_1439_34584)">
        <path d="M45.7114 25.7165C45.7586 25.6128 45.5896 24.8558 45.4992 24.4902L44.9922 25.8108C45.2123 25.8226 45.6643 25.8203 45.7114 25.7165Z" fill="white"/>
        <path d="M45.7114 25.7165C45.7586 25.6128 45.5896 24.8558 45.4992 24.4902L44.9922 25.8108C45.2123 25.8226 45.6643 25.8203 45.7114 25.7165Z" fill="url(#paint27_linear_1439_34584)" fill-opacity="0.24"/>
      </g>
      <path d="M72.2066 30.5614L74.8696 29.0239L75.9202 29.6305C76.1222 29.7471 76.2557 29.8687 76.3207 29.9954C76.3866 30.1215 76.3887 30.2453 76.3272 30.367C76.2674 30.4886 76.149 30.6004 75.9722 30.7025C75.7954 30.8046 75.6012 30.8727 75.3897 30.9067C75.1782 30.9407 74.9623 30.9377 74.7421 30.8977C74.5228 30.8582 74.3109 30.7793 74.1063 30.6612L73.4367 30.2746L73.8879 30.0141L74.4665 30.3482C74.5748 30.4107 74.6828 30.4515 74.7903 30.4706C74.8995 30.4896 75.0048 30.4898 75.1062 30.4713C75.2094 30.4528 75.3047 30.4183 75.3923 30.3677C75.4807 30.3167 75.5401 30.2619 75.5704 30.2033C75.6025 30.1447 75.6012 30.0844 75.5665 30.0224C75.5327 29.9598 75.4612 29.897 75.352 29.8339L74.9723 29.6147L72.7696 30.8864L72.2066 30.5614Z" fill="#4E4E4E"/>
      <path d="M74.5669 31.9241L76.5642 30.771L77.1012 31.0811L76.7527 31.2823L76.7735 31.2943C76.9339 31.2437 77.0886 31.225 77.2377 31.238C77.3877 31.2505 77.5186 31.289 77.6304 31.3536C77.6581 31.3696 77.6863 31.3879 77.7149 31.4084C77.7435 31.4289 77.7669 31.4479 77.7851 31.4654L77.2936 31.7492C77.2754 31.7297 77.2464 31.7049 77.2065 31.6749C77.1666 31.6449 77.1276 31.6188 77.0895 31.5968C77.008 31.5498 76.9174 31.518 76.8177 31.5015C76.7198 31.485 76.6209 31.484 76.5212 31.4985C76.4224 31.5135 76.3323 31.5445 76.2508 31.5916L75.1208 32.2439L74.5669 31.9241Z" fill="#4E4E4E"/>
      <path d="M76.8434 33.2835C76.6379 33.1649 76.5027 33.0387 76.4377 32.9051C76.3744 32.7715 76.3796 32.6374 76.4533 32.5027C76.5279 32.3676 76.6704 32.2392 76.8811 32.1176C77.0865 31.999 77.3067 31.9179 77.5416 31.8744C77.7765 31.8308 78.0097 31.8258 78.2412 31.8594C78.4735 31.8934 78.6876 31.967 78.8835 32.0801C79.0153 32.1562 79.1167 32.2392 79.1878 32.3293C79.2606 32.4194 79.2974 32.5132 79.2983 32.6108C79.3 32.7089 79.261 32.8085 79.1813 32.9096C79.1024 33.0102 78.978 33.1096 78.8081 33.2077L78.656 33.2955L76.9695 32.3218L77.3128 32.1236L78.4778 32.7963C78.5576 32.7502 78.6109 32.6994 78.6378 32.6439C78.6646 32.5883 78.6646 32.5328 78.6378 32.4772C78.6126 32.4217 78.5597 32.3706 78.4791 32.3241C78.395 32.2755 78.301 32.2437 78.197 32.2287C78.0947 32.2137 77.9928 32.2145 77.8914 32.231C77.7909 32.247 77.7007 32.2775 77.6209 32.3226L77.2946 32.511C77.1958 32.568 77.1286 32.6279 77.093 32.6904C77.0584 32.7535 77.0553 32.8158 77.0839 32.8773C77.1125 32.9389 77.1732 32.9965 77.266 33.05C77.3275 33.0855 77.3925 33.1131 77.461 33.1326C77.5295 33.1521 77.5993 33.1624 77.6704 33.1634C77.7414 33.1644 77.8117 33.1559 77.881 33.1378L78.3595 33.4531C78.2104 33.5092 78.0496 33.5405 77.8771 33.547C77.7063 33.5535 77.5321 33.535 77.3544 33.4914C77.1784 33.4479 77.0081 33.3786 76.8434 33.2835Z" fill="#4E4E4E"/>
      <path d="M81.25 34.134L80.7117 33.8593C80.7464 33.8292 80.7667 33.796 80.7728 33.7594C80.7797 33.7224 80.7702 33.6844 80.7442 33.6453C80.7199 33.6063 80.6757 33.5682 80.6116 33.5312C80.5258 33.4817 80.4352 33.4504 80.3398 33.4374C80.2453 33.4239 80.1682 33.4344 80.1084 33.4689C80.0607 33.4964 80.0395 33.5307 80.0447 33.5717C80.0499 33.6128 80.0889 33.6658 80.1617 33.7309L80.4503 33.9816C80.6046 34.1168 80.6853 34.2374 80.6922 34.3435C80.6991 34.4496 80.6306 34.5442 80.4868 34.6273C80.3559 34.7028 80.2024 34.7469 80.0265 34.7594C79.8514 34.7724 79.6693 34.7564 79.4803 34.7113C79.2931 34.6663 79.1128 34.5937 78.9394 34.4936C78.675 34.341 78.5194 34.1876 78.4726 34.0334C78.4276 33.8793 78.4869 33.7394 78.6508 33.6138L79.2242 33.9118C79.16 33.9679 79.1384 34.0264 79.1592 34.0875C79.1808 34.148 79.2411 34.2069 79.3399 34.2639C79.437 34.32 79.5337 34.3542 79.6299 34.3668C79.7278 34.3793 79.8071 34.3685 79.8678 34.3345C79.9172 34.3049 79.9372 34.2689 79.9276 34.2264C79.919 34.1833 79.88 34.1318 79.8106 34.0717L79.5337 33.8322C79.3776 33.6971 79.3 33.5743 79.3009 33.4636C79.3026 33.3535 79.3781 33.2554 79.5271 33.1694C79.6554 33.0953 79.8006 33.0515 79.9627 33.038C80.1257 33.025 80.2956 33.0405 80.4724 33.0845C80.6502 33.1291 80.8244 33.2006 80.9952 33.2992C81.2474 33.4449 81.3926 33.5903 81.4307 33.7354C81.4698 33.881 81.4095 34.0139 81.25 34.134Z" fill="#4E4E4E"/>
      <path d="M83.3061 35.3211L82.7678 35.0463C82.8024 35.0163 82.8228 34.983 82.8289 34.9465C82.8358 34.9095 82.8263 34.8714 82.8003 34.8324C82.776 34.7933 82.7318 34.7553 82.6676 34.7183C82.5818 34.6687 82.4912 34.6374 82.3959 34.6244C82.3014 34.6109 82.2242 34.6214 82.1644 34.656C82.1168 34.6835 82.0955 34.7178 82.1007 34.7588C82.1059 34.7999 82.1449 34.8529 82.2177 34.918L82.5064 35.1687C82.6607 35.3038 82.7413 35.4244 82.7483 35.5305C82.7552 35.6366 82.6867 35.7312 82.5428 35.8143C82.4119 35.8899 82.2585 35.9339 82.0825 35.9464C81.9074 35.9595 81.7254 35.9434 81.5364 35.8984C81.3492 35.8534 81.1689 35.7808 80.9955 35.6807C80.7311 35.528 80.5755 35.3746 80.5287 35.2205C80.4836 35.0664 80.543 34.9265 80.7068 34.8009L81.2802 35.0989C81.2161 35.1549 81.1944 35.2135 81.2152 35.2746C81.2369 35.3351 81.2971 35.3939 81.396 35.451C81.4931 35.507 81.5897 35.5413 81.6859 35.5538C81.7839 35.5663 81.8632 35.5556 81.9239 35.5215C81.9733 35.492 81.9932 35.456 81.9837 35.4134C81.975 35.3704 81.936 35.3188 81.8667 35.2588L81.5897 35.0193C81.4337 34.8842 81.3561 34.7613 81.357 34.6507C81.3587 34.5406 81.4341 34.4425 81.5832 34.3564C81.7115 34.2824 81.8567 34.2386 82.0188 34.2251C82.1818 34.212 82.3517 34.2276 82.5285 34.2716C82.7062 34.3161 82.8804 34.3877 83.0512 34.4863C83.3035 34.6319 83.4487 34.7773 83.4868 34.9225C83.5258 35.0681 83.4656 35.201 83.3061 35.3211Z" fill="#4E4E4E"/>
      <path d="M85.2279 35.5403L85.6921 35.2723L87.8791 36.535L87.4149 36.803L86.5997 36.3323L84.4009 37.6018L83.8444 37.2805L86.0431 36.011L85.2279 35.5403Z" fill="#4E4E4E"/>
      <path d="M86.1397 38.6507C85.9377 38.5341 85.806 38.4085 85.7444 38.2738C85.6846 38.1392 85.692 38.0043 85.7665 37.8692C85.8419 37.7336 85.9819 37.6067 86.1865 37.4886C86.3928 37.3695 86.613 37.2884 86.847 37.2454C87.082 37.2018 87.3156 37.1976 87.5479 37.2326C87.7819 37.2676 87.9999 37.3435 88.2019 37.4601C88.4039 37.5767 88.5348 37.7023 88.5946 37.8369C88.6562 37.9716 88.6492 38.1067 88.5738 38.2423C88.4993 38.3774 88.3588 38.5046 88.1525 38.6237C87.9479 38.7418 87.7282 38.8226 87.4933 38.8662C87.2592 38.9092 87.0252 38.9132 86.7911 38.8782C86.5588 38.8431 86.3417 38.7673 86.1397 38.6507ZM86.5714 38.4045C86.6633 38.4575 86.766 38.4868 86.8795 38.4923C86.994 38.4973 87.1123 38.4825 87.2345 38.448C87.3576 38.414 87.4772 38.3634 87.5934 38.2964C87.7096 38.2293 87.7971 38.1602 87.856 38.0892C87.9159 38.0186 87.9414 37.9503 87.9328 37.8842C87.9241 37.8182 87.8738 37.7586 87.7819 37.7056C87.6892 37.652 87.5847 37.6222 87.4686 37.6162C87.3533 37.6107 87.2341 37.625 87.111 37.659C86.9888 37.6935 86.8696 37.7443 86.7534 37.8114C86.6373 37.8785 86.5493 37.9473 86.4895 38.0178C86.4305 38.0889 86.4058 38.1577 86.4153 38.2243C86.4266 38.2909 86.4786 38.3509 86.5714 38.4045Z" fill="#4E4E4E"/>
      <path d="M71.166 33.8814L70.5965 33.5526C70.6598 33.5041 70.704 33.454 70.7291 33.4025C70.7551 33.3504 70.7634 33.2981 70.7538 33.2456C70.7443 33.193 70.7174 33.1415 70.6732 33.0909C70.6299 33.0409 70.5701 32.9938 70.4938 32.9498C70.356 32.8702 70.2017 32.8207 70.0309 32.8012C69.861 32.7811 69.6829 32.7924 69.4965 32.8349C69.311 32.877 69.1259 32.9513 68.9413 33.0579C68.7514 33.1675 68.6201 33.2759 68.5473 33.383C68.4753 33.4906 68.4576 33.5929 68.494 33.69C68.5304 33.7871 68.6158 33.8744 68.7501 33.952C68.8255 33.9955 68.9053 34.0301 68.9894 34.0556C69.0743 34.0816 69.161 34.0981 69.2494 34.1051C69.3387 34.1117 69.4276 34.1084 69.516 34.0954C69.6053 34.0829 69.692 34.0599 69.776 34.0263L70.343 34.3566C70.206 34.4187 70.0513 34.4655 69.8788 34.497C69.708 34.5286 69.5286 34.5416 69.3405 34.5361C69.1541 34.5306 68.9668 34.5035 68.7787 34.455C68.5924 34.4064 68.4138 34.3329 68.243 34.2343C68.0055 34.0971 67.8469 33.9435 67.7671 33.7733C67.6882 33.6037 67.6965 33.4288 67.7918 33.2486C67.888 33.0689 68.0809 32.8955 68.3704 32.7283C68.6608 32.5607 68.9625 32.4496 69.2754 32.395C69.5884 32.3405 69.8918 32.3365 70.1856 32.383C70.4804 32.4291 70.7447 32.5196 70.9788 32.6548C71.1331 32.7439 71.2545 32.8389 71.3429 32.94C71.4322 33.0416 71.4863 33.146 71.5054 33.2531C71.5253 33.3597 71.5076 33.466 71.4521 33.5721C71.3975 33.6787 71.3021 33.7818 71.166 33.8814Z" fill="#4E4E4E"/>
      <path d="M70.6921 35.6512C70.4901 35.5346 70.3583 35.409 70.2968 35.2744C70.237 35.1398 70.2444 35.0049 70.3189 34.8698C70.3943 34.7341 70.5343 34.6073 70.7389 34.4891C70.9452 34.37 71.1654 34.2889 71.3994 34.2459C71.6344 34.2024 71.868 34.1981 72.1003 34.2331C72.3343 34.2682 72.5523 34.344 72.7543 34.4606C72.9563 34.5772 73.0872 34.7028 73.147 34.8375C73.2085 34.9721 73.2016 35.1072 73.1262 35.2429C73.0516 35.378 72.9112 35.5051 72.7049 35.6242C72.5003 35.7423 72.2806 35.8232 72.0457 35.8667C71.8116 35.9097 71.5776 35.9137 71.3435 35.8787C71.1112 35.8437 70.8941 35.7679 70.6921 35.6512ZM71.1238 35.405C71.2157 35.4581 71.3184 35.4873 71.4319 35.4928C71.5464 35.4978 71.6647 35.4831 71.7869 35.4486C71.91 35.4145 72.0296 35.364 72.1458 35.2969C72.2619 35.2298 72.3495 35.1608 72.4084 35.0897C72.4683 35.0191 72.4938 34.9508 72.4852 34.8848C72.4765 34.8187 72.4262 34.7591 72.3343 34.7061C72.2416 34.6525 72.1371 34.6228 72.021 34.6168C71.9057 34.6113 71.7865 34.6255 71.6634 34.6596C71.5412 34.6941 71.422 34.7449 71.3058 34.8119C71.1897 34.879 71.1017 34.9478 71.0419 35.0184C70.9829 35.0895 70.9582 35.1583 70.9677 35.2248C70.979 35.2914 71.031 35.3515 71.1238 35.405Z" fill="#4E4E4E"/>
      <path d="M73.7828 36.0574L72.6282 36.724L72.0743 36.4042L74.0715 35.2511L74.5994 35.5559L74.247 35.7593L74.2704 35.7729C74.4308 35.7313 74.5968 35.7211 74.7684 35.7421C74.9409 35.7626 75.1013 35.8156 75.2495 35.9012C75.3882 35.9813 75.4788 36.0686 75.5213 36.1632C75.5638 36.2578 75.5573 36.3542 75.5018 36.4523C75.4472 36.5498 75.3423 36.6434 75.1871 36.733L73.9155 37.4672L73.3615 37.1474L74.5344 36.4703C74.6575 36.4002 74.7216 36.3271 74.7268 36.2511C74.7329 36.1745 74.6805 36.1042 74.5695 36.0401C74.495 35.9971 74.413 35.9683 74.3237 35.9538C74.2353 35.9398 74.1443 35.9413 74.0507 35.9583C73.9588 35.9753 73.8695 36.0083 73.7828 36.0574Z" fill="#4E4E4E"/>
      <path d="M76.0606 37.3724L74.9059 38.0391L74.352 37.7193L76.3492 36.5662L76.8772 36.871L76.5248 37.0744L76.5482 37.0879C76.7086 37.0464 76.8746 37.0361 77.0462 37.0571C77.2187 37.0777 77.3791 37.1307 77.5273 37.2163C77.666 37.2964 77.7566 37.3837 77.7991 37.4783C77.8415 37.5729 77.835 37.6692 77.7795 37.7673C77.7249 37.8649 77.62 37.9585 77.4649 38.0481L76.1932 38.7823L75.6393 38.4625L76.8121 37.7853C76.9352 37.7153 76.9994 37.6422 77.0046 37.5661C77.0107 37.4896 76.9582 37.4192 76.8473 37.3552C76.7727 37.3121 76.6908 37.2834 76.6015 37.2688C76.5131 37.2548 76.4221 37.2563 76.3284 37.2733C76.2366 37.2904 76.1473 37.3234 76.0606 37.3724Z" fill="#4E4E4E"/>
      <path d="M77.501 39.5824C77.2955 39.4637 77.1603 39.3376 77.0953 39.204C77.032 39.0704 77.0372 38.9362 77.1109 38.8016C77.1854 38.6665 77.328 38.5381 77.5387 38.4165C77.7441 38.2979 77.9643 38.2168 78.1992 38.1733C78.4341 38.1297 78.6673 38.1247 78.8988 38.1582C79.1311 38.1923 79.3452 38.2659 79.5411 38.379C79.6729 38.455 79.7743 38.5381 79.8454 38.6282C79.9182 38.7183 79.955 38.8121 79.9559 38.9097C79.9576 39.0078 79.9186 39.1074 79.8389 39.2085C79.76 39.3091 79.6356 39.4084 79.4657 39.5065L79.3135 39.5944L77.6271 38.6207L77.9704 38.4225L79.1354 39.0951C79.2152 39.0491 79.2685 38.9983 79.2953 38.9427C79.3222 38.8872 79.3222 38.8316 79.2953 38.7761C79.2702 38.7205 79.2173 38.6695 79.1367 38.6229C79.0526 38.5744 78.9586 38.5426 78.8546 38.5276C78.7523 38.5126 78.6504 38.5133 78.549 38.5299C78.4484 38.5459 78.3583 38.5764 78.2785 38.6214L77.9522 38.8099C77.8533 38.8669 77.7862 38.9267 77.7506 38.9893C77.7159 39.0523 77.7129 39.1147 77.7415 39.1762C77.7701 39.2378 77.8308 39.2953 77.9236 39.3489C77.9851 39.3844 78.0501 39.4119 78.1186 39.4315C78.1871 39.451 78.2569 39.4612 78.3279 39.4622C78.399 39.4632 78.4692 39.4547 78.5386 39.4367L79.0171 39.752C78.868 39.8081 78.7072 39.8393 78.5347 39.8459C78.3639 39.8524 78.1897 39.8338 78.012 39.7903C77.836 39.7468 77.6657 39.6774 77.501 39.5824Z" fill="#4E4E4E"/>
      <path d="M79.6815 40.8413C79.4769 40.7232 79.3443 40.5966 79.2836 40.4614C79.2247 40.3263 79.2334 40.1912 79.3096 40.0561C79.3868 39.9214 79.5264 39.7958 79.7283 39.6792C79.9329 39.5611 80.1518 39.4803 80.385 39.4367C80.6199 39.3932 80.8539 39.3887 81.0871 39.4232C81.3212 39.4572 81.5392 39.5326 81.7412 39.6492C81.9154 39.7498 82.0363 39.8561 82.1039 39.9682C82.1715 40.0803 82.1863 40.1914 82.1481 40.3015C82.11 40.4116 82.0177 40.5135 81.8712 40.6071L81.3485 40.3053C81.4334 40.2392 81.4746 40.1704 81.472 40.0988C81.4711 40.0273 81.42 39.9622 81.3186 39.9037C81.2327 39.8541 81.1344 39.8243 81.0234 39.8143C80.9142 39.8043 80.7976 39.8146 80.6736 39.8451C80.5497 39.8756 80.4248 39.9272 80.2992 39.9997C80.1717 40.0733 80.0807 40.1459 80.0261 40.2175C79.9724 40.2895 79.9541 40.3576 79.9715 40.4216C79.9888 40.4857 80.0404 40.5425 80.1262 40.5921C80.1895 40.6286 80.2593 40.6539 80.3356 40.6679C80.4127 40.6824 80.4925 40.6849 80.5748 40.6754C80.6589 40.6659 80.7412 40.6439 80.8219 40.6093L81.3446 40.9111C81.1833 40.9942 81.0074 41.0477 80.8167 41.0718C80.6277 41.0958 80.4357 41.089 80.2406 41.0515C80.0456 41.014 79.8592 40.9439 79.6815 40.8413Z" fill="#4E4E4E"/>
      <path d="M84.0267 40.9988L83.6106 41.239L82.4079 40.5446L82.824 40.3044L84.0267 40.9988ZM83.5755 40.1857L84.1294 40.5055L82.2674 41.5806C82.2163 41.6101 82.1842 41.6376 82.1712 41.6631C82.1591 41.6882 82.1613 41.7119 82.1777 41.7345C82.1951 41.7575 82.2224 41.7798 82.2596 41.8013C82.2856 41.8163 82.3138 41.83 82.3442 41.8426C82.3754 41.8546 82.3992 41.8638 82.4157 41.8703L82.0906 42.1586C82.0542 42.1476 82.0052 42.1308 81.9437 42.1083C81.8813 42.0863 81.8128 42.0553 81.7382 42.0152C81.5995 41.9412 81.5003 41.8633 81.4405 41.7818C81.3815 41.7007 81.3672 41.6193 81.3976 41.5378C81.4279 41.4562 81.5089 41.3779 81.6407 41.3028L83.5755 40.1857Z" fill="#4E4E4E"/>
    </g>
    <defs>
      <filter id="filter0_b_1439_34584" x="310.942" y="12.0025" width="26.9385" height="32.1377" filterUnits="userSpaceOnUse" color-interpolation-filters="sRGB">
        <feFlood flood-opacity="0" result="BackgroundImageFix"/>
        <feGaussianBlur in="BackgroundImageFix" stdDeviation="2.11401"/>
        <feComposite in2="SourceAlpha" operator="in" result="effect1_backgroundBlur_1439_34584"/>
        <feBlend mode="normal" in="SourceGraphic" in2="effect1_backgroundBlur_1439_34584" result="shape"/>
      </filter>
      <filter id="filter1_b_1439_34584" x="299.77" y="12.0025" width="29.6631" height="35.9912" filterUnits="userSpaceOnUse" color-interpolation-filters="sRGB">
        <feFlood flood-opacity="0" result="BackgroundImageFix"/>
        <feGaussianBlur in="BackgroundImageFix" stdDeviation="2.11401"/>
        <feComposite in2="SourceAlpha" operator="in" result="effect1_backgroundBlur_1439_34584"/>
        <feBlend mode="normal" in="SourceGraphic" in2="effect1_backgroundBlur_1439_34584" result="shape"/>
      </filter>
      <filter id="filter2_b_1439_34584" x="47.8657" y="29.6939" width="14.3506" height="12.7002" filterUnits="userSpaceOnUse" color-interpolation-filters="sRGB">
        <feFlood flood-opacity="0" result="BackgroundImageFix"/>
        <feGaussianBlur in="BackgroundImageFix" stdDeviation="2.11401"/>
        <feComposite in2="SourceAlpha" operator="in" result="effect1_backgroundBlur_1439_34584"/>
        <feBlend mode="normal" in="SourceGraphic" in2="effect1_backgroundBlur_1439_34584" result="shape"/>
      </filter>
      <filter id="filter3_b_1439_34584" x="50.813" y="34.3677" width="14.4267" height="12.6064" filterUnits="userSpaceOnUse" color-interpolation-filters="sRGB">
        <feFlood flood-opacity="0" result="BackgroundImageFix"/>
        <feGaussianBlur in="BackgroundImageFix" stdDeviation="2.11401"/>
        <feComposite in2="SourceAlpha" operator="in" result="effect1_backgroundBlur_1439_34584"/>
        <feBlend mode="normal" in="SourceGraphic" in2="effect1_backgroundBlur_1439_34584" result="shape"/>
      </filter>
      <filter id="filter4_b_1439_34584" x="34.1216" y="15.3775" width="15.7627" height="19.4228" filterUnits="userSpaceOnUse" color-interpolation-filters="sRGB">
        <feFlood flood-opacity="0" result="BackgroundImageFix"/>
        <feGaussianBlur in="BackgroundImageFix" stdDeviation="2.11401"/>
        <feComposite in2="SourceAlpha" operator="in" result="effect1_backgroundBlur_1439_34584"/>
        <feBlend mode="normal" in="SourceGraphic" in2="effect1_backgroundBlur_1439_34584" result="shape"/>
      </filter>
      <filter id="filter5_b_1439_34584" x="40.7642" y="20.2622" width="9.18259" height="9.7822" filterUnits="userSpaceOnUse" color-interpolation-filters="sRGB">
        <feFlood flood-opacity="0" result="BackgroundImageFix"/>
        <feGaussianBlur in="BackgroundImageFix" stdDeviation="2.11401"/>
        <feComposite in2="SourceAlpha" operator="in" result="effect1_backgroundBlur_1439_34584"/>
        <feBlend mode="normal" in="SourceGraphic" in2="effect1_backgroundBlur_1439_34584" result="shape"/>
      </filter>
      <linearGradient id="paint0_linear_1439_34584" x1="311.538" y1="7.53972" x2="457.104" y2="212.435" gradientUnits="userSpaceOnUse">
        <stop stop-color="white"/>
        <stop offset="1" stop-color="#878787"/>
      </linearGradient>
      <linearGradient id="paint1_linear_1439_34584" x1="130.39" y1="-19.9203" x2="262.044" y2="200.937" gradientUnits="userSpaceOnUse">
        <stop stop-color="#44FFF9"/>
        <stop offset="0.166667" stop-color="#7188FF"/>
        <stop offset="0.511814" stop-color="#FF5178"/>
        <stop offset="0.833333" stop-color="#FFB719"/>
        <stop offset="1" stop-color="#D153D1"/>
      </linearGradient>
      <linearGradient id="paint2_linear_1439_34584" x1="130.39" y1="-19.9203" x2="262.044" y2="200.937" gradientUnits="userSpaceOnUse">
        <stop stop-color="#44FFF9"/>
        <stop offset="0.166667" stop-color="#7188FF"/>
        <stop offset="0.511814" stop-color="#FF5178"/>
        <stop offset="0.833333" stop-color="#FFB719"/>
        <stop offset="1" stop-color="#D153D1"/>
      </linearGradient>
      <linearGradient id="paint3_linear_1439_34584" x1="130.39" y1="-19.9203" x2="262.044" y2="200.937" gradientUnits="userSpaceOnUse">
        <stop stop-color="#44FFF9"/>
        <stop offset="0.166667" stop-color="#7188FF"/>
        <stop offset="0.511814" stop-color="#FF5178"/>
        <stop offset="0.833333" stop-color="#FFB719"/>
        <stop offset="1" stop-color="#D153D1"/>
      </linearGradient>
      <linearGradient id="paint4_linear_1439_34584" x1="130.39" y1="-19.9203" x2="262.044" y2="200.937" gradientUnits="userSpaceOnUse">
        <stop stop-color="#44FFF9"/>
        <stop offset="0.166667" stop-color="#7188FF"/>
        <stop offset="0.511814" stop-color="#FF5178"/>
        <stop offset="0.833333" stop-color="#FFB719"/>
        <stop offset="1" stop-color="#D153D1"/>
      </linearGradient>
      <linearGradient id="paint5_linear_1439_34584" x1="130.39" y1="-19.9203" x2="262.044" y2="200.937" gradientUnits="userSpaceOnUse">
        <stop stop-color="#44FFF9"/>
        <stop offset="0.166667" stop-color="#7188FF"/>
        <stop offset="0.511814" stop-color="#FF5178"/>
        <stop offset="0.833333" stop-color="#FFB719"/>
        <stop offset="1" stop-color="#D153D1"/>
      </linearGradient>
      <linearGradient id="paint6_linear_1439_34584" x1="130.39" y1="-19.9203" x2="262.044" y2="200.937" gradientUnits="userSpaceOnUse">
        <stop stop-color="#44FFF9"/>
        <stop offset="0.166667" stop-color="#7188FF"/>
        <stop offset="0.511814" stop-color="#FF5178"/>
        <stop offset="0.833333" stop-color="#FFB719"/>
        <stop offset="1" stop-color="#D153D1"/>
      </linearGradient>
      <linearGradient id="paint7_linear_1439_34584" x1="130.39" y1="-19.9203" x2="262.044" y2="200.937" gradientUnits="userSpaceOnUse">
        <stop stop-color="#44FFF9"/>
        <stop offset="0.166667" stop-color="#7188FF"/>
        <stop offset="0.511814" stop-color="#FF5178"/>
        <stop offset="0.833333" stop-color="#FFB719"/>
        <stop offset="1" stop-color="#D153D1"/>
      </linearGradient>
      <linearGradient id="paint8_linear_1439_34584" x1="130.39" y1="-19.9203" x2="262.044" y2="200.937" gradientUnits="userSpaceOnUse">
        <stop stop-color="#44FFF9"/>
        <stop offset="0.166667" stop-color="#7188FF"/>
        <stop offset="0.511814" stop-color="#FF5178"/>
        <stop offset="0.833333" stop-color="#FFB719"/>
        <stop offset="1" stop-color="#D153D1"/>
      </linearGradient>
      <linearGradient id="paint9_linear_1439_34584" x1="130.39" y1="-19.9203" x2="262.044" y2="200.937" gradientUnits="userSpaceOnUse">
        <stop stop-color="#44FFF9"/>
        <stop offset="0.166667" stop-color="#7188FF"/>
        <stop offset="0.511814" stop-color="#FF5178"/>
        <stop offset="0.833333" stop-color="#FFB719"/>
        <stop offset="1" stop-color="#D153D1"/>
      </linearGradient>
      <linearGradient id="paint10_linear_1439_34584" x1="130.39" y1="-19.9203" x2="262.044" y2="200.937" gradientUnits="userSpaceOnUse">
        <stop stop-color="#44FFF9"/>
        <stop offset="0.166667" stop-color="#7188FF"/>
        <stop offset="0.511814" stop-color="#FF5178"/>
        <stop offset="0.833333" stop-color="#FFB719"/>
        <stop offset="1" stop-color="#D153D1"/>
      </linearGradient>
      <linearGradient id="paint11_linear_1439_34584" x1="130.39" y1="-19.9203" x2="262.044" y2="200.937" gradientUnits="userSpaceOnUse">
        <stop stop-color="#44FFF9"/>
        <stop offset="0.166667" stop-color="#7188FF"/>
        <stop offset="0.511814" stop-color="#FF5178"/>
        <stop offset="0.833333" stop-color="#FFB719"/>
        <stop offset="1" stop-color="#D153D1"/>
      </linearGradient>
      <linearGradient id="paint12_linear_1439_34584" x1="129.546" y1="91.0704" x2="353.191" y2="89.2737" gradientUnits="userSpaceOnUse">
        <stop stop-color="#44FFF9"/>
        <stop offset="0.166667" stop-color="#7188FF"/>
        <stop offset="0.511814" stop-color="#FF5178"/>
        <stop offset="0.833333" stop-color="#FFB719"/>
        <stop offset="1" stop-color="#D153D1"/>
      </linearGradient>
      <linearGradient id="paint13_linear_1439_34584" x1="129.06" y1="77.1064" x2="353.685" y2="76.0769" gradientUnits="userSpaceOnUse">
        <stop stop-color="#44FFF9"/>
        <stop offset="0.166667" stop-color="#7188FF"/>
        <stop offset="0.511814" stop-color="#FF5178"/>
        <stop offset="0.833333" stop-color="#FFB719"/>
        <stop offset="1" stop-color="#D153D1"/>
      </linearGradient>
      <linearGradient id="paint14_linear_1439_34584" x1="53.9251" y1="79.0235" x2="277.581" y2="78.1639" gradientUnits="userSpaceOnUse">
        <stop stop-color="#44FFF9"/>
        <stop offset="0.166667" stop-color="#7188FF"/>
        <stop offset="0.511814" stop-color="#FF5178"/>
        <stop offset="0.833333" stop-color="#FFB719"/>
        <stop offset="1" stop-color="#D153D1"/>
      </linearGradient>
      <linearGradient id="paint15_linear_1439_34584" x1="53.4371" y1="59.3446" x2="278.062" y2="58.3152" gradientUnits="userSpaceOnUse">
        <stop stop-color="#44FFF9"/>
        <stop offset="0.166667" stop-color="#7188FF"/>
        <stop offset="0.511814" stop-color="#FF5178"/>
        <stop offset="0.833333" stop-color="#FFB719"/>
        <stop offset="1" stop-color="#D153D1"/>
      </linearGradient>
      <linearGradient id="paint16_linear_1439_34584" x1="4.90641" y1="85.6246" x2="210.34" y2="-69.6191" gradientUnits="userSpaceOnUse">
        <stop stop-color="#44FFF9"/>
        <stop offset="0.166667" stop-color="#7188FF"/>
        <stop offset="0.511814" stop-color="#FF5178"/>
        <stop offset="0.833333" stop-color="#FFB719"/>
        <stop offset="1" stop-color="#D153D1"/>
      </linearGradient>
      <linearGradient id="paint17_linear_1439_34584" x1="74.0106" y1="31.948" x2="50.4423" y2="51.5368" gradientUnits="userSpaceOnUse">
        <stop stop-color="#44FFF9"/>
        <stop offset="0.166667" stop-color="#7188FF"/>
        <stop offset="0.511814" stop-color="#FF5178"/>
        <stop offset="0.833333" stop-color="#FFB719"/>
        <stop offset="1" stop-color="#D153D1"/>
      </linearGradient>
      <linearGradient id="paint18_linear_1439_34584" x1="62.5348" y1="35.2002" x2="50.6105" y2="42.4164" gradientUnits="userSpaceOnUse">
        <stop stop-color="#44FFF9"/>
        <stop offset="0.166667" stop-color="#7188FF"/>
        <stop offset="0.511814" stop-color="#FF5178"/>
        <stop offset="0.833333" stop-color="#FFB719"/>
        <stop offset="1" stop-color="#D153D1"/>
      </linearGradient>
      <linearGradient id="paint19_linear_1439_34584" x1="102.002" y1="29.8033" x2="25.6538" y2="-14.2615" gradientUnits="userSpaceOnUse">
        <stop stop-color="#44FFF9"/>
        <stop offset="0.166667" stop-color="#7188FF"/>
        <stop offset="0.511814" stop-color="#FF5178"/>
        <stop offset="0.833333" stop-color="#FFB719"/>
        <stop offset="1" stop-color="#D153D1"/>
      </linearGradient>
      <linearGradient id="paint20_linear_1439_34584" x1="75.4596" y1="48.5917" x2="57.3714" y2="24.376" gradientUnits="userSpaceOnUse">
        <stop stop-color="#44FFF9"/>
        <stop offset="0.166667" stop-color="#7188FF"/>
        <stop offset="0.511814" stop-color="#FF5178"/>
        <stop offset="0.833333" stop-color="#FFB719"/>
        <stop offset="1" stop-color="#D153D1"/>
      </linearGradient>
      <linearGradient id="paint21_linear_1439_34584" x1="65.0144" y1="42.9408" x2="55.2657" y2="33.2224" gradientUnits="userSpaceOnUse">
        <stop stop-color="#44FFF9"/>
        <stop offset="0.166667" stop-color="#7188FF"/>
        <stop offset="0.511814" stop-color="#FF5178"/>
        <stop offset="0.833333" stop-color="#FFB719"/>
        <stop offset="1" stop-color="#D153D1"/>
      </linearGradient>
      <linearGradient id="paint22_linear_1439_34584" x1="74.1738" y1="81.8248" x2="45.7371" y2="59.4933" gradientUnits="userSpaceOnUse">
        <stop stop-color="#44FFF9"/>
        <stop offset="0.166667" stop-color="#7188FF"/>
        <stop offset="0.511814" stop-color="#FF5178"/>
        <stop offset="0.833333" stop-color="#FFB719"/>
        <stop offset="1" stop-color="#D153D1"/>
      </linearGradient>
      <linearGradient id="paint23_linear_1439_34584" x1="65.956" y1="81.2914" x2="38.4332" y2="57.8428" gradientUnits="userSpaceOnUse">
        <stop stop-color="#44FFF9"/>
        <stop offset="0.166667" stop-color="#7188FF"/>
        <stop offset="0.511814" stop-color="#FF5178"/>
        <stop offset="0.833333" stop-color="#FFB719"/>
        <stop offset="1" stop-color="#D153D1"/>
      </linearGradient>
      <linearGradient id="paint24_linear_1439_34584" x1="85.5645" y1="61.012" x2="2.18207" y2="40.4801" gradientUnits="userSpaceOnUse">
        <stop stop-color="#44FFF9"/>
        <stop offset="0.166667" stop-color="#7188FF"/>
        <stop offset="0.511814" stop-color="#FF5178"/>
        <stop offset="0.833333" stop-color="#FFB719"/>
        <stop offset="1" stop-color="#D153D1"/>
      </linearGradient>
      <linearGradient id="paint25_linear_1439_34584" x1="101.501" y1="60.194" x2="51.88" y2="-12.6655" gradientUnits="userSpaceOnUse">
        <stop stop-color="#44FFF9"/>
        <stop offset="0.166667" stop-color="#7188FF"/>
        <stop offset="0.511814" stop-color="#FF5178"/>
        <stop offset="0.833333" stop-color="#FFB719"/>
        <stop offset="1" stop-color="#D153D1"/>
      </linearGradient>
      <linearGradient id="paint26_linear_1439_34584" x1="68.7362" y1="30.4658" x2="20.5124" y2="19.921" gradientUnits="userSpaceOnUse">
        <stop stop-color="#44FFF9"/>
        <stop offset="0.166667" stop-color="#7188FF"/>
        <stop offset="0.511814" stop-color="#FF5178"/>
        <stop offset="0.833333" stop-color="#FFB719"/>
        <stop offset="1" stop-color="#D153D1"/>
      </linearGradient>
      <linearGradient id="paint27_linear_1439_34584" x1="42.9974" y1="26.1931" x2="47.44" y2="25.0669" gradientUnits="userSpaceOnUse">
        <stop stop-color="#44FFF9"/>
        <stop offset="0.166667" stop-color="#7188FF"/>
        <stop offset="0.511814" stop-color="#FF5178"/>
        <stop offset="0.833333" stop-color="#FFB719"/>
        <stop offset="1" stop-color="#D153D1"/>
      </linearGradient>
      <clipPath id="clip0_1439_34584">
        <rect width="375" height="120" fill="white"/>
      </clipPath>
    </defs>
  </svg>