<svg width="25px" viewBox="0 0 673 673" fill="none" xmlns="http://www.w3.org/2000/svg" height="25px">
    <circle cx="336.5" cy="336.5" r="336.5" fill="#111820"/>
    <g clip-path="url(#clip0_21631_2528)">
      <path d="M274.905 118.5C259.879 118.5 248.261 122.232 239.379 128.14C230.529 134.027 224.746 141.84 220.982 149.483C217.397 156.762 215.597 163.975 214.685 169.48C180.349 170.832 152.914 199.165 152.914 233.902C152.914 250.977 159.543 266.505 170.362 278.041C143.818 284.231 124.087 308.05 124.087 336.554C124.087 364.981 143.71 388.748 170.145 395.016C159.497 406.52 152.986 421.923 152.986 438.844C152.986 473.583 180.421 501.917 214.757 503.267C215.669 508.773 217.469 515.986 221.054 523.264C224.818 530.908 230.601 538.721 239.451 544.607C248.332 550.516 259.951 554.247 274.977 554.247C289.926 554.247 301.547 550.794 310.505 545.324C319.451 539.864 325.421 532.59 329.385 525.414C333.332 518.271 335.313 511.184 336.316 505.925C336.821 503.284 337.083 501.067 337.221 499.487C337.29 498.695 337.328 498.061 337.349 497.608C337.36 497.383 337.366 497.202 337.369 497.068C337.372 497.002 337.373 496.948 337.373 496.906L337.375 496.819V448.642H375.475C382.203 448.642 387.623 454.115 387.623 460.816V497.402C375.735 500.065 366.848 510.7 366.848 523.416C366.848 538.136 378.757 550.069 393.446 550.069C408.134 550.069 420.043 538.136 420.043 523.416C420.043 510.649 411.086 499.977 399.124 497.37V460.816C399.124 447.781 388.585 437.115 375.475 437.115H330.011H329.972H329.847H325.873V437.266C316.776 437.935 307.333 440.952 299.817 448.075C291.088 456.344 285.832 469.315 285.832 487.902C285.832 491.085 288.407 493.664 291.583 493.664C294.759 493.664 297.335 491.085 297.335 487.902C297.335 471.481 301.926 461.939 307.719 456.45C312.622 451.802 319.007 449.471 325.873 448.829V496.713L325.872 496.754C325.87 496.816 325.866 496.927 325.86 497.079C325.845 497.384 325.818 497.859 325.764 498.483C325.655 499.731 325.439 501.556 325.019 503.763C324.173 508.2 322.521 514.045 319.324 519.832C316.143 525.587 311.463 531.245 304.523 535.483C297.595 539.711 288.101 542.722 274.977 542.722C261.932 542.722 252.586 539.512 245.812 535.005C239.006 530.478 234.442 524.405 231.368 518.165C228.282 511.897 226.75 505.558 226 500.735C225.627 498.339 225.453 496.353 225.372 494.991C225.332 494.309 225.315 493.786 225.308 493.448C225.304 493.28 225.303 493.158 225.303 493.086V493.038V493.012L225.304 492.982V492.946C225.304 433.248 271.099 392.598 316.815 392.598H446.859C452.5 392.598 457.081 397.027 457.342 402.614C445.134 405.032 435.93 415.819 435.93 428.761C435.93 443.481 447.839 455.415 462.528 455.415C477.218 455.415 489.127 443.481 489.127 428.761C489.127 416.223 480.491 405.708 468.853 402.865C468.72 390.793 458.936 381.073 446.859 381.073H316.815C264.815 381.073 214.454 426.563 213.808 491.677C186.274 489.862 164.488 466.896 164.488 438.844C164.488 409.611 188.152 385.899 217.324 385.899C219.128 385.899 220.846 385.965 222.512 386.151C225.669 386.503 228.512 384.222 228.863 381.061C229.214 377.897 226.939 375.047 223.782 374.697C221.567 374.45 219.402 374.373 217.324 374.373C204.213 374.373 192.017 378.305 181.845 385.057C156.068 383.911 135.589 362.674 135.589 336.554C135.589 310.284 156.306 288.95 182.295 288.032C192.36 294.575 204.365 298.376 217.252 298.376C219.33 298.376 221.495 298.299 223.71 298.051C226.867 297.699 229.142 294.851 228.791 291.688C228.44 288.523 225.597 286.244 222.44 286.596C220.774 286.781 219.056 286.849 217.252 286.849C188.08 286.849 164.416 263.136 164.416 233.902C164.416 205.853 186.201 182.885 213.736 181.071C214.382 246.185 264.743 291.676 316.743 291.676H446.857C458.918 291.676 468.69 281.983 468.853 269.936C480.453 267.068 489.056 256.57 489.056 244.059C489.056 229.339 477.147 217.406 462.459 217.406C447.768 217.406 435.86 229.339 435.86 244.059C435.86 257.024 445.097 267.827 457.336 270.219C457.034 275.767 452.471 280.149 446.857 280.149H316.743C271.027 280.149 225.232 239.5 225.232 179.803V179.766L225.231 179.741V179.715V179.663C225.232 179.591 225.232 179.468 225.236 179.299C225.243 178.961 225.26 178.439 225.3 177.758C225.381 176.395 225.555 174.41 225.928 172.012C226.678 167.189 228.21 160.851 231.296 154.584C234.37 148.342 238.934 142.269 245.74 137.742C252.514 133.236 261.86 130.026 274.905 130.026C288.028 130.026 297.523 133.037 304.451 137.266C311.391 141.504 316.071 147.159 319.251 152.916C322.448 158.702 324.101 164.547 324.947 168.985C325.367 171.192 325.582 173.017 325.691 174.265C325.747 174.888 325.773 175.364 325.788 175.669C325.794 175.821 325.798 175.931 325.8 175.994L325.801 176.035V223.918C318.935 223.277 312.55 220.943 307.647 216.298C301.854 210.808 297.261 201.266 297.261 184.845C297.261 181.662 294.687 179.082 291.51 179.082C288.335 179.082 285.76 181.662 285.76 184.845C285.76 203.434 291.016 216.403 299.745 224.672C307.262 231.795 316.704 234.812 325.801 235.482V235.703H375.403C388.513 235.703 399.052 225.04 399.052 212.003V175.376C411.015 172.769 419.973 162.098 419.973 149.332C419.973 134.611 408.065 122.678 393.375 122.678C378.685 122.678 366.776 134.611 366.776 149.332C366.776 162.047 375.663 172.683 387.551 175.344V212.003C387.551 218.704 382.131 224.177 375.403 224.177H337.302L337.301 175.842C337.301 175.8 337.298 175.746 337.296 175.68C337.293 175.547 337.287 175.366 337.277 175.139C337.256 174.687 337.218 174.052 337.149 173.261C337.011 171.68 336.749 169.464 336.244 166.822C335.241 161.562 333.26 154.477 329.315 147.333C325.349 140.158 319.378 132.883 310.434 127.423C301.475 121.954 289.854 118.5 274.905 118.5Z" fill="url(#paint0_linear_21631_2528)"/>
      <path d="M245.673 292.454C248.849 292.454 251.424 295.035 251.424 298.218C251.424 304.623 254.394 312.317 259.628 318.438C264.825 324.516 271.684 328.4 279.029 328.4C279.338 328.4 279.644 328.425 279.94 328.472H367.274C370.01 316.668 380.572 307.87 393.184 307.87C405.797 307.87 416.36 316.668 419.095 328.472H501.127C503.862 316.668 514.424 307.87 527.038 307.87C541.726 307.87 553.635 319.803 553.635 334.523C553.635 349.243 541.726 361.178 527.038 361.178C514.221 361.178 503.521 352.092 501.001 339.997H419.221C416.701 352.092 406.001 361.178 393.184 361.178C380.367 361.178 369.667 352.092 367.147 339.997H279.029V339.926C278.621 339.926 278.217 339.919 277.815 339.904C277.647 339.919 277.476 339.926 277.303 339.926C269.959 339.926 263.1 343.811 257.902 349.888C252.669 356.009 249.699 363.707 249.699 370.11C249.699 373.293 247.124 375.872 243.948 375.872C240.771 375.872 238.197 373.293 238.197 370.11C238.197 360.522 242.451 350.245 249.169 342.389C252.048 339.021 255.485 335.983 259.377 333.604C256.189 331.423 253.341 328.798 250.894 325.937C244.177 318.083 239.922 307.804 239.922 298.218C239.922 295.035 242.497 292.454 245.673 292.454Z" fill="url(#paint1_linear_21631_2528)"/>
    </g>
    <defs>
      <linearGradient id="paint0_linear_21631_2528" x1="124.087" y1="336.374" x2="553.682" y2="336.374" gradientUnits="userSpaceOnUse">
        <stop stop-color="#59EECA"/>
        <stop offset="1" stop-color="#59D3EE"/>
      </linearGradient>
      <linearGradient id="paint1_linear_21631_2528" x1="124.041" y1="336.072" x2="553.635" y2="336.072" gradientUnits="userSpaceOnUse">
        <stop stop-color="#59EECA"/>
        <stop offset="1" stop-color="#59D3EE"/>
      </linearGradient>
      <clipPath id="clip0_21631_2528">
        <rect width="436" height="436" fill="white" transform="translate(123.5 118.5)"/>
      </clipPath>
    </defs>
  </svg>