<svg xmlns="http://www.w3.org/2000/svg" viewBox="0 0 24 24" fill="none" width="25px" height="25px">

      <path d="M6.99997 5.54827L7.76988 4.67214C8.55742 3.77595 9.94175 3.77596 10.7293 4.67215L15.9994 10.6696C16.6662 11.4283 16.6662 12.5717 15.9994 13.3304L10.7293 19.3278C9.94175 20.224 8.55742 20.2241 7.76988 19.3279L7.00016 18.4519" stroke="url(#gradient_icon_gold_orange_0)" stroke-width="1.5" stroke-linecap="round" stroke-linejoin="round" />
      <path d="M14 4.14852C14.7497 3.83887 15.651 4.01341 16.2299 4.67215L21.5001 10.6696C22.1668 11.4283 22.1668 12.5717 21.5001 13.3304L16.2299 19.3278C15.651 19.9866 14.7497 20.1611 14 19.8515" stroke="url(#gradient_icon_gold_orange_0)" stroke-width="1.5" stroke-linecap="round" stroke-linejoin="round" />
      <path d="M5.5 15.5L5.5 8.5M2 12H9" stroke="url(#gradient_icon_gold_orange_0)" stroke-width="1.5" stroke-linecap="round" stroke-linejoin="round" />

<!--      <path d="M5 15V9M2 12H8" stroke="url(#gradient_icon_gold_orange_0)" stroke-width="1.5" stroke-linecap="round" stroke-linejoin="round"/>-->
<!--      <path d="M6.49995 5.68664C7.25374 4.77112 8.67008 4.77112 9.42388 5.68664L13.5319 10.676C14.156 11.434 14.156 12.566 13.5319 13.324L9.42388 18.3134C8.67008 19.2289 7.25374 19.2289 6.49995 18.3134" stroke="url(#gradient_icon_gold_orange_0)" stroke-width="1.5" stroke-linecap="round" stroke-linejoin="round" />-->
<!--      <path d="M17 19L21.5513 13.3016C22.1496 12.5526 22.1496 11.4474 21.5513 10.6984L17 5" stroke="url(#gradient_icon_gold_orange_0)" stroke-width="1.5" stroke-linecap="round" stroke-linejoin="round" />-->
<!--      <path d="M13 19L17.5513 13.3016C18.1496 12.5526 18.1496 11.4474 17.5513 10.6984L13 5" stroke="url(#gradient_icon_gold_orange_0)" stroke-width="1.5" stroke-linecap="round" stroke-linejoin="round"/>-->

  </svg>