<svg width="25px" version="1.1" viewBox="0 0 168.28 160.4" xml:space="preserve" xmlns="http://www.w3.org/2000/svg" height="25px">
    <g transform="translate(-185.22 -767)">
	<path class="st0" fill="#DBE1F9" d="m329 914.3c0-7.2-27.5-13.1-61.4-13.1s-61.4 5.9-61.4 13.1 27.5 13.1 61.4 13.1c34 0 61.4-5.8 61.4-13.1z"/>
      <path class="st1" fill="#7F8CFF" d="m352.4 837.4c-0.3 1-0.6 2-1 3-1.1 2.9-2.3 5.8-3.6 8.7-0.3 0.6-0.6 1.3-0.9 1.9-2 4.3-4.2 8.4-6.4 12.5l-1.5 2.7c-3.7 6.7-7.6 13.3-11.8 19.8-2.8 4.4-5.6 8.7-8.7 12.9-1.1 1.5-2.3 3-3.5 4.5-0.2 0.2-0.4 0.5-0.6 0.7-1.5 1.8-3.1 3.7-4.9 5.2-1.9 1.6-4.2 2.6-6.5 3.5-7.8 3.1-16.3 4.2-24.6 4.6-11.4 0.6-22.9-0.1-34-2.5-4.3-1-8.6-2.2-12.7-4-0.4-0.2-0.7-0.4-1.1-0.6-0.2-0.1-0.4-0.2-0.5-0.3-0.4-0.2-0.7-0.5-1-0.7-0.1-0.1-0.3-0.2-0.4-0.4l-0.1-0.1c-0.3-0.2-0.6-0.5-0.8-0.7-0.7-0.6-1.3-1.3-1.9-2l-1.5-1.8-0.1-0.1c-0.1-0.1-0.2-0.3-0.4-0.5l-0.3-0.3c-0.1-0.1-0.2-0.2-0.3-0.4-0.1-0.1-0.2-0.2-0.3-0.4-0.2-0.3-0.4-0.5-0.5-0.6 0-0.1-0.1-0.1-0.1-0.1-2.7-3.4-5.3-7-7.7-10.7-0.2-0.3-0.4-0.7-0.6-1-2.4-3.7-4.7-7.4-6.9-11.1-2.3-3.9-4.6-7.8-6.8-11.8-2.5-4.6-5-9.2-7.2-14-0.6-1.2-1.2-2.4-1.7-3.7-1.1-2.4-2.1-4.8-3.1-7.2-0.9-2.3-1.8-4.7-2.3-7.2 0.8 1.9 2.5 3.4 4 4.6 2 1.6 4.1 2.8 6.3 4.1 7.2 4.1 15.2 6.5 23.2 8.5 4.2 1.1 8.4 2.1 12.8 2.7 17.7 2.5 35.5 4 53.4 3.5 14.9-0.5 30.4-1.7 44.5-6.8 3.4-1.2 6.8-2.7 10-4.4 3.1-1.7 6.4-3.6 9.1-6.1 0.8-0.9 2.1-2.3 3-3.9z"/>
      <path class="st2" fill="#525FFF" d="m347.9 849.1c-0.3 0.6-0.6 1.3-0.9 1.9-2 4.3-4.2 8.4-6.4 12.5l-1.5 2.7c-3.7 6.7-7.6 13.4-11.8 19.8-2.8 4.4-5.6 8.7-8.7 12.9-1.1 1.5-2.3 3-3.5 4.5-0.2 0.2-0.4 0.5-0.6 0.7-1.5 1.8-3.1 3.7-4.9 5.2-1.9 1.6-4.2 2.6-6.5 3.5-7.8 3.1-16.3 4.2-24.6 4.7-11.4 0.6-22.9-0.1-34-2.5-4.3-1-8.7-2.2-12.7-4-0.4-0.2-0.7-0.4-1.1-0.6-0.2-0.1-0.4-0.2-0.5-0.3-0.3-0.2-0.7-0.5-1-0.7-0.1-0.1-0.3-0.2-0.4-0.4l-0.1-0.1c-0.3-0.2-0.5-0.5-0.8-0.7-0.7-0.6-1.3-1.3-1.9-2l-1.5-1.8-0.1-0.1c-0.1-0.1-0.2-0.3-0.4-0.5-0.1-0.1-0.2-0.2-0.3-0.4-0.1-0.1-0.2-0.2-0.3-0.4-0.1-0.1-0.2-0.2-0.3-0.4-0.2-0.3-0.4-0.5-0.5-0.6l-0.1-0.1c57.5-3.3 113.4-34.3 125.4-52.8z"/>
      <path class="st3" fill="#9CACFF" d="m352.4 837.4c-0.3 1-0.4 2.1-1 3-12 17.8-42.1 27.1-83.5 30.7-30.1 2.6-56.8 0.9-67.7-3.6-2.5-4.6-5-9.2-7.2-14-0.6-1.2-1.2-2.4-1.7-3.7-1.1-2.4-2.1-4.8-3.1-7.2-0.9-2.3-1.8-4.7-2.3-7.2 0.8 1.9 2.5 3.4 4 4.6 2 1.6 4.1 2.8 6.3 4.1 7.2 4.1 15.2 6.5 23.2 8.5 4.2 1.1 8.4 2.1 12.8 2.7 17.7 2.5 35.5 4 53.4 3.5 14.9-0.5 30.4-1.7 44.5-6.8 3.4-1.2 6.8-2.7 10-4.4 3.1-1.7 6.4-3.6 9.1-6.1 1-1.1 2.3-2.6 3.2-4.1z"/>
      <path class="st4" fill="#1739DB" d="m353.4 835c-0.2 0.8-0.5 1.6-1 2.4-0.9 1.5-2.2 2.9-3.4 4-2.7 2.4-5.9 4.4-9.1 6.1s-6.6 3.2-10 4.4c-14.1 5-29.6 6.3-44.5 6.8-17.9 0.5-35.7-0.9-53.4-3.5-4.3-0.6-8.5-1.6-12.8-2.7-8-2-16-4.4-23.2-8.5-2.2-1.2-4.3-2.5-6.3-4.1-1.6-1.2-3.2-2.7-4-4.6-0.1-0.3-0.3-0.6-0.3-1-1.3-5 4.8-7.9 8.5-9.6 5.2-2.4 10.9-4 16.5-5.3 15.3-3.5 31.2-4.9 47-5.2 16-0.3 32.1 0.6 48 2.4 9.8 1.1 19.7 2.6 29.2 5.4 5 1.5 10.2 3.2 14.5 6.3 1.8 1.3 4 3.1 4.4 5.5 0 0.4 0 0.8-0.1 1.2z"/>
      <path class="st5" fill="#FFFFFF" d="m320.6 823.6c10.1 2 21.6 5.5 25.9 9.5 3.7 3.4-4 8.1-10.8 10.7-23.6 9.2-42.5 11.3-67.6 10.8-16-0.4-39.1-4.4-50.4-7-10.4-2.4-25.8-9.1-26.2-14.6 0.4-5.3 23.6-11.9 41.6-13.7 21.7-2.1 49.1-3.4 87.5 4.3z"/>
      <path class="st2" fill="#525FFF" d="m193.7 850.6c6.3 4.1 13.7 6.5 20.7 9.1 0.9 0.3 1.3-1.1 0.4-1.4-7-2.5-14.1-4.8-20.4-8.9-0.8-0.6-1.6 0.7-0.7 1.2z"/>
      <path class="st2" fill="#525FFF" d="m197.8 859.7c11.8 5.9 25 9.5 38.1 11.3 0.9 0.1 1.4-1.3 0.4-1.4-12.9-1.7-26-5.3-37.7-11.1-0.9-0.6-1.6 0.7-0.8 1.2z"/>
      <path class="st2" fill="#525FFF" d="m220.6 861.3c6.2 1.5 12.4 2.7 18.7 3.6 0.9 0.1 1.4-1.3 0.4-1.4-6.3-0.9-12.5-2-18.7-3.6-0.9-0.3-1.3 1.2-0.4 1.4z"/>
      <path class="st1" fill="#7F8CFF" d="m270 825.1 0.9-0.6c0.1-0.1 0.3-0.2 0.4-0.3s0.2-0.3 0.2-0.4c0.1-0.2 0.1-0.3 0-0.5 0-0.2-0.1-0.3-0.1-0.5-0.1-0.1-0.1-0.2-0.2-0.3-0.2-0.2-0.3-0.3-0.6-0.3h-0.3c-0.2 0-0.4 0.1-0.6 0.2l-0.9 0.6c-0.1 0.1-0.3 0.2-0.4 0.3s-0.2 0.3-0.2 0.4c-0.1 0.2-0.1 0.3 0 0.5 0 0.2 0.1 0.3 0.1 0.5 0.1 0.1 0.1 0.2 0.2 0.3 0.2 0.2 0.3 0.3 0.6 0.3h0.3c0.2-0.1 0.4-0.1 0.6-0.2z"/>
      <path class="st1" fill="#7F8CFF" d="m275.3 829 0.9-0.6c0.1-0.1 0.3-0.2 0.4-0.3s0.2-0.3 0.2-0.4c0.1-0.2 0.1-0.3 0-0.5 0-0.2-0.1-0.3-0.1-0.5-0.1-0.1-0.1-0.2-0.2-0.3-0.2-0.2-0.3-0.3-0.6-0.3h-0.3c-0.2 0-0.4 0.1-0.6 0.2l-0.9 0.6c-0.1 0.1-0.3 0.2-0.4 0.3s-0.2 0.3-0.2 0.4c-0.1 0.2-0.1 0.3 0 0.5 0 0.2 0.1 0.3 0.1 0.5 0.1 0.1 0.1 0.2 0.2 0.3 0.2 0.2 0.3 0.3 0.6 0.3h0.3c0.2 0 0.4-0.1 0.6-0.2z"/>
      <path class="st1" fill="#7F8CFF" d="m301.7 838.1 0.9-0.6c0.1-0.1 0.3-0.2 0.4-0.3s0.2-0.3 0.2-0.4c0.1-0.2 0.1-0.3 0-0.5 0-0.2-0.1-0.3-0.1-0.5-0.1-0.1-0.1-0.2-0.2-0.3-0.2-0.2-0.3-0.3-0.6-0.3h-0.3c-0.2 0-0.4 0.1-0.6 0.2l-0.9 0.6c-0.1 0.1-0.3 0.2-0.4 0.3s-0.2 0.3-0.2 0.4c-0.1 0.2-0.1 0.3 0 0.5 0 0.2 0.1 0.3 0.1 0.5 0.1 0.1 0.1 0.2 0.2 0.3 0.2 0.2 0.3 0.3 0.6 0.3h0.3c0.2 0 0.5-0.1 0.6-0.2z"/>
      <path class="st1" fill="#7F8CFF" d="m304.7 841.9 0.9-0.6c0.1-0.1 0.3-0.2 0.4-0.3s0.2-0.3 0.2-0.4c0.1-0.2 0.1-0.3 0-0.5 0-0.2-0.1-0.3-0.1-0.5-0.1-0.1-0.1-0.2-0.2-0.3-0.2-0.2-0.3-0.3-0.6-0.3h-0.3c-0.2 0-0.4 0.1-0.6 0.2l-0.9 0.6c-0.1 0.1-0.3 0.2-0.4 0.3s-0.2 0.3-0.2 0.4c-0.1 0.2-0.1 0.3 0 0.5 0 0.2 0.1 0.3 0.1 0.5 0.1 0.1 0.1 0.2 0.2 0.3 0.2 0.2 0.3 0.3 0.6 0.3h0.3c0.2 0 0.4-0.1 0.6-0.2z"/>
      <path class="st6" fill="#F89B00" d="m237.3 780.4c-0.9-1.7-1.9-3.4-2.8-5.1-0.3-0.6-1.2-0.8-1.7-0.4-0.6 0.4-0.8 1.1-0.4 1.7 0.9 1.7 1.9 3.4 2.8 5.1 0.3 0.6 1.2 0.8 1.7 0.4s0.7-1.1 0.4-1.7z"/>
      <path class="st6" fill="#F89B00" d="m243.9 776.9-0.3-4.8c0-0.7-0.5-1.3-1.2-1.2-0.6 0-1.3 0.6-1.2 1.2l0.3 4.8c0 0.7 0.5 1.3 1.2 1.2 0.6 0 1.2-0.5 1.2-1.2z"/>
      <path class="st6" fill="#F89B00" d="m232.8 785.1c-2.1-0.9-4.2-1.6-6.4-2-0.6-0.1-1.4 0.2-1.5 0.9-0.1 0.6 0.2 1.4 0.9 1.5 1 0.2 2.1 0.4 3.1 0.7 0.5 0.1 1 0.3 1.5 0.5 0.3 0.1 0.5 0.2 0.8 0.3 0.1 0 0.2 0.1 0.3 0.1 0 0 0.5 0.2 0.2 0.1 0.3 0.1 0.6 0.2 1 0.1 0.3-0.1 0.6-0.3 0.7-0.6 0.1-0.5 0-1.4-0.6-1.6z"/>
      <path class="st7" fill="#FFE1A0" d="m281.1 839.9c-0.4 1.2-1.1 2.3-2.1 3.1-2.7 2.2-6.6 2-9.9 1.8-0.8-0.1-1.8-0.1-2.7-0.4-0.3-0.1-0.6-0.3-0.8-0.5-0.9-0.8-0.6-2-0.1-2.8l0.3-0.3c0.5-0.6 1.2-0.9 1.9-1.3 0.6-0.4 1-0.9 1.5-1.4 1.1-1.2 2.4-2.4 3.8-3.1 0.8-0.4 1.5-0.6 2.4-0.7 0.8-0.1 1.7 0.1 2.5 0.3 1.2 0.2 2.4 0.5 3.1 1.6 0.1 0.1 0.1 0.2 0.2 0.3 0.4 1 0.2 2.4-0.1 3.4z"/>
      <path class="st8" fill="#EEBE6D" d="m281.1 839.9c-0.4 1.2-1.1 2.3-2.1 3.1-2.7 2.2-6.6 2-9.9 1.8-0.8-0.1-1.8-0.1-2.7-0.4 7.3-1.9 9-7 14.8-8 0.4 1.1 0.2 2.5-0.1 3.5z"/>
      <path class="st7" fill="#FFE1A0" d="m284.9 843.3c0.4 1.2 1.1 2.3 2.1 3.1 2.7 2.2 6.6 2 9.9 1.8 0.8-0.1 1.8-0.1 2.7-0.4 0.3-0.1 0.6-0.3 0.8-0.5 0.9-0.8 0.6-2 0.1-2.8l-0.3-0.3c-0.5-0.6-1.2-0.9-1.9-1.3-0.6-0.4-1-0.9-1.5-1.4-1.1-1.2-2.4-2.4-3.8-3.1-0.8-0.4-1.5-0.6-2.4-0.7-0.8-0.1-1.7 0.1-2.5 0.3-1.2 0.2-2.4 0.5-3.1 1.6-0.1 0.1-0.1 0.2-0.2 0.3-0.4 1-0.2 2.4 0.1 3.4z"/>
      <path class="st8" fill="#EEBE6D" d="m284.9 843.3c0.4 1.2 1.1 2.3 2.1 3.1 2.7 2.2 6.6 2 9.9 1.8 0.8-0.1 1.8-0.1 2.7-0.4-7.3-1.9-9-7-14.8-8-0.4 1.1-0.2 2.5 0.1 3.5z"/>
      <path class="st9" fill="#6FC7FF" d="m289.3 782.2c-0.1-1.3-0.5-2.5-1-3.6-0.7-1.7-1.5-3.4-2.3-5-1.1-2-2.2-4-3.4-6-0.5-0.8-1.7-0.8-2.2 0-2.2 3.5-4.2 7.1-5.7 11-1 2.5-1.4 4.8-0.2 7.3 1.4 3 4.8 4.8 8.1 4.4 3.9-0.5 6.7-3.9 6.8-7.7 0-0.2 0-0.3-0.1-0.4z"/>
      <path class="st10" fill="#007FBB" d="m284.3 782.9v0.5-0.3c0 0.3-0.1 0.6-0.3 0.9 0-0.1 0.1-0.2 0.1-0.3-0.1 0.3-0.3 0.6-0.5 0.9 0.1-0.1 0.1-0.2 0.2-0.3-0.2 0.3-0.4 0.5-0.7 0.7 0.1-0.1 0.2-0.1 0.3-0.2-0.3 0.2-0.6 0.4-0.9 0.5 0.1 0 0.2-0.1 0.3-0.1-0.3 0.1-0.6 0.2-0.9 0.3h0.3-0.5c-0.7 0-1.3 0.6-1.2 1.2 0 0.7 0.5 1.3 1.2 1.2 1.3 0 2.6-0.5 3.6-1.5 0.9-0.9 1.5-2.2 1.5-3.6 0-0.7-0.6-1.3-1.2-1.2-0.8 0.1-1.3 0.6-1.3 1.3z"/>
      <path class="st11" fill="#FF4852" d="m345.1 817.9c-0.6 3.3-1.9 6.8-4.1 9.3-7.4 8.7-14.9 13.3-25.6 15-0.4 0.1-0.7 0.1-1 0.1h-0.5c-0.2 0-0.3-0.1-0.4-0.1-0.2-0.1-0.5-0.2-0.6-0.3-0.3-0.2-0.5-0.5-0.5-0.5-2.6-7.3-3.3-15.4-1.9-23 0.6-3.8 1.8-7.7 4.2-10.7 1.8-2.3 4.3-4.1 7-4.8 1-0.2 2-0.4 3-0.3h0.3c1.8 0.1 3.5 0.7 5.1 1.4 1.8 0.8 3.6 1.7 5.5 2.3 2.2 0.7 4.6 1 6.5 2.4 1.4 1 2.4 2.5 2.9 4.2 0.1 0.2 0.1 0.5 0.2 0.7s0.1 0.5 0.1 0.7 0.1 0.4 0.1 0.5c-0.1 1.2-0.1 2.2-0.3 3.1z"/>
      <path class="st11" fill="#FF4852" d="m229.9 827.2c0.8 1.2 1.1 3.4 0.3 4.7s-2.8 2.7-4.5 2.1c-0.1 1.6-1.2 5.2-4.4 5.7-1.6 0.2-3.1-0.3-4.3-1.3-1.1 1.3-3.4 1.3-5.4 0.4-1.1-0.5-3.7-3-3.2-5.5-1.3 1.3-4.3 1.1-5.9-0.1-1.3-1-1.6-3.3-1.3-4.7 0.4-1.6 1.2-2.7 2.4-3.4l-0.3-0.1s-0.6-0.9-0.6-2.2c0-0.3 0-0.7 0.1-1 1.9-0.2 3.8-0.6 5.5-1.3 4-1.8 6.6-5.1 8.2-9 0.5-1 0.8-2.1 1.2-3.1 0.2-0.6 0.3-1.2 0.4-1.8 0.2-0.1 0.5-0.2 0.7-0.3 1.2-0.4 2.6-0.3 3.7-0.1 2.1 0.4 3.3 2.9 2.9 5 2-0.9 5-0.2 6.2 1.7 1.1 1.9 0.5 4.7-1.3 6 0.9-0.2 3.4 0.7 4 2.3 1.3 3.3-1.6 6.9-4.4 6z"/>
      <path class="st12" fill="#FF323F" d="m229.9 827.2c0.9 1.3 1.1 3.4 0.3 4.7s-2.8 2.7-4.5 2.1c-0.1 1.6-1.2 5.2-4.5 5.7-1.5 0.2-3.1-0.3-4.3-1.3 0.6-0.8 1.3-1.4 2.1-2 0.4-0.3 0.8-0.6 0.9-1 0.3-0.7-0.1-1.4-0.1-2.2 0-1.5 1.3-2.5 2.5-3.3s2.6-1.8 2.8-3.2c0.1-1.3-0.8-2.5-1.6-3.5s-1.6-2.4-1-3.6c0.4-0.8 1.2-1.3 1.6-2.2 0.4-1 0-2.1-0.8-2.8s-1.8-1.1-2.8-1.3c-1-0.3-2-0.5-3-0.9-0.4-0.2-0.9-0.5-1.2-0.9 0.5-1 0.8-2.1 1.2-3.1 0.2-0.6 0.3-1.2 0.4-1.8 1.4-0.7 3-0.6 4.4-0.3 2.1 0.4 3.3 2.9 2.9 5 2-0.9 5-0.2 6.2 1.7 1.1 1.9 0.5 4.7-1.3 6 0.9-0.2 3.4 0.7 4 2.3 1.5 3.2-1.4 6.8-4.2 5.9z"/>
      <path class="st13" fill="#EA0000" d="m221.6 823.9c-0.5-1.1-1.3-2-2.4-2.6-1.2-0.7-2.6-0.8-4-0.4-0.1 0-0.2 0.1-0.3 0.1-2.2 1-3.8 3.4-3.8 5.8-0.1 2.4 1.3 4.8 3.5 5.9 2.4 1.2 5.6 0.8 7.2-1.6 0.7-1 0.8-2.5 0.8-3.7-0.1-1.1-0.4-2.3-1-3.5zm-1.7 5.5c-0.2 0.6-0.7 1.1-1.3 1.4-0.8 0.3-1.7 0.3-2.4 0-1.4-0.6-2.4-2.1-2.5-3.5-0.1-0.9 0.2-1.7 0.6-2.5 0.4-0.7 1-1.2 1.8-1.5 0.7-0.2 1.3-0.1 1.8 0.1 0.6 0.3 1 0.7 1.3 1.3 0.8 1.3 1.1 3.2 0.7 4.7z"/>
      <path class="st13" fill="#EA0000" d="m219.7 819.3c0-0.1 0.1-0.2 0.2-0.3-0.2 0.3 0 0 0.1-0.1l0.1-0.1c-0.1 0.1-0.1 0.1 0 0s0.2-0.1 0.4-0.2c0.1 0 0.1-0.1 0.2-0.1-0.1 0.1-0.1 0.1 0 0 0.2 0 0.3-0.1 0.5-0.1 0 0 0.5-0.1 0.3-0.1h0.4c0.7 0 1.3 0.1 1.9 0.4 0.3 0.1 0.5 0.3 0.8 0.5 0.1 0.1 0.1 0.1 0 0 0.1 0 0.1 0.1 0.2 0.1l0.6 0.6c-0.2-0.2 0.1 0.2 0.1 0.2 0.1 0.1 0.2 0.3 0.2 0.4 0 0 0.2 0.5 0.1 0.2 0.1 0.3 0.2 0.5 0.2 0.8v0.2 0.4c0 0.1-0.1 0.4 0 0.2 0 0.1-0.1 0.3-0.1 0.4s-0.1 0.3-0.1 0.4c-0.1 0.1-0.1 0.1 0 0 0 0.1-0.1 0.1-0.1 0.2-0.1 0.1-0.1 0.2-0.2 0.4-0.1 0.1-0.1 0.1 0 0l-0.2 0.2c0.1-0.1 0.1-0.1 0 0s-0.2 0.1-0.3 0.2c-0.6 0.3-0.8 1.2-0.4 1.7 0.4 0.6 1.1 0.7 1.7 0.4 1.1-0.5 1.8-1.7 2.1-2.9 0.3-1.3 0.2-2.6-0.3-3.8-1.1-2.7-4.2-4.1-7-3.7-1.3 0.2-2.8 0.9-3.4 2.1-0.3 0.6-0.2 1.4 0.4 1.7 0.4 0.5 1.3 0.3 1.6-0.3z"/>
      <path class="st13" fill="#EA0000" d="m218.8 806.2c-0.1 1.3 0 6.3-3.4 11.5-3.4 5.4-10.2 4.8-12.8 5.1 0-0.3 0-0.7 0.1-1 1.9-0.2 3.8-0.6 5.5-1.3 5.1-2.2 7.8-7 9.4-12.1 0.2-0.6 0.3-1.2 0.4-1.8 0.4-0.3 0.6-0.4 0.8-0.4z"/>
      <path class="st14" fill="#00D1E4" d="m218.2 806.4c-0.1 0.6-0.3 1.3-0.4 1.8-0.3 1.1-0.7 2.1-1.2 3.1-1.7 3.8-4.2 7.2-8.2 9-1.7 0.8-3.6 1.2-5.5 1.3-1 0.1-2 0.1-3 0.1-3-0.1-5.8-1.2-7.4-3.8-0.9-1.3 0.9-2.3 2-1.5 1.2 0.9 3.4-2.6 4.1-3.1 1-0.8 2.4-1.2 3.7-1.1-0.3-1.2-1.5-2-2.5-3-1.8-1.6-2.8-3.6-2.7-6.1 0-0.7 0.8-1.5 1.6-1.2 2.5 1 5.2 0.5 7.7 1.5 1.1 0.5 2.1 1.1 2.8 2 0.7-0.9 1.6-1.6 2.6-2.4 1.6-1.1 3.1-2.1 3.1-4.2 0-1.3 1.7-1.6 2.3-0.6 1.4 2.4 1.5 5.5 1 8.2z"/>
      <path class="st15" fill="#EF9A3E" d="m264.5 834.8c-0.6 3.2-3 5.6-5.9 7.1-3.1 1.7-6.5 2.2-10 1.6-0.2 0-0.4-0.1-0.6-0.1-1.9-0.5-3.6-1.4-5.4-2.2-1.6-0.7-3.3-1.4-5-1.9h0.3c2.4 0.2 4.8 1 7.2 1.2 2.8 0.3 5.6 0.1 8.3-0.8 4.3-1.4 8.8-4.2 10-8.9 0.6-2.2 0.4-4.6-0.7-6.5 0 0 0-0.1-0.1-0.1l0.3 0.3c0.1 0.1 0.1 0.3 0.2 0.4 1.5 3.1 2 6.6 1.4 9.9z"/>
      <path class="st16" fill="#FFC684" d="m263.5 830.9c-1.2 4.7-5.7 7.5-10 8.9-2.7 0.9-5.5 1.1-8.3 0.8-2.4-0.3-4.8-1-7.2-1.2h-0.3c-0.1 0-0.2 0-0.2-0.1-0.1-0.1-0.2-0.1-0.3-0.2h-0.1s-0.1 0-0.1-0.1c0 0 0-0.1-0.1-0.1 0-0.1-0.1-0.1-0.1-0.1-0.1-0.2-0.2-0.4-0.2-0.6v-0.1-0.1-0.1c0.1-0.2 0.2-0.4 0.4-0.6 1-1.1 1.8-2.4 1.9-3.9 0.1-1.4 0-2.9 0.3-4.3 0.5-2.5 1.8-5 3.7-6.8 3.8-3.6 9.2-4.1 14-2.2 2.2 0.9 4.4 2.1 5.7 4.1 0 0 0 0.1 0.1 0.1 1.2 2 1.3 4.4 0.8 6.6z"/>
      <path class="st17" fill="#FFDBB5" d="m253.4 832.8c-2.5 2.6-6.3 1.9-9.5 2.3-0.3 0-0.6-0.1-0.8-0.3l-0.2-0.2c-0.1-0.2-0.2-0.5-0.2-0.7s0.1-0.4 0.2-0.6v-0.1c0.7-1.5 1.4-2.9 2-4.4 0.6-1.3 1.1-2.6 2.2-3.5 1.9-1.6 4.5-1.6 6.5-2.9 0.6-0.4 1.2-0.2 1.6 0.3 0.2 0.2 0.3 0.5 0.3 0.8 0.3 3.2 0.3 6.8-2.1 9.3z"/>
      <path class="st15" fill="#EF9A3E" d="m253.4 832.8c-2.5 2.6-6.3 1.9-9.5 2.3-0.3 0-0.6-0.1-0.8-0.3 0.4-0.7 1.7-1.8 1.7-1.8l10.4-10.3c0.2 0.2 0.3 0.5 0.3 0.8 0.3 3.2 0.3 6.8-2.1 9.3z"/>
      <path class="st12" fill="#FF323F" d="m345.1 817.9c-0.6 3.3-1.9 6.8-4.1 9.3-7.4 8.7-14.9 13.3-25.6 15-0.4 0.1-0.7 0.1-1 0.1h-0.5c-0.2 0-0.3-0.1-0.4-0.1-0.2-0.1-0.5-0.2-0.6-0.3 3.8-2.3 23.3-14.8 19.8-26.3-0.9-2.9-4-3.9-6.5-5.8-3.7-2.9-6.8-6.1-4.8-6.8 0.1 0 0.2-0.1 0.3-0.1 1-0.2 2-0.4 3-0.3h0.3c1.8 0.1 3.5 0.7 5.1 1.4 1.8 0.8 3.6 1.7 5.5 2.3 2.2 0.7 4.6 1 6.5 2.4 1.4 1 2.4 2.5 2.9 4.2v0.1c0.1 0.2 0.1 0.4 0.2 0.6s0.1 0.5 0.1 0.7 0.1 0.4 0.1 0.5c-0.1 1.2-0.1 2.2-0.3 3.1z"/>
      <path class="st13" fill="#EA0000" d="m322.4 812.9c0.1-0.3 0.1-0.5 0.2-0.8 0.1-0.2 0.1-0.3 0-0.5 0-0.2-0.1-0.3-0.1-0.5-0.1-0.1-0.2-0.3-0.3-0.4s-0.3-0.2-0.4-0.2h-0.3c-0.2 0-0.4 0.1-0.6 0.2-0.1 0.1-0.2 0.1-0.3 0.2-0.2 0.2-0.3 0.3-0.3 0.6-0.1 0.3-0.1 0.5-0.2 0.8-0.1 0.2-0.1 0.3 0 0.5 0 0.2 0.1 0.3 0.1 0.5 0.1 0.1 0.2 0.3 0.3 0.4s0.3 0.2 0.4 0.2h0.3c0.2 0 0.4-0.1 0.6-0.2 0.1-0.1 0.2-0.1 0.3-0.2 0.2-0.2 0.3-0.4 0.3-0.6z"/>
      <path class="st13" fill="#EA0000" d="m332.6 817.8c0.4-0.5 0.7-1 1.1-1.5 0.1-0.1 0.1-0.3 0.1-0.5v-0.5c0-0.2-0.1-0.3-0.2-0.4s-0.2-0.2-0.4-0.3c-0.3-0.2-0.6-0.2-1-0.1-0.1 0-0.2 0.1-0.3 0.1-0.2 0.1-0.3 0.3-0.4 0.4-0.4 0.5-0.7 1-1.1 1.5-0.1 0.1-0.1 0.3-0.1 0.5v0.5c0 0.2 0.1 0.3 0.2 0.4s0.2 0.2 0.4 0.3c0.3 0.2 0.6 0.2 1 0.1 0.1 0 0.2-0.1 0.3-0.1l0.4-0.4z"/>
      <path class="st13" fill="#EA0000" d="m324.5 820c-0.1 0.8-0.3 1.5-0.4 2.3-0.1 0.3-0.1 0.7 0.1 1s0.4 0.5 0.7 0.6 0.7 0.1 1-0.1 0.5-0.4 0.6-0.7c0.1-0.8 0.3-1.5 0.4-2.3 0.1-0.3 0.1-0.7-0.1-1s-0.4-0.5-0.7-0.6-0.7-0.1-1 0.1c-0.3 0.1-0.6 0.4-0.6 0.7z"/>
      <path class="st13" fill="#EA0000" d="m316.3 824c-0.5 0.9-0.9 1.8-1.3 2.8-0.1 0.3 0 0.7 0.1 1 0.2 0.3 0.4 0.5 0.7 0.6s0.7 0.1 1-0.1 0.5-0.4 0.6-0.7 0.2-0.6 0.4-0.9c0 0.1-0.1 0.2-0.1 0.3 0.2-0.5 0.5-1 0.8-1.5 0.2-0.3 0.2-0.7 0.1-1s-0.3-0.6-0.6-0.7c-0.3-0.2-0.6-0.2-1-0.1-0.3-0.2-0.6 0-0.7 0.3z"/>
      <path class="st13" fill="#EA0000" d="m329.6 825.3c0 0.1-0.1 0.2-0.1 0.3 0.1-0.1 0.1-0.2 0.1-0.3l-0.3 0.6c0.1-0.1 0.1-0.2 0.2-0.3l-0.1 0.1c-0.1 0.1-0.2 0.2-0.3 0.4-0.1 0.1-0.1 0.3-0.1 0.5s0 0.3 0.1 0.5 0.1 0.3 0.3 0.4c0.1 0.1 0.2 0.1 0.3 0.2 0.2 0.1 0.4 0.2 0.6 0.2h0.3l0.6-0.3c0.2-0.2 0.4-0.5 0.5-0.7 0-0.1 0.1-0.2 0.1-0.3 0.1-0.2 0.2-0.4 0.2-0.6 0.1-0.2 0.1-0.3 0-0.5 0-0.2-0.1-0.3-0.1-0.5-0.1-0.1-0.2-0.3-0.3-0.4s-0.3-0.2-0.4-0.2h-0.3c-0.2 0-0.4 0.1-0.6 0.2-0.1 0.1-0.2 0.1-0.3 0.2-0.2 0.1-0.3 0.3-0.4 0.5z"/>
      <path class="st13" fill="#EA0000" d="m321.7 830.1-1.5 1.5c-0.1 0.1-0.2 0.2-0.3 0.4-0.1 0.1-0.1 0.3-0.1 0.5s0 0.3 0.1 0.5 0.1 0.3 0.3 0.4c0.2 0.2 0.6 0.4 0.9 0.4s0.6-0.1 0.9-0.4l1.5-1.5c0.1-0.1 0.2-0.2 0.3-0.4 0.1-0.1 0.1-0.3 0.1-0.5s0-0.3-0.1-0.5-0.1-0.3-0.3-0.4c-0.2-0.2-0.6-0.4-0.9-0.4-0.4 0-0.7 0.1-0.9 0.4z"/>
      <path class="st6" fill="#F89B00" d="m263.5 805.4c-0.6 0.9-1.3 1.8-2.1 2.6-0.3 0.3-0.6 0.6-1 0.9-1.4 1.1-3 1.4-4.7 1.4-6.2 0-13.5-4.1-16.4-9.7-1.4-2.7-0.9-6.1 0.2-8.9 0.6-1.4 1.3-2.6 2.2-3.7-0.6 1.1-1.1 2.3-1.3 3.5-0.9 5.4 2.6 10.1 7 12.9 4.2 2.7 10.1 5.1 14.8 2.1 0.5-0.4 1-0.7 1.3-1.1z"/>
      <path class="st7" fill="#FFE1A0" d="m265.9 800.3c-0.1 2-1 3.8-2.4 5.1-0.4 0.4-0.8 0.7-1.3 1-4.7 3-10.6 0.6-14.8-2.1-4.4-2.8-7.8-7.4-7-12.9 0.2-1.2 0.6-2.4 1.3-3.5 0.5-0.9 1.2-1.7 2.1-2.3 1.7-1.3 3.7-1.4 5.8-1.2 5.6 0.2 10.6 3.6 13.7 8.2 1.5 2.2 2.8 5 2.6 7.7z"/>
      <path class="st14" fill="#00D1E4" d="m297.9 808.2c-0.4 0.6-0.8 1.1-1.2 1.4-1.7-1.9-4.1-3.3-6.6-3.7-0.2 0-0.5-0.1-0.7-0.1v-0.1c0-0.9 0.4-1.9 0.4-2.8 0-0.4 0.6-3.3 1.1-3.3 0.6 0 1.5 2 1.8 2.5 0.3 0.6 1.1 1.8 1.7 1.9 0.8 0.2 5.4-1.1 6.2-1.2s-1.1 3.2-2.7 5.4z"/>
      <path class="st18" fill="#00A7A5" d="m297.9 808.2c-0.4 0.6-0.8 1.1-1.2 1.4-1.7-1.9-4.1-3.3-6.6-3.7-0.2 0-0.5-0.1-0.7-0.1v-0.1c1-0.6 3.9-1.2 8.5 2.5z"/>
      <path class="st19" fill="#D960FF" d="m296.7 823.3c-2.1 2.2-5 3.9-8 4.1-5.7 0.4-10.1-4.1-11.7-8.5-0.6-1.6-0.8-3.2-0.6-4.6 0.3-2.4 1.6-4.7 3.6-6.4 3.3-2.6 6.4-2.5 9.4-2.1 0.2 0 0.5 0.1 0.7 0.1 2.5 0.4 4.8 1.8 6.6 3.7l1.2 1.5c0.8 1.2 1.4 2.5 1.6 3.9 0.5 3-0.7 6.1-2.8 8.3z"/>
      <path class="st20" fill="#C450F6" d="m296.7 823.3c-2.1 2.2-5 3.8-8 4-5.7 0.4-10.1-4.1-11.7-8.5 0.1 0 0.2-0.1 0.3-0.1 0.6-0.1 1.2 0.2 1.8 0.5 1.1 0.6 3 1 4.3 1.1 3.9 0.5 5.6-0.2 7.6-1.2 1.6-0.9 3.7-3.5 4.5-6 0.3-0.8 0.8-1.4 1.3-2 0.2-0.2 0.8 0.1 1 0 0.8 1.2 1.3 2.5 1.6 3.9 0.6 3-0.6 6.1-2.7 8.3z"/>
      <path class="st21" fill="#7600C8" d="m285.3 823.7c1 0.3 2.1 0.5 3.1 0.7 0.3 0 0.7-0.2 0.9-0.4s0.4-0.6 0.4-0.9-0.1-0.7-0.4-0.9c-0.1-0.1-0.2-0.1-0.3-0.2-0.2-0.1-0.4-0.2-0.6-0.2h-0.1 0.3c-0.9-0.1-1.8-0.3-2.6-0.6-0.3-0.1-0.7 0-1 0.1-0.3 0.2-0.5 0.4-0.6 0.7-0.1 0.9 0.2 1.5 0.9 1.7z"/>
      <path class="st6" fill="#F89B00" d="m248.8 790.7c0.8 1.4 1.6 2.9 2.3 4.4 0.2 0.5 1 0.7 1.5 0.4s0.6-0.9 0.4-1.5c-0.7-1.5-1.5-3-2.3-4.4-0.3-0.5-1-0.7-1.5-0.4-0.5 0.4-0.7 1-0.4 1.5z"/>
      <path class="st6" fill="#F89B00" d="m250.7 795.2c-1.4-0.6-2.9-1-4.4-1.1-0.6 0-1.1 0.5-1.1 1.1s0.5 1 1.1 1.1c0.3 0 0.5 0 0.8 0.1h-0.3l1.5 0.3c0.3 0.1 0.5 0.2 0.8 0.2 0.1 0 0.2 0.1 0.3 0.1h0.1-0.1c0.1 0 0.1 0.1 0.2 0.1 0.3 0.1 0.5 0.2 0.8 0.1 0.2-0.1 0.5-0.3 0.6-0.5 0.3-0.5 0.2-1.3-0.3-1.5z"/>
      <path class="st6" fill="#F89B00" d="m259.9 796.1c-1.3-0.4-2.7-0.8-3.9-1.3-0.2-0.1-0.6 0-0.8 0.1s-0.4 0.4-0.5 0.6c-0.1 0.3 0 0.6 0.1 0.8 0.2 0.2 0.4 0.4 0.6 0.5 1.3 0.5 2.6 0.9 3.9 1.3 0.5 0.1 1.2-0.2 1.3-0.8 0.2-0.5-0.1-1.1-0.7-1.2z"/>
      <path class="st6" fill="#F89B00" d="m252.4 797.5c0.9 1.6 2.1 3.1 3.3 4.6 0.4 0.4 1.1 0.4 1.5 0 0.4-0.5 0.4-1.1 0-1.5-0.3-0.3-0.6-0.7-0.8-1l-0.1-0.1c-0.1-0.1 0.1 0.1 0 0s-0.1-0.2-0.2-0.3c-0.1-0.2-0.3-0.4-0.4-0.5-0.5-0.7-1-1.5-1.4-2.2-0.3-0.5-1-0.7-1.5-0.4-0.5 0.2-0.7 0.9-0.4 1.4z"/>
      <path class="st4" fill="#1739DB" d="m296.6 875.2c-5.3 0.6-10.7 0.8-16.1 1.2-1 0.1-1 1.6 0 1.5 5.4-0.4 10.7-0.6 16.1-1.2 1-0.1 1-1.6 0-1.5z"/>
      <path class="st4" fill="#1739DB" d="m330.9 866c-8.7 3.6-17.6 6.7-26.9 8.2-1 0.2-0.5 1.6 0.4 1.4 9.3-1.5 18.2-4.6 26.9-8.2 0.9-0.4 0.5-1.8-0.4-1.4z"/>
      <path class="st4" fill="#1739DB" d="m335.8 868.3c-12.7 6.2-26.3 10.6-40.5 11.6-1 0.1-1 1.6 0 1.5 14.5-1 28.2-5.5 41.2-11.8 1-0.4 0.2-1.7-0.7-1.3z"/>
      <path class="st4" fill="#1739DB" d="m342.9 848.6c-10.8 7.7-23.5 11-36.5 12.7-0.9 0.1-1 1.6 0 1.5 13.2-1.8 26.2-5.1 37.2-12.9 0.8-0.5 0.1-1.8-0.7-1.3z"/>
      <path class="st4" fill="#1739DB" d="m339.6 855.5c-6.3 4.4-13.6 7-21 8.9-8.6 2.2-17.5 3.4-26.4 4-1 0.1-1 1.6 0 1.5 9-0.6 18.1-1.8 26.8-4 7.5-1.9 15-4.6 21.3-9 0.9-0.6 0.1-1.9-0.7-1.4z"/>
      <path class="st4" fill="#1739DB" d="m332.9 873.9c-13.5 6.9-28.1 10.5-43.2 10.8-1 0-1 1.5 0 1.5 15.4-0.4 30.2-4.1 43.9-11.1 1-0.3 0.2-1.6-0.7-1.2z"/>
      <path class="st4" fill="#1739DB" d="m324.4 887.4c-5.8 2.9-12.2 4.6-18.5 5.9-7.5 1.6-15.2 2.5-22.8 2.1-1-0.1-1 1.4 0 1.5 7.8 0.4 15.6-0.6 23.2-2.2 6.4-1.3 13-3.1 18.9-6 0.9-0.5 0.1-1.8-0.8-1.3z"/>
      <path class="st4" fill="#1739DB" d="m320.3 893.8c-5.6 2.9-12.2 4.2-18.4 5.2-7.7 1.3-15.5 2.1-23.3 2.1-1 0-1 1.5 0 1.5 7.9 0 15.9-0.8 23.7-2.2 6.3-1.1 13-2.4 18.7-5.4 0.9-0.4 0.2-1.7-0.7-1.2z"/>
      <path class="st4" fill="#1739DB" d="m328.5 881c-4.2 2.5-9.2 3.8-13.9 5-6.2 1.6-12.6 2.7-18.9 3.4-3.2 0.3-6.4 0.5-9.6 0.4-1 0-1 1.5 0 1.5 6.1 0.2 12.3-0.6 18.3-1.6 6.1-1 12.1-2.4 18-4.4 2.4-0.8 4.7-1.7 6.9-3 0.8-0.4 0-1.7-0.8-1.3z"/>
      <path class="st4" fill="#1739DB" d="m309.5 902.1c-13.8 5-28.6 5.1-43.2 4.9-1 0-1 1.5 0 1.5 14.7 0.2 29.6 0 43.6-5 0.9-0.3 0.5-1.8-0.4-1.4z"/>
      <path class="st13" fill="#EA0000" d="m344.9 813.2c-4.7 1.1-9 1.1-15.9-3.2-2.8-1.7-3.9-5.4-4.2-7.3 1.8 0.1 3.5 0.7 5.1 1.4 1.8 0.8 3.6 1.7 5.5 2.3 2.2 0.7 4.6 1 6.5 2.4 1.5 1.1 2.5 2.6 3 4.4v0z"/>
      <path class="st14" fill="#00D1E4" d="m348.5 810.8c-1.2 1.3-3.1 1.7-4.8 1.5-2.4-0.3-4.8-0.7-7.2-1.3-2.7-0.7-5.6-1.5-7.8-3.3-1.6-1.5-2.9-3.2-3.6-5.3-0.6-1.8-0.9-3.8-1.1-5.7-0.4-3.9 0.9-9.2 5.5-9.9 2.3-0.3 4.1 0.9 5.2 2.7 0.7 1.1 1.1 2.5 1.2 3.8 0.1 1.2-0.1 2.3-0.4 3.4-0.1 0.6-0.3 1.2-0.4 1.7-0.1 0.3-0.2 0.9-0.3 1.4v0.1l-0.1 0.3 0.6-0.3c0.4-0.3 0.8-0.7 1.1-1.1 0.5-0.7 0.9-1.6 1.4-2.4 1-1.7 2.5-2.9 4.5-3.2 1.8-0.2 3.5 0.5 4.5 1.9 0.4 0.6 0.7 1.2 0.8 1.8v0.1c0.1 0.9 0 1.9-0.6 2.8-0.9 1.4-2.5 2.2-4 2.9-0.4 0.2-0.9 0.4-1.3 0.7-0.3 0.3-0.4 0.3-0.1 0.6 0.4 0.4 1.6 0.1 2.1 0.1 1.6-0.1 3.2 0.3 4.4 1.3l0.6 0.6c0.9 1.6 1 3.5-0.2 4.8z"/>
      <path class="st18" fill="#00A7A5" d="m335.8 793.3c0.1 1.2-0.1 2.3-0.4 3.4-0.1 0.6-0.3 1.2-0.4 1.7-0.1 0.3-0.2 0.9-0.3 1.4v0.1l-0.1 0.3s-1.2 1.9-2 1.1c-0.9-0.9 3-7.5 2.1-11.8 0.6 1.2 1.1 2.5 1.1 3.8z"/>
      <path class="st22" fill="#D67F23" d="m264.5 834.8c-0.6 3.2-3.1 5.6-5.9 7.1-3.1 1.7-6.5 2.3-10 1.6 6.7-0.1 11.5-4.4 14-9.4 1.7-3.4 0.8-7.3 0.4-9.1 1.6 3 2.2 6.5 1.5 9.8z"/>
      <path class="st4" fill="#1739DB" d="m311.4 907.6c-0.6 0.6-1.2 1.2-1.9 1.7-1.9 1.6-4.2 2.6-6.5 3.5-7.8 3.1-16.3 4.2-24.6 4.7-11.4 0.6-22.9-0.1-34-2.5-4.3-1-8.7-2.2-12.7-4-3-1.3-5.3-4.1-7.4-6.6 1.1 1.1 8.8 8.5 30.7 10.1 23.7 1.8 43.4 0.9 56.4-6.9v0z"/>
      <path class="st18" fill="#00A7A5" d="m342.2 802.2c1.5-0.8 5.5-2.7 5.2-4.8v-0.2c0.1 0.9 0 1.9-0.6 2.8-0.9 1.4-2.5 2.2-4 2.9-0.4 0.2-0.9 0.4-1.3 0.7-0.3 0.3-2.2 1.2-2.2 0.3s1.4-0.9 2.9-1.7z"/>
</g>

</svg>