<svg xmlns="http://www.w3.org/2000/svg" viewBox="0 0 24 24" fill="none" width="25px" height="25px">
<!--    <path d="M4.51255 19.4866C7.02498 21.8794 10.016 20.9223 11.2124 19.9532C11.8314 19.4518 12.1097 19.1277 12.3489 18.8884C13.1864 18.1107 13.1326 17.3331 12.5882 16.711C12.3704 16.462 10.9731 15.1198 9.63313 13.7439C8.93922 13.0499 8.46066 12.5595 8.05149 12.1647C7.50354 11.6185 7.02499 10.9922 6.30715 11.0101C5.64913 11.0101 5.17057 11.5904 4.57237 12.1886C3.88422 12.8767 3.37598 13.7439 3.19652 14.5216C2.65814 16.7947 3.49562 18.4098 4.51255 19.4866ZM4.51255 19.4866L2.00012 21.999" stroke="black" stroke-width="1.5" stroke-linecap="round" />-->
<!--    <path d="M19.4867 4.51472C16.9736 2.12078 13.9929 3.09593 12.7962 4.06548C12.177 4.56712 11.8987 4.89138 11.6593 5.13078C10.8216 5.90881 10.8755 6.68683 11.42 7.30926C11.4983 7.39881 11.7292 7.62975 12.055 7.95281M19.4867 4.51472C20.504 5.59199 21.3528 7.22547 20.8142 9.49971C20.6347 10.2777 20.1264 11.1453 19.438 11.8338C18.8397 12.4323 18.361 13.0128 17.7028 13.0128C16.9847 13.0308 16.6121 12.5115 16.064 11.9651M19.4867 4.51472L21.9999 2.0011M16.064 11.9651C15.6547 11.5701 15.07 10.9721 14.3759 10.2777C13.5175 9.39612 12.6355 8.52831 12.055 7.95281M16.064 11.9651L14.5024 13.4896M10.5114 9.50609L12.055 7.95281" stroke="black" stroke-width="1.5" stroke-linecap="round" />-->
    <path stroke="black" stroke-width="1.5" stroke-linecap="round" d="M6.5,17.5C9,19.9,12,18.9,13.2,18c0.6-0.5,0.9-0.8,1.1-1.1c0.8-0.8,0.8-1.6,0.2-2.2c-0.2-0.2-1.6-1.6-3-3
	c-0.7-0.7-1.2-1.2-1.6-1.6C9.5,9.6,9,9,8.3,9c-0.7,0-1.1,0.6-1.7,1.2c-0.7,0.7-1.2,1.6-1.4,2.3C4.7,14.8,5.5,16.4,6.5,17.5z
	 M6.5,17.5L4,20"/>
    <path stroke="black" stroke-width="1.5" stroke-linecap="round" d="M17.5,6.5C15,4.1,12,5.1,10.8,6.1c-0.6,0.5-0.9,0.8-1.1,1.1C8.8,7.9,8.9,8.7,9.4,9.3c0.1,0.1,0.3,0.3,0.6,0.6
	 M17.5,6.5c1,1.1,1.9,2.7,1.3,5c-0.2,0.8-0.7,1.6-1.4,2.3c-0.6,0.6-1.1,1.2-1.7,1.2c-0.7,0-1.1-0.5-1.6-1 M17.5,6.5L20,4 M14.1,14
	c-0.4-0.4-1-1-1.7-1.7c-0.9-0.9-1.7-1.7-2.3-2.3 M10.1,10"/>


  </svg>