<svg xmlns="http://www.w3.org/2000/svg" viewBox="0 0 48 48" fill="none" width="25px" height="25px">
    <path d="M24 1.92C24 1.4119 24.4121 0.998079 24.9198 1.0184C28.638 1.16719 32.2695 2.21628 35.5 4.08142C38.9964 6.10009 41.8999 9.00356 43.9186 12.5C45.9373 15.9964 47 19.9627 47 24C47 28.0373 45.9373 32.0036 43.9186 35.5C41.8999 38.9964 38.9964 41.8999 35.5 43.9186C32.0036 45.9373 28.0373 47 24 47C19.9627 47 15.9964 45.9373 12.5 43.9186C9.26949 42.0534 6.54518 39.433 4.55725 36.2874C4.28581 35.8579 4.43813 35.294 4.87816 35.04C5.31819 34.7859 5.87916 34.938 6.1521 35.3665C7.97752 38.2329 10.4692 40.6215 13.42 42.3251C16.6367 44.1823 20.2856 45.16 24 45.16C27.7144 45.16 31.3633 44.1823 34.58 42.3251C37.7967 40.4679 40.4679 37.7967 42.3251 34.58C44.1823 31.3633 45.16 27.7144 45.16 24C45.16 20.2856 44.1823 16.6367 42.3251 13.42C40.4679 10.2033 37.7967 7.53208 34.58 5.6749C31.6292 3.97128 28.3148 3.00769 24.9198 2.86C24.4121 2.83791 24 2.4281 24 1.92Z" fill="url(#paint0_linear_976_23903)"/>
    <defs>
      <linearGradient id="paint0_linear_976_23903" x1="5.00002" y1="38.5" x2="21.5017" y2="-1.86401" gradientUnits="userSpaceOnUse">
        <stop stop-color="#FF5178"/>
        <stop offset="1" stop-color="#FFB719" stop-opacity="0"/>
      </linearGradient>
    </defs>
  </svg>