<svg id="V3_v1" xmlns="http://www.w3.org/2000/svg" xmlns:xlink="http://www.w3.org/1999/xlink" viewBox="0 0 400 400" width="25px" height="25px">
    <defs>
      <clipPath id="clippath">
        <circle id="mask" cx="200" cy="200" r="200" fill="none"/>
      </clipPath>
      <linearGradient id="Degradado_sin_nombre_5" x1="70.2" y1="331.22" x2="335.51" y2="63.02" gradientUnits="userSpaceOnUse">
        <stop offset=".05" stop-color="#5c34df"/>
        <stop offset=".12" stop-color="#6f3bdd"/>
        <stop offset=".34" stop-color="#a652d7"/>
        <stop offset=".52" stop-color="#ce62d3"/>
        <stop offset=".67" stop-color="#e66cd0"/>
        <stop offset=".76" stop-color="#f070d0"/>
      </linearGradient>
    </defs>
    <g clip-path="url(#clippath)" fill="none">
      <rect id="bg" x="0" y="0" width="400" height="400" rx="200" ry="200" fill="url(#Degradado_sin_nombre_5)"/>
      <g id="logo">
        <path id="Path_662" d="m271.92,266.05c0-.89-.51-1.79-1.28-2.17l-78.87-45.5c-6.26-3.58-13.93-3.58-20.2,0l-42.44,24.54c-.77.38-1.28,1.28-1.28,2.17v11.25c0,.89.51,1.79,1.28,2.17l80.66,44.87c6.14,3.45,13.68,3.32,19.81-.13l40.9-23.65c.77-.38,1.28-1.28,1.28-2.17l.13-11.38h0Z" fill="#6b7495"/>
        <path id="Path_663" d="m181.68,215.56c3.58,0,7.03.89,10.1,2.68l78.87,45.5c1.15.64,1.66,2.17.89,3.45-.26.38-.51.64-.89.89l-40.9,23.65c-6.14,3.58-13.68,3.58-19.81.13l-80.66-44.87c-1.15-.64-1.66-2.17-1.02-3.45.26-.38.51-.77.89-.89l42.44-24.54c3.07-1.53,6.65-2.56,10.1-2.56" fill="#b7b7c7"/>
        <path id="Path_664" d="m326.25,196.39c-.13-6.14-3.45-11.89-8.82-14.96l-26.08-15.08c1.41,4.22,2.43,8.56,2.94,12.91l-100.21-57.78c-14.06-8.05-31.32-8.05-45.25,0l-51.13,29.53c-.13-1.66-.26-3.45-.26-5.11,0-2.05.13-4.09.26-6.14l-15.21,8.82c-5.62,3.2-8.95,9.2-8.82,15.59v11.25c.13,6.26,3.58,12.02,9.08,15.08l4.73,2.56,6.39,10.86c2.43,4.22,6.01,7.67,10.23,9.97l109.54,60.97c8.44,4.73,18.66,4.6,26.97-.26l52.53-30.42c2.56-1.53,4.99-3.32,7.03-5.5l12.4-12.65,4.99-2.81c5.62-3.2,8.95-9.2,8.82-15.59l-.13-11.25Z" fill="#6b7495"/>
        <path id="Path_665" d="m326.25,196.39c-.13-6.14-3.45-11.89-8.82-14.96l-26.08-15.08c1.41,4.22,2.43,8.56,2.94,12.91l-100.21-57.78c-14.06-8.05-31.32-8.05-45.25,0l-51.13,29.53c-.13-1.66-.26-3.45-.26-5.11,0-2.05.13-4.09.26-6.14l-15.21,8.82c-5.62,3.2-8.95,9.2-8.82,15.59v11.25c.13,6.26,3.58,12.02,9.08,15.08l126.03,70.05c13.93,7.67,30.8,7.54,44.61-.38l63.91-36.81c5.62-3.2,8.95-9.2,8.82-15.59l.13-11.38Z" fill="#b7b7c7"/>
        <path id="Path_666" d="m194.08,110.24l123.22,71.2c8.44,4.86,11.38,15.72,6.52,24.16-1.53,2.68-3.83,4.99-6.52,6.52l-63.91,36.81c-13.8,7.92-30.68,8.05-44.61.38l-126.03-69.92c-8.56-4.73-11.63-15.59-6.9-24.16,1.53-2.81,3.83-5.11,6.65-6.77l66.21-38.22c14.06-8.05,31.32-8.05,45.38,0Z" fill="#ecf0f1"/>
        <path id="Path_667" d="m171.45,118.03c5.5,0,10.99,1.41,15.72,4.22l123.22,71.2c1.92,1.02,2.56,3.45,1.41,5.37-.38.64-.89,1.15-1.41,1.41l-63.91,36.81c-9.59,5.5-21.35,5.62-31.06.26l-125.9-70.05c-1.92-1.02-2.56-3.45-1.53-5.37.38-.64.89-1.15,1.53-1.53l66.21-38.22c4.73-2.68,10.23-4.09,15.72-4.09" fill="#b7b7c7"/>
        <path id="Path_668" d="m230.89,241.25c5.5,0,10.99-1.41,15.72-4.22l37.58-21.73-97.02-55.86c-9.71-5.62-21.73-5.62-31.44,0l-39.5,22.75,99.32,55.09c4.73,2.56,9.97,3.96,15.34,3.96Z" fill="#6b7495"/>
        <path id="Path_669" d="m224.37,145.9c0,35.02-28.38,63.4-63.4,63.4s-63.4-28.38-63.4-63.4,28.38-63.4,63.4-63.4c35.02-.13,63.4,28.38,63.4,63.4Z" fill="#f5b7b1"/>
        <path id="Path_670" d="m160.84,82.37c-35.02,0-63.4,28.38-63.4,63.4,0,1.66.13,3.2.26,4.86.26,2.43,1.66,8.18,7.92,5.62,7.92-3.2,12.4-9.97,18.15,2.68,5.75,12.65,17,17.51,28.89,17s13.29-10.35,22.88-13.04,9.2,6.26,19.3,5.37c10.1-.89,8.05-10.74,12.65-16.74,4.6-6.01,6.26.26,13.8-.64,1.28-.26,2.43-1.02,3.2-2.17,0-1.02.13-1.92.13-2.94-.26-34.9-28.63-63.4-63.78-63.4q.13,0,0,0Z" fill="#53390e"/>
        <path id="Path_671" d="m294.8,186.93c0,35.02-28.38,63.4-63.4,63.4s-63.4-28.38-63.4-63.4,28.38-63.4,63.4-63.4,63.4,28.38,63.4,63.4h0Z" fill="#f9e79f"/>
        <path id="Path_672" d="m231.27,123.53c-35.02,0-63.4,28.38-63.4,63.4h0c0,1.66.13,3.2.26,4.86.26,2.43,1.66,8.18,7.92,5.62,7.92-3.2,12.4-9.97,18.15,2.68s17,17.51,28.89,17c11.89-.51,13.29-10.35,22.88-13.04,9.46-2.68,9.2,6.26,19.3,5.37,10.1-.89,8.05-10.74,12.65-16.74s6.26.26,13.8-.64c1.28-.26,2.43-1.02,3.2-2.17,0-1.02.13-1.92.13-2.94-.26-35.02-28.76-63.4-63.78-63.4Z" fill="#7d5516"/>
        <path id="Path_673" d="m317.3,181.43l-25.95-15.08c1.92,5.75,3.07,11.76,3.32,17.89l15.72,9.08c1.92,1.02,2.56,3.45,1.41,5.37-.38.64-.89,1.15-1.41,1.41l-63.91,36.81c-9.59,5.5-21.35,5.62-31.06.26l-125.9-69.92c-1.92-1.02-2.56-3.45-1.53-5.37.38-.64.89-1.15,1.53-1.53l8.82-5.11c-.51-3.2-.77-6.39-.77-9.59,0-2.05.13-4.09.26-6.14l-15.34,9.08c-8.44,4.86-11.38,15.72-6.39,24.16,1.66,2.81,3.96,5.11,6.77,6.65l126.03,70.05c13.93,7.67,30.8,7.54,44.61-.38l63.91-36.81c8.44-4.86,11.38-15.72,6.52-24.16-1.66-2.81-3.83-5.11-6.65-6.65Z" fill="#ecf0f1"/>
        <path id="Path_674" d="m254.79,124.93c0,12.91-10.48,23.39-23.39,23.39s-23.39-10.48-23.39-23.39,10.48-23.39,23.39-23.39c12.78-.13,23.39,10.35,23.39,23.39q0-.13,0,0Z" fill="#e74c3c"/>
        <path id="Path_675" d="m231.27,116.63c0,4.6-3.71,8.31-8.31,8.31s-8.31-3.71-8.31-8.31,3.71-8.31,8.31-8.31,8.31,3.71,8.31,8.31h0Z" fill="#ecf0f1"/>
        <path id="Path_676" d="m184.36,82.37c0,12.91-10.48,23.39-23.39,23.39s-23.39-10.48-23.39-23.39c-.13-12.91,10.35-23.39,23.26-23.39s23.52,10.48,23.52,23.39h0Z" fill="#e74c3c"/>
        <path id="Path_677" d="m160.97,74.19c0,4.6-3.71,8.31-8.31,8.31s-8.31-3.71-8.31-8.31,3.71-8.31,8.31-8.31c4.6,0,8.31,3.71,8.31,8.31h0Z" fill="#ecf0f1"/>
      </g>
      <path id="v3_ellipse" d="m59.61,342.94c36.11,35.59,85.68,57.56,140.39,57.56h0c54.71,0,104.28-21.97,140.39-57.56-36.11-35.59-85.68-57.56-140.39-57.56s-104.28,21.97-140.39,57.56Z" fill="#f4f4f4"/>
      <g id="V3">
        <path d="m206.05,318.15l-19.68,55.49h-16.92l-19.68-55.49h14.39l13.75,41.89,13.83-41.89h14.31Z" fill="#0a080a"/>
        <path d="m216.32,319.17c3.48-3.06,8.19-4.58,14.15-4.58,3.95,0,7.34.69,10.16,2.06,2.82,1.37,4.95,3.24,6.4,5.61,1.45,2.37,2.17,5.03,2.17,7.98,0,3.48-.87,6.31-2.61,8.5-1.74,2.19-3.77,3.68-6.09,4.47v.32c3,1,5.37,2.66,7.11,4.98,1.74,2.32,2.61,5.3,2.61,8.93,0,3.27-.75,6.15-2.25,8.66-1.5,2.5-3.69,4.47-6.56,5.89-2.87,1.42-6.28,2.13-10.24,2.13-6.32,0-11.37-1.55-15.14-4.66-3.77-3.11-5.76-7.8-5.97-14.07h13.12c.05,2.32.71,4.15,1.98,5.49,1.26,1.34,3.11,2.02,5.53,2.02,2.06,0,3.65-.59,4.78-1.78,1.13-1.19,1.7-2.75,1.7-4.7,0-2.53-.8-4.36-2.41-5.49-1.61-1.13-4.18-1.7-7.71-1.7h-2.53v-10.99h2.53c2.69,0,4.86-.46,6.52-1.38,1.66-.92,2.49-2.57,2.49-4.94,0-1.9-.53-3.37-1.58-4.43-1.05-1.05-2.5-1.58-4.35-1.58-2,0-3.49.61-4.47,1.82-.98,1.21-1.54,2.71-1.7,4.51h-13.2c.21-5.64,2.06-9.99,5.53-13.04Z" fill="#0a080a"/>
      </g>
    </g>
  </svg>