<svg width="25px" viewBox="0 0 24 24" fill="none" xmlns="http://www.w3.org/2000/svg" height="25px">
    <rect x="6.7" y="2.7" width="16.6" height="10.6" rx="1.3" stroke="url(#paint0_linear_1159_28940)" stroke-width="1.4"/>
    <path d="M4.11111 12H3C1.89543 12 1 12.8954 1 14V20C1 21.1046 1.89543 22 3 22H15C16.1046 22 17 21.1046 17 20V16" stroke="url(#paint1_linear_1159_28940)" stroke-width="1.4" stroke-linecap="round"/>
    <path fill-rule="evenodd" clip-rule="evenodd" d="M17.5 10.6181C17.2346 10.8556 16.8842 11 16.5 11C15.6716 11 15 10.3284 15 9.5C15 8.67157 15.6716 8 16.5 8C16.8842 8 17.2346 8.14443 17.5 8.38195C17.7654 8.14443 18.1158 8 18.5 8C19.3284 8 20 8.67157 20 9.5C20 10.3284 19.3284 11 18.5 11C18.1158 11 17.7654 10.8556 17.5 10.6181Z" fill="url(#paint2_linear_1159_28940)"/>
    <path d="M4 19H7" stroke="url(#paint3_linear_1159_28940)" stroke-width="1.4" stroke-linecap="round"/>
    <defs>
      <linearGradient id="paint0_linear_1159_28940" x1="-25.7694" y1="7.02678" x2="55.6581" y2="6.68462" gradientUnits="userSpaceOnUse">
        <stop stop-color="#44FFF9"/>
        <stop offset="0.166667" stop-color="#7188FF"/>
        <stop offset="0.511814" stop-color="#FF5178"/>
        <stop offset="0.833333" stop-color="#FFB719"/>
        <stop offset="1" stop-color="#D153D1"/>
      </linearGradient>
      <linearGradient id="paint1_linear_1159_28940" x1="-27.2395" y1="16.189" x2="45.1404" y2="15.8646" gradientUnits="userSpaceOnUse">
        <stop stop-color="#44FFF9"/>
        <stop offset="0.166667" stop-color="#7188FF"/>
        <stop offset="0.511814" stop-color="#FF5178"/>
        <stop offset="0.833333" stop-color="#FFB719"/>
        <stop offset="1" stop-color="#D153D1"/>
      </linearGradient>
      <linearGradient id="paint2_linear_1159_28940" x1="6.17516" y1="9.2567" x2="28.7938" y2="9.15109" gradientUnits="userSpaceOnUse">
        <stop stop-color="#44FFF9"/>
        <stop offset="0.166667" stop-color="#7188FF"/>
        <stop offset="0.511814" stop-color="#FF5178"/>
        <stop offset="0.833333" stop-color="#FFB719"/>
        <stop offset="1" stop-color="#D153D1"/>
      </linearGradient>
      <linearGradient id="paint3_linear_1159_28940" x1="-1.29491" y1="19.4189" x2="12.2756" y2="19.3049" gradientUnits="userSpaceOnUse">
        <stop stop-color="#44FFF9"/>
        <stop offset="0.166667" stop-color="#7188FF"/>
        <stop offset="0.511814" stop-color="#FF5178"/>
        <stop offset="0.833333" stop-color="#FFB719"/>
        <stop offset="1" stop-color="#D153D1"/>
      </linearGradient>
    </defs>
  </svg>