<svg width="25px" viewBox="0 0 267 209" fill="none" stroke="currentColor" xmlns="http://www.w3.org/2000/svg" height="25px">
    <path d="M79.5 125.5L96 154.5M46.5 125.5L28 154.5" stroke-width="3" stroke-linecap="round"/>
    <path d="M159 42.5L194.5 78.5M110 42.5L69 78.5" stroke-width="3" stroke-linecap="round"/>
    <path d="M118.217 28.4007C118.217 26.5621 119.945 25.2131 121.729 25.659L125.424 26.5828C131.454 28.0904 137.763 28.0904 143.793 26.5828L147.488 25.659C149.272 25.2131 151 26.5621 151 28.4007V29.392C151 34.6987 146.698 39.0007 141.391 39.0007H127.826C122.519 39.0007 118.217 34.6987 118.217 29.392V28.4007Z" stroke-width="3.3913"/>
    <circle cx="134.609" cy="13.5669" r="7.34783" stroke-width="3.3913"/>
    <path d="M6.2174 185.401C6.2174 183.562 7.94523 182.213 9.72891 182.659L13.424 183.583C19.4543 185.09 25.7631 185.09 31.7934 183.583L35.4885 182.659C37.2722 182.213 39 183.562 39 185.401V186.392C39 191.699 34.698 196.001 29.3913 196.001H15.8261C10.5194 196.001 6.2174 191.699 6.2174 186.392V185.401Z" stroke-width="3.3913"/>
    <circle cx="22.6087" cy="170.567" r="7.34783" stroke-width="3.3913"/>
    <path d="M85.2174 185.401C85.2174 183.562 86.9452 182.213 88.7289 182.659L92.424 183.583C98.4543 185.09 104.763 185.09 110.793 183.583L114.488 182.659C116.272 182.213 118 183.562 118 185.401V186.392C118 191.699 113.698 196.001 108.391 196.001H94.8261C89.5194 196.001 85.2174 191.699 85.2174 186.392V185.401Z" stroke-width="3.3913"/>
    <circle cx="101.609" cy="170.567" r="7.34783" stroke-width="3.3913"/>
    <path d="M47.2174 108.401C47.2174 106.562 48.9452 105.213 50.7289 105.659L54.424 106.583C60.4543 108.09 66.7631 108.09 72.7934 106.583L76.4885 105.659C78.2722 105.213 80 106.562 80 108.401V109.392C80 114.699 75.698 119.001 70.3913 119.001H56.8261C51.5194 119.001 47.2174 114.699 47.2174 109.392V108.401Z" stroke-width="3.3913"/>
    <circle cx="63.6087" cy="93.5669" r="7.34783" stroke-width="3.3913"/>
    <path d="M219.5 125.5L236 154.5M186.5 125.5L168 154.5" stroke-width="3" stroke-linecap="round"/>
    <path d="M146.217 185.401C146.217 183.562 147.945 182.213 149.729 182.659L153.424 183.583C159.454 185.09 165.763 185.09 171.793 183.583L175.488 182.659C177.272 182.213 179 183.562 179 185.401V186.392C179 191.699 174.698 196.001 169.391 196.001H155.826C150.519 196.001 146.217 191.699 146.217 186.392V185.401Z" stroke-width="3.3913"/>
    <circle cx="162.609" cy="170.567" r="7.34783" stroke-width="3.3913"/>
    <path d="M225.217 185.401C225.217 183.562 226.945 182.213 228.729 182.659L232.424 183.583C238.454 185.09 244.763 185.09 250.793 183.583L254.488 182.659C256.272 182.213 258 183.562 258 185.401V186.392C258 191.699 253.698 196.001 248.391 196.001H234.826C229.519 196.001 225.217 191.699 225.217 186.392V185.401Z" stroke-width="3.3913"/>
    <circle cx="241.609" cy="170.567" r="7.34783" stroke-width="3.3913"/>
    <path d="M187.217 108.401C187.217 106.562 188.945 105.213 190.729 105.659L194.424 106.583C200.454 108.09 206.763 108.09 212.793 106.583L216.488 105.659C218.272 105.213 220 106.562 220 108.401V109.392C220 114.699 215.698 119.001 210.391 119.001H196.826C191.519 119.001 187.217 114.699 187.217 109.392V108.401Z" stroke-width="3.3913"/>
    <circle cx="203.609" cy="93.5669" r="7.34783" stroke-width="3.3913"/>
  </svg>