<svg xmlns="http://www.w3.org/2000/svg" viewBox="0 0 24 24" width="25px" height="25px">

    <path stroke="black" stroke-width="1.5" stroke-linecap="round" stroke-linejoin="round" fill="none" d="M4.3,18.8c0.2,1.7,1.6,3,3.3,3.1C9,22,10.4,22,12,22s3,0,4.4-0.1c1.7-0.1,3.1-1.4,3.3-3.1
	c0.1-1.1,0.3-2.2,0.3-3.3s-0.1-2.3-0.3-3.3c-0.2-1.7-1.6-3-3.3-3.1C15,9,13.6,9,12,9S9,9,7.6,9.1c-1.7,0.1-3.1,1.4-3.3,3.1
	C4.1,13.2,4,14.4,4,15.5S4.1,17.8,4.3,18.8z"/>
    <!--    <path stroke="black" stroke-width="2" stroke-linecap="round" stroke-linejoin="round" fill="none" d="M7.5,9V6.5C7.5,4,9.5,2,12,2c2.5,0,4.5,2,4.5,4.5"/>-->
    <path stroke="black" stroke-width="2" stroke-linecap="round" stroke-linejoin="round" fill="none" d="M7.5,6.2C7.5,3.7,9.5,2,12,2
	c2.5,0,4.5,1.7,4.5,4.2"/>
    <!--    <path stroke="black" stroke-width="2" stroke-linecap="round" stroke-linejoin="round" fill="none" d="M12,15.5L12,15.5"/>-->
    <!--    <path stroke="black" stroke-width="2" stroke-linecap="round" stroke-linejoin="round" fill="none" d="M8,15.5L8,15.5"/>-->
    <!--    <path stroke="black" stroke-width="2" stroke-linecap="round" stroke-linejoin="round" fill="none" d="M16,15.5L16,15.5"/>-->
  </svg>