<svg xmlns="http://www.w3.org/2000/svg" viewBox="0 0 24 24" width="25px" height="25px">
      <path id="shaape" fill="none" stroke="black" stroke-width="1.5" stroke-linecap="round" stroke-linejoin="round" d="M1.2,19.3c0,0,1.1-8,2-11.4C4.2,4.1,5.4,4,5.4,4c0.2,0,2.3,2.6,2.4,3c0,0.1,1.1-0.2,1.5-0.4
    c0.1,0,0.2-0.1,0.2-0.1c2.4-1.9,4.4-2.5,4.8-2.2C14.7,4.7,14,6.3,14,6.3s1.1,0.7,1.9,0.5c0.8-0.2,2-3,2.9-2.8
    C19,4,20.5,5.4,21.3,9.2c0.8,4.2,1.7,9.7,1.7,10"/>
  <!--    <path id="teeth" fill="black" stroke="black" stroke-width="0" stroke-linecap="round" stroke-linejoin="round">
  <!--	c0,0.3-0.2,0.3-0.4,0.3c-0.2,0-0.4,0-0.5,0.3c-0.2,0.4-0.5,0.8-1.1,0.8c-0.6,0-0.9-0.4-1.2-0.8c-0.2-0.4-0.4-0.4-0.6,0-->
  <!--	c-0.1,0.2-0.2,0.3-0.4,0.5C10.2,18.8,9.4,18.7,9,18c-0.2-0.3-0.3-0.7-0.8-0.6c-0.1,0-0.3-0.1-0.3-0.3c0-0.2,0.2-0.2,0.3-0.2-->
  <!--	C9.3,16.9,10.4,16.9,11.5,16.9L11.5,16.9z M10.8,17.4c-0.5,0-0.9,0-1.2,0c-0.1,0-0.2-0.1-0.2,0.2c0.1,0.5,0.6,0.7,1,0.3-->
  <!--	C10.5,17.8,10.6,17.6,10.8,17.4z M13.6,17.4c-0.5,0-0.8,0-1.2,0c-0.2,0-0.2,0.1-0.1,0.2c0.2,0.2,0.3,0.4,0.6,0.4-->
  <!--	C13.3,18,13.4,17.8,13.6,17.4z"/>-->
      <path id="ear_x5F_l" fill="black" stroke="black" stroke-width="0" stroke-linecap="round" stroke-linejoin="round" d="M3.3,8.2c0,0,4.1-1,4.4-1.2c0.3-0.2-2.2-2-2.2-2S4.4,4.6,3.9,6.1S3.3,8.2,3.3,8.2z"/>
      <path id="ear_x5F_r" fill="black" stroke="black" stroke-width="0" stroke-linecap="round" stroke-linejoin="round" d="M16.1,6.9L20.7,8c0,0-0.8-2.1-1.2-2.9C19.1,4.2,18.2,5,18.2,5L16.1,6.9z"/>
      <path id="ey_x5F_r" fill="black" stroke="black" stroke-width="0" stroke-linecap="round" stroke-linejoin="round" d="M15,10.7c-1.7,0-3,1.2-3,2.8s1.4,2.8,3,2.8c1.7,0,3-1.2,3-2.8S16.6,10.7,15,10.7z M16.3,13.3
    c0,0.2,0,0.5,0,0.7c0,0.4-0.3,0.7-0.7,0.8c-0.3,0-0.6-0.3-0.7-0.6c-0.1-0.5-0.1-1.1,0-1.7c0-0.4,0.4-0.7,0.7-0.7
    c0.3,0,0.6,0.3,0.7,0.7C16.3,12.8,16.3,13,16.3,13.3z"/>
      <path id="ey_x5F_l" fill="black" stroke="black" stroke-width="0" stroke-linecap="round" stroke-linejoin="round" d="M8.5,10.7c-1.7,0-3,1.2-3,2.8s1.4,2.8,3,2.8c1.7,0,3-1.2,3-2.8S10.2,10.7,8.5,10.7z M9.8,13.3
    c0,0.2,0,0.5,0,0.7c0,0.4-0.3,0.7-0.7,0.8c-0.3,0-0.6-0.3-0.7-0.6c-0.1-0.5-0.1-1.1,0-1.7c0-0.4,0.4-0.7,0.7-0.7
    c0.3,0,0.6,0.3,0.7,0.7C9.9,12.8,9.8,13.1,9.8,13.3z"/>
</svg>