<svg xmlns="http://www.w3.org/2000/svg" viewBox="0 0 24 24" fill="none" stroke="currentColor" width="25px" height="25px">
    <path d="M17.7692 4.50004H21.75C22.1019 4.50004 22.4394 4.63984 22.6883 4.88868C22.9371 5.13753 23.0769 5.47504 23.0769 5.82696V20.4231C23.0769 21.127 22.7973 21.802 22.2996 22.2997C21.8019 22.7974 21.1269 23.077 20.4231 23.077M20.4231 23.077C19.7192 23.077 19.0442 22.7974 18.5465 22.2997C18.0488 21.802 17.7692 21.127 17.7692 20.4231V3.17311C17.7692 2.82119 17.6294 2.48368 17.3806 2.23484C17.1317 1.98599 16.7942 1.84619 16.4423 1.84619H3.17305C2.82113 1.84619 2.48362 1.98599 2.23478 2.23484C1.98593 2.48368 1.84613 2.82119 1.84613 3.17311V19.0962C1.84613 20.152 2.26553 21.1645 3.01207 21.911C3.75861 22.6576 4.77113 23.077 5.8269 23.077H20.4231Z" stroke-width="1.5" stroke-linecap="round" stroke-linejoin="round"/>
    <path d="M7.38458 7.38477H12.923M7.38458 12.0002H12.923" stroke-width="1.5" stroke-linecap="round" stroke-linejoin="round"/>
  </svg>