<svg width="25px" viewBox="0 0 32 32" xmlns="http://www.w3.org/2000/svg" fill="currentColor" stroke="none" height="25px">
    <path d="M3.57735e-06 15.6285C0.00582209 6.98222 7.02877 -0.00581488 15.6867 3.6309e-06C24.4959 3.6309e-06 31.4141 7.1335 31.3501 15.7042C31.2861 24.2806 24.2516 31.3036 15.5878 31.3327C7.08695 31.356 -0.00581493 24.1817 3.57735e-06 15.6285ZM1.49536 15.582C1.49536 23.4428 7.86081 29.913 15.6402 29.8897C23.5359 29.8606 29.8664 23.3962 29.8664 15.5994C29.8664 8.11683 23.8152 1.40226 15.5412 1.44881C7.79681 1.48372 1.50118 7.78517 1.49536 15.582Z"/>
    <path d="M9.28022 13.8701C9.28022 13.4338 9.28022 13.0323 9.28022 12.6366C9.28022 12.5493 9.2744 12.4679 9.28022 12.3806C9.3035 11.9791 9.57697 11.7231 9.96099 11.7348C10.3334 11.7464 10.5952 12.014 10.601 12.4097C10.6068 13.2476 10.601 14.0854 10.6068 14.9233C10.6068 15.3306 10.6243 15.7379 10.6127 16.1452C10.5719 17.3962 9.61188 18.3329 8.34926 18.362C7.02846 18.3911 5.97531 17.5009 5.86476 16.2499C5.76002 15.0339 6.39424 14.0272 7.47067 13.713C8.01761 13.5559 8.55291 13.585 9.08239 13.8003C9.13476 13.8178 9.18713 13.8352 9.28022 13.8701ZM8.25035 14.8418C7.60449 14.8418 7.13319 15.3131 7.13319 15.959C7.12737 16.6048 7.61613 17.1169 8.24453 17.1227C8.86711 17.1285 9.3675 16.6165 9.37332 15.9706C9.37332 15.3481 8.87875 14.8477 8.25035 14.8418Z"/>
    <path d="M17.6831 18.141C17.6831 18.5774 17.6831 18.9789 17.6831 19.3745C17.6831 19.4618 17.6889 19.5433 17.6831 19.6306C17.6598 20.032 17.3864 20.2881 17.0024 20.2764C16.63 20.2648 16.3681 19.9971 16.3623 19.6015C16.3565 18.7636 16.3623 17.9257 16.3565 17.0879C16.3565 16.6806 16.339 16.2733 16.3507 15.866C16.3914 14.615 17.3515 13.6782 18.6141 13.6491C19.9349 13.62 20.988 14.5103 21.0986 15.7612C21.2033 16.9773 20.5691 17.9839 19.4927 18.2981C18.9457 18.4552 18.4104 18.4261 17.8809 18.2108C17.8286 18.1934 17.7762 18.1759 17.6831 18.141ZM18.713 17.1693C19.3589 17.1693 19.8301 16.698 19.8301 16.0522C19.836 15.4063 19.3472 14.8943 18.7188 14.8885C18.0962 14.8827 17.5958 15.3947 17.59 16.0405C17.59 16.6631 18.0904 17.1635 18.713 17.1693Z"/>
    <path d="M22.9937 18.1254C22.9937 18.5618 22.9937 18.9633 22.9937 19.3589C22.9937 19.4462 22.9995 19.5277 22.9937 19.6149C22.9704 20.0164 22.6969 20.2724 22.3129 20.2608C21.9405 20.2492 21.6787 19.9815 21.6729 19.5858C21.667 18.748 21.6729 17.9101 21.667 17.0722C21.667 16.665 21.6496 16.2577 21.6612 15.8504C21.702 14.5994 22.662 13.6626 23.9246 13.6335C25.2454 13.6044 26.2986 14.4946 26.4091 15.7456C26.5139 16.9617 25.8796 17.9683 24.8032 18.2825C24.2563 18.4396 23.721 18.4105 23.1915 18.1952C23.1391 18.1778 23.0868 18.1603 22.9937 18.1254ZM24.0235 17.1479C24.6694 17.1479 25.1407 16.6766 25.1407 16.0307C25.1465 15.3849 24.6578 14.8728 24.0294 14.867C23.4068 14.8612 22.9064 15.3732 22.9006 16.0191C22.9006 16.6475 23.401 17.1479 24.0235 17.1479Z"/>
    <path d="M14.2494 18.2189C13.7199 18.4342 13.1846 18.4691 12.6377 18.3062C11.5612 17.992 10.927 16.9796 11.0317 15.7694C11.1423 14.5184 12.1896 13.6223 13.5163 13.6572C14.7731 13.6863 15.7331 14.6231 15.7797 15.8741C15.7913 16.2814 15.7738 16.6887 15.7738 17.096C15.7738 17.9338 15.7738 17.4335 15.768 18.2713C15.768 18.6612 15.5004 18.9346 15.128 18.9463C14.7381 18.9579 14.4705 18.7019 14.4472 18.3004C14.4414 18.2189 14.4472 18.1317 14.4472 18.0444C14.4472 17.6429 14.4472 18.5855 14.4472 18.1491C14.3483 18.1782 14.2959 18.1957 14.2494 18.2189ZM14.5345 16.037C14.5287 15.3912 14.0283 14.8791 13.4057 14.8849C12.7773 14.8908 12.2944 15.4028 12.2944 16.0486C12.3002 16.7003 12.7657 17.1658 13.4115 17.1658C14.0399 17.1658 14.5345 16.6654 14.5345 16.037Z"/>
  </svg>