<svg width="25px" viewBox="0 0 24 24" xmlns="http://www.w3.org/2000/svg" height="25px">
    <g clip-path="url(#clip0_419_3735)">
      <mask id="path-1-inside-1_419_3735" >
        <path fill-rule="evenodd" clip-rule="evenodd" d="M12 23.5C18.3513 23.5 23.5 18.3513 23.5 12C23.5 5.64873 18.3513 0.5 12 0.5C5.64873 0.5 0.5 5.64873 0.5 12C0.5 18.3513 5.64873 23.5 12 23.5ZM8.60957 11.2928C8.21898 11.6832 8.21898 12.3163 8.60957 12.7067L11.2929 15.3892C11.6835 15.7796 12.3168 15.7796 12.7074 15.3892L15.3907 12.7067C15.7813 12.3163 15.7813 11.6832 15.3907 11.2928L12.7074 8.61029C12.3168 8.21984 11.6835 8.21984 11.2929 8.61029L8.60957 11.2928Z"/>
      </mask>
      <path fill-rule="evenodd" clip-rule="evenodd" d="M12 23.5C18.3513 23.5 23.5 18.3513 23.5 12C23.5 5.64873 18.3513 0.5 12 0.5C5.64873 0.5 0.5 5.64873 0.5 12C0.5 18.3513 5.64873 23.5 12 23.5ZM8.60957 11.2928C8.21898 11.6832 8.21898 12.3163 8.60957 12.7067L11.2929 15.3892C11.6835 15.7796 12.3168 15.7796 12.7074 15.3892L15.3907 12.7067C15.7813 12.3163 15.7813 11.6832 15.3907 11.2928L12.7074 8.61029C12.3168 8.21984 11.6835 8.21984 11.2929 8.61029L8.60957 11.2928Z"/>
      <path d="M8.60957 12.7067L7.54909 13.7676L7.54909 13.7676L8.60957 12.7067ZM8.60957 11.2928L7.54909 10.2319L8.60957 11.2928ZM11.2929 15.3892L10.2324 16.45H10.2324L11.2929 15.3892ZM12.7074 15.3892L11.6469 14.3283L11.6469 14.3283L12.7074 15.3892ZM15.3907 12.7067L16.4512 13.7676L16.4512 13.7676L15.3907 12.7067ZM15.3907 11.2928L16.4512 10.2319L16.4512 10.2319L15.3907 11.2928ZM12.7074 8.61029L13.7679 7.54946L13.7679 7.54945L12.7074 8.61029ZM11.2929 8.61029L12.3534 9.67113L12.3534 9.67113L11.2929 8.61029ZM22 12C22 17.5228 17.5228 22 12 22V25C19.1797 25 25 19.1797 25 12H22ZM12 2C17.5228 2 22 6.47715 22 12H25C25 4.8203 19.1797 -1 12 -1V2ZM2 12C2 6.47715 6.47715 2 12 2V-1C4.8203 -1 -1 4.8203 -1 12H2ZM12 22C6.47715 22 2 17.5228 2 12H-1C-1 19.1797 4.8203 25 12 25V22ZM9.67005 11.6459C9.86549 11.8413 9.86549 12.1582 9.67005 12.3536L7.54909 10.2319C6.57247 11.2082 6.57247 12.7913 7.54909 13.7676L9.67005 11.6459ZM12.3534 14.3283L9.67005 11.6459L7.54909 13.7676L10.2324 16.45L12.3534 14.3283ZM11.6469 14.3283C11.8421 14.1333 12.1583 14.1333 12.3534 14.3283L10.2324 16.45C11.2088 17.426 12.7915 17.426 13.7679 16.45L11.6469 14.3283ZM14.3303 11.6459L11.6469 14.3283L13.7679 16.45L16.4512 13.7676L14.3303 11.6459ZM14.3303 12.3536C14.1348 12.1582 14.1348 11.8413 14.3303 11.6459L16.4512 13.7676C17.4278 12.7913 17.4278 11.2082 16.4512 10.2319L14.3303 12.3536ZM11.6469 9.67113L14.3303 12.3536L16.4512 10.2319L13.7679 7.54946L11.6469 9.67113ZM12.3534 9.67113C12.1583 9.86622 11.8421 9.86622 11.6469 9.67113L13.7679 7.54945C12.7915 6.57345 11.2088 6.57345 10.2324 7.54946L12.3534 9.67113ZM9.67005 12.3536L12.3534 9.67113L10.2324 7.54946L7.54909 10.2319L9.67005 12.3536Z" mask="url(#path-1-inside-1_419_3735)"/>
    </g>
    <defs>
      <clipPath id="clip0_419_3735">
        <rect width="24" height="24" />
      </clipPath>
    </defs>
  </svg>