<svg xmlns="http://www.w3.org/2000/svg" viewBox="0 0 24 24" width="25px" height="25px">
<!--    <path stroke="black" d="M2.75 8.99805C2.75 8.03155 3.5335 7.24805 4.5 7.24805H5.5C6.4665 7.24805 7.25 8.03155 7.25 8.99805V18.998C7.25 19.9645 6.4665 20.748 5.5 20.748H4.5C3.5335 20.748 2.75 19.9645 2.75 18.998V8.99805Z"  />-->
<!--    <path stroke="black" d="M9.75 5C9.75 4.0335 10.5335 3.25 11.5 3.25H12.5C13.4665 3.25 14.25 4.0335 14.25 5V18.9995C14.25 19.966 13.4665 20.7495 12.5 20.7495H11.5C10.5335 20.7495 9.75 19.966 9.75 18.9995V5Z" />-->
<!--    <path stroke="black" d="M16.75 11.998C16.75 11.0315 17.5335 10.248 18.5 10.248H19.5C20.4665 10.248 21.25 11.0315 21.25 11.998V18.998C21.25 19.9645 20.4665 20.748 19.5 20.748H18.5C17.5335 20.748 16.75 19.9645 16.75 18.998V11.998Z" />-->

    <path stroke="black" stroke-width="1.5" stroke-linejoin="round" fill="none" d="M8.62814 12.6736H8.16918C6.68545 12.6736 5.94358 12.6736 5.62736 12.1844C5.31114 11.6953 5.61244 11.0138 6.21504 9.65083L8.02668 5.55323C8.57457 4.314 8.84852 3.69438 9.37997 3.34719C9.91142 3 10.5859 3 11.935 3H14.0244C15.6632 3 16.4826 3 16.7916 3.53535C17.1007 4.0707 16.6942 4.78588 15.8811 6.21623L14.8092 8.10188C14.405 8.81295 14.2029 9.16849 14.2057 9.45952C14.2094 9.83775 14.4105 10.1862 14.7354 10.377C14.9854 10.5239 15.3927 10.5239 16.2074 10.5239C17.2373 10.5239 17.7523 10.5239 18.0205 10.7022C18.3689 10.9338 18.5513 11.3482 18.4874 11.7632C18.4382 12.0826 18.0918 12.4656 17.399 13.2317L11.8639 19.3523C10.7767 20.5545 10.2331 21.1556 9.86807 20.9654C9.50303 20.7751 9.67833 19.9822 10.0289 18.3962L10.7157 15.2896C10.9826 14.082 11.1161 13.4782 10.7951 13.0759C10.4741 12.6736 9.85877 12.6736 8.62814 12.6736Z"  />

  </svg>