<svg xmlns="http://www.w3.org/2000/svg" viewBox="0 0 24 24" fill="currentColor" width="25px" height="25px">
<!--    <path d="M3 21L10.5484 13.4516M21 3L13.4516 10.5484M13.4516 10.5484L8 3H3L10.5484 13.4516M13.4516 10.5484L21 21H16L10.5484 13.4516" stroke="black" stroke-width="1.5" stroke-linecap="round" stroke-linejoin="round" />-->

    <path d="M17.9,2.3H6c-1,0-2,0.4-2.7,1.1C2.7,4.1,2.3,5.1,2.3,6.1V18c0,1,0.4,2,1.1,2.7C4.1,21.3,5,21.7,6,21.7h11.9
		c1,0,2-0.4,2.7-1.1c0.7-0.7,1.1-1.7,1.1-2.7V6.1c0-1-0.4-2-1.1-2.7C19.9,2.7,18.9,2.3,17.9,2.3z M19.6,18c0,0.4-0.2,0.8-0.5,1.1
		s-0.7,0.5-1.1,0.5H6c-0.4,0-0.8-0.2-1.1-0.5c-0.3-0.3-0.5-0.7-0.5-1.1V6.1c0-0.4,0.2-0.8,0.5-1.1C5.2,4.6,5.6,4.4,6,4.4h11.9
		c0.4,0,0.8,0.2,1.1,0.5c0.3,0.3,0.5,0.7,0.5,1.1V18z M6.6,7.7v8.5c0,0.3,0.1,0.6,0.3,0.8c0.2,0.2,0.5,0.3,0.8,0.3h9.7v-2.2H8.8V8.8
		h8.6V6.6H7.7c-0.3,0-0.6,0.1-0.8,0.3C6.7,7.2,6.6,7.4,6.6,7.7z M10.9,10.9h6.5v2.2h-6.5V10.9z" stroke="black" stroke-width="0" stroke-linecap="round" stroke-linejoin="round"/>

  </svg>