<svg width="25px" viewBox="0 0 24 24" xmlns="http://www.w3.org/2000/svg" height="25px">
    <path d="M19.2726 22.2997C19.7919 22.7974 20.4963 23.077 21.2307 23.077H5.99998C4.89831 23.077 3.84176 22.6576 3.06276 21.911C2.28377 21.1645 1.84613 20.152 1.84613 19.0962V3.17311C1.84613 2.82119 1.99201 2.48368 2.25168 2.23484C2.51134 1.98599 2.86352 1.84619 3.23075 1.84619H17.0769C17.4441 1.84619 17.7963 1.98599 18.056 2.23484C18.3156 2.48368 18.4615 2.82119 18.4615 3.17311V20.4231C18.4615 21.127 18.7533 21.802 19.2726 22.2997Z" stroke-width="1.5" stroke-linecap="round" stroke-linejoin="round"/>
    <path d="M7.38458 7.38477H12.923M7.38458 12.0002H12.923" class="et-stroke-normal-i" stroke-width="1.5" stroke-linecap="round" stroke-linejoin="round"/>
    <path d="M17.5385 3.69238H21.6923C22.0595 3.69238 22.4117 3.83826 22.6714 4.09793C22.931 4.35759 23.0769 4.70978 23.0769 5.077V20.3078C23.0769 21.0422 22.7852 21.7466 22.2658 22.2659C21.7465 22.7852 21.0421 23.077 20.3077 23.077C19.5732 23.077 18.8689 22.7852 18.3495 22.2659C17.8302 21.7466 17.5385 21.0422 17.5385 20.3078" fill="none" stroke-width="1.5" stroke-linecap="round" stroke-linejoin="round"/>
  </svg>