<svg xmlns="http://www.w3.org/2000/svg" viewBox="0 0 24 24" fill="currentColor" width="25px" height="25px">

    <path d="M16.2,3.7c0.7,0.6,1.3,1.2,2,1.8c-1.2,1.1-2.3,2.2-3.5,3.3c1.6,0,3.2,0,4.8,0c0,0.9,0,1.8,0,2.7c-1.6,0-3.2,0-4.8,0
			c0,0,0,0,0,0.1c1.1,1.1,2.2,2.2,3.4,3.2c-0.6,0.6-1.2,1.3-1.8,1.8c-1.5-1.5-3.1-3.1-4.7-4.6c-1.6,1.6-3.1,3.1-4.7,4.7
			c-0.6-0.7-1.3-1.3-1.9-1.9c1.1-1,2.2-2.1,3.3-3.2c-1.6,0-3.2,0-4.8,0c0-0.9,0-1.8,0-2.7c1.6,0,3.2,0,4.8,0C7.3,7.7,6.2,6.7,5,5.6
			C5.7,5,6.3,4.4,7,3.7c1,1,2.1,2.1,3.2,3.3c0-1.6,0-3.2,0-4.7c1,0,1.9,0,2.8,0c0,1.5,0,3.1,0,4.6c0,0,0,0,0.1,0
			C14.2,5.9,15.2,4.8,16.2,3.7z" stroke="black" stroke-width="0" stroke-linecap="round" stroke-linejoin="round"/>
    <path d="M13,15.4c0,2.1,0,4.2,0,6.3c-0.9,0-1.8,0-2.8,0c0-2.1,0-4.2,0-6.3C11.2,15.4,12.1,15.4,13,15.4z" stroke="black" stroke-width="0" stroke-linecap="round" stroke-linejoin="round"/>

  </svg>