<svg xmlns="http://www.w3.org/2000/svg" viewBox="0 0 24 24" fill="none" width="25px" height="25px">
    <path d="M12,9.2v5.3 M14.6,11.8H9.4" stroke="url(#gradient_icon_gold_orange_1)" stroke-width="1.5" stroke-linecap="round" stroke-linejoin="round"/>
    <path class="st5" d="M19.8,4c-1.7-1.7-6.7,0.4-11.1,4.7C4.4,13.1,2.3,18.1,4,19.8c1.7,1.7,6.7-0.4,11.1-4.7
    C19.4,10.7,21.5,5.7,19.8,4z" stroke="url(#gradient_icon_gold_orange_1)" stroke-width="1.5" stroke-linecap="round" stroke-linejoin="round"/>
    <path class="st5" d="M4,4c-1.7,1.7,0.4,6.7,4.7,11.1c4.4,4.4,9.3,6.5,11.1,4.7c1.7-1.7-0.4-6.7-4.7-11.1C10.7,4.4,5.7,2.3,4,4z" stroke="url(#gradient_icon_gold_orange_1)" stroke-width="1.5" stroke-linecap="round" stroke-linejoin="round"/>
    <path class="st5" d="M11.9,11.9L11.9,11.9" stroke="url(#gradient_icon_gold_orange_1)" stroke-width="1.5" stroke-linecap="round" stroke-linejoin="round"/>
  </svg>