<svg xmlns="http://www.w3.org/2000/svg" viewBox="0 0 24 24" fill="none" width="25px" height="25px">
<!--    <path>
<!--			c0.9,0.7,2.2,0.6,3-0.2L12,7.3h1.1l6.7,6.7c0.6,0.6,0.6,1.6,0,2.2c-0.6,0.6-1.6,0.6-2.2,0L17,15.7 M13.7,12.3l3.3,3.4 M17,15.7-->
<!--			c0.6,0.6,0.6,1.6,0,2.2s-1.6,0.6-2.2,0l-1.1-1.1 M13.7,16.8c0.6,0.6,0.6,1.6,0,2.2c-0.6,0.6-1.6,0.6-2.2,0l-1.7-1.7 M13.7,16.8-->
<!--			l-2.2-2.2 M9.2,16.8l0.6,0.6 M9.8,17.4c0.6,0.6,0.6,1.6,0,2.2c-0.6,0.6-1.6,0.6-2.2,0l-4.5-4.5H0.9" stroke="url(#gradient_icon_gold_orange_1)" stroke-width="1.5" stroke-linecap="round" stroke-linejoin="round"/>-->
<!--    <path d="M23.1,15.1h-2.8" stroke="url(#gradient_icon_gold_orange_1)" stroke-width="1.5" stroke-linecap="round" stroke-linejoin="round"/>-->
<!--    <path d="M8.1,6.2H0.9" stroke="url(#gradient_icon_gold_orange_1)" stroke-width="1.5" stroke-linecap="round" stroke-linejoin="round"/>-->

    <path d="M15.1,14.5l1.7,1.7" stroke="url(#gradient_icon_gold_orange_1)" stroke-width="1.5" stroke-linecap="round" stroke-linejoin="round"/>
    <path d="M16.8,9.9c0-3.5-2.8-6.4-6.4-6.4C6.9,3.5,4,6.4,4,9.9c0,3.5,2.8,6.4,6.4,6.4C13.9,16.2,16.8,13.4,16.8,9.9z" stroke="url(#gradient_icon_gold_orange_1)" stroke-width="1.5" stroke-linecap="round" stroke-linejoin="round"/>
    <path d="M17.1,18c-0.4-0.4-0.4-1.1,0-1.5c0.4-0.4,1.1-0.4,1.5,0l2.1,2.1c0.4,0.4,0.4,1.1,0,1.5
		c-0.4,0.4-1.1,0.4-1.5,0L17.1,18z" stroke="url(#gradient_icon_gold_orange_1)" stroke-width="1.5" stroke-linecap="round" stroke-linejoin="round"/>

<!--    <path>
<!--    " stroke="url(#gradient_icon_gold_orange_1)" stroke-width="1.5" stroke-linecap="round" stroke-linejoin="round"/>-->
<!--    <path d="M7.6,7.1C7,7.7,7.7,9.4,9.3,11c1.6,1.6,3.3,2.3,4,1.7c0.6-0.6-0.1-2.4-1.7-4C10,7.2,8.2,6.4,7.6,7.1z" stroke="url(#gradient_icon_gold_orange_1)" stroke-width="1.5" stroke-linecap="round" stroke-linejoin="round"/>-->
<!--    <path d="M10.4,9.9L10.4,9.9" stroke="url(#gradient_icon_gold_orange_1)" stroke-width="1.5" stroke-linecap="round" stroke-linejoin="round"/>-->



  </svg>