<svg width="25px" viewBox="0 0 207 52" fill="none" stroke="currentColor" xmlns="http://www.w3.org/2000/svg" height="25px">
    <path d="M6.21738 28.4007C6.21738 26.5621 7.94522 25.2131 9.7289 25.659L13.424 26.5828C19.4543 28.0904 25.7631 28.0904 31.7934 26.5828L35.4885 25.659C37.2722 25.2131 39 26.5621 39 28.4007V29.392C39 34.6987 34.698 39.0007 29.3913 39.0007H15.8261C10.5193 39.0007 6.21738 34.6987 6.21738 29.392V28.4007Z" stroke-width="3.3913"/>
    <circle cx="22.6087" cy="13.5669" r="7.34783" stroke-width="3.3913"/>
    <path d="M51 25H73.5" stroke-width="3" stroke-linecap="round"/>
    <path d="M132 25H154.5" stroke-width="3" stroke-linecap="round"/>
    <path d="M85.2174 28.4007C85.2174 26.5621 86.9452 25.2131 88.7289 25.659L92.424 26.5828C98.4543 28.0904 104.763 28.0904 110.793 26.5828L114.488 25.659C116.272 25.2131 118 26.5621 118 28.4007V29.392C118 34.6987 113.698 39.0007 108.391 39.0007H94.8261C89.5193 39.0007 85.2174 34.6987 85.2174 29.392V28.4007Z" stroke-width="3.3913"/>
    <circle cx="101.609" cy="13.5669" r="7.34783" stroke-width="3.3913"/>
    <path d="M165.217 28.4007C165.217 26.5621 166.945 25.2131 168.729 25.659L172.424 26.5828C178.454 28.0904 184.763 28.0904 190.793 26.5828L194.488 25.659C196.272 25.2131 198 26.5621 198 28.4007V29.392C198 34.6987 193.698 39.0007 188.391 39.0007H174.826C169.519 39.0007 165.217 34.6987 165.217 29.392V28.4007Z" stroke-width="3.3913"/>
    <circle cx="181.609" cy="13.5669" r="7.34783" stroke-width="3.3913"/>
  </svg>