<svg xmlns="http://www.w3.org/2000/svg" viewBox="0 0 24 24" fill="none" width="25px" height="25px">
    <path d="M23.1,6.2h-4.5l-2.5-1.7c-0.5-0.4-1.2-0.6-1.9-0.6h-2.6c-0.9,0-1.7,0.4-2.4,1L6.4,7.8l1.2,1
			c0.9,0.7,2.2,0.6,3-0.2L12,7.3h1.1l6.7,6.7c0.6,0.6,0.6,1.6,0,2.2c-0.6,0.6-1.6,0.6-2.2,0L17,15.7 M13.7,12.3l3.3,3.4 M17,15.7
			c0.6,0.6,0.6,1.6,0,2.2s-1.6,0.6-2.2,0l-1.1-1.1 M13.7,16.8c0.6,0.6,0.6,1.6,0,2.2c-0.6,0.6-1.6,0.6-2.2,0l-1.7-1.7 M13.7,16.8
			l-2.2-2.2 M9.2,16.8l0.6,0.6 M9.8,17.4c0.6,0.6,0.6,1.6,0,2.2c-0.6,0.6-1.6,0.6-2.2,0l-4.5-4.5H0.9" stroke="url(#gradient_icon_gold_orange_1)" stroke-width="1.5" stroke-linecap="round" stroke-linejoin="round"/>
    <path d="M23.1,15.1h-2.8" stroke="url(#gradient_icon_gold_orange_1)" stroke-width="1.5" stroke-linecap="round" stroke-linejoin="round"/>
    <path d="M8.1,6.2H0.9" stroke="url(#gradient_icon_gold_orange_1)" stroke-width="1.5" stroke-linecap="round" stroke-linejoin="round"/>
  </svg>