<svg width="25px" viewBox="0 0 24 24" fill="none" stroke="currentColor" xmlns="http://www.w3.org/2000/svg" height="25px">
    <path d="M14.9378 4.86854L5.77443 14.0319C5.30096 14.5047 4.97806 15.1071 4.84642 15.7631L4 20L8.23687 19.152C8.89288 19.0208 9.49449 18.6992 9.9681 18.2256L19.1315 9.06221C19.4068 8.78685 19.6253 8.45995 19.7743 8.10017C19.9233 7.7404 20 7.35479 20 6.96537C20 6.57596 19.9233 6.19035 19.7743 5.83057C19.6253 5.4708 19.4068 5.1439 19.1315 4.86854C18.8561 4.59318 18.5292 4.37475 18.1694 4.22573C17.8097 4.0767 17.424 4 17.0346 4C16.6452 4 16.2596 4.0767 15.8998 4.22573C15.54 4.37475 15.2132 4.59318 14.9378 4.86854Z" stroke-width="1.5" stroke-linecap="round" stroke-linejoin="round"/>
    <path d="M13 7L17 11" stroke-width="1.5" stroke-linecap="round" stroke-linejoin="round"/>
  </svg>