<svg width="25px" viewBox="0 0 179 179" fill="none" xmlns="http://www.w3.org/2000/svg" height="25px">
    <circle cx="89.1719" cy="89.1719" r="89.1719" fill="#131313"/>
    <path d="M89.4804 8.37486C111.002 8.37486 131.641 16.9652 146.859 32.2561C162.077 47.547 170.626 68.2859 170.626 89.9105C170.626 134.703 134.179 171.439 89.4804 171.439C78.759 171.542 68.1236 169.51 58.1886 165.459C48.2535 161.408 39.216 155.419 31.5982 147.838C23.9803 140.256 17.9332 131.233 13.8064 121.29C9.67951 111.347 7.55469 100.68 7.55469 89.9067C7.55469 79.1334 9.67951 68.4668 13.8064 58.5234C17.9332 48.5801 23.9803 39.5571 31.5982 31.9758C39.216 24.3946 48.2535 18.4055 58.1886 14.3546C68.1236 10.3037 78.759 8.27128 89.4804 8.37486ZM89.4804 167.987C104.85 167.987 119.875 163.407 132.655 154.827C145.434 146.246 155.394 134.051 161.276 119.783C167.157 105.514 168.696 89.8137 165.697 74.6668C162.698 59.5198 155.296 45.6067 144.427 34.6868C133.558 23.7669 119.711 16.3308 104.636 13.3187C89.5615 10.3067 73.9364 11.8541 59.7368 17.7652C45.5373 23.6764 33.4012 33.6857 24.8632 46.5275C16.3252 59.3693 11.7688 74.4667 11.7703 89.9105C11.7476 100.172 13.742 110.336 17.639 119.821C21.5361 129.306 27.2591 137.924 34.4794 145.18C41.6998 152.437 50.2754 158.189 59.714 162.106C69.1526 166.024 79.2683 168.03 89.4804 168.009V167.987ZM38.9388 74.4972H31.7154L32.6305 105.248H39.6214L38.9388 74.4972ZM43.1769 105.248L43.2894 112.16C43.5219 127.234 54.4058 141.871 63.122 147.508V130.927L52.8006 118.257V71.392L71.343 93.4981L89.4504 71.392L107.558 93.4981L126.123 71.392V118.122L115.696 130.935V147.516C124.405 141.991 135.409 127.249 135.634 112.167L135.754 105.256L136.556 74.5048V74.1581C136.556 48.1327 115.351 28.1822 89.4504 28.1822C63.5495 28.1822 42.3443 48.1026 42.3443 74.1581V74.5048L43.1769 105.248ZM56.3561 99.7161L71.253 117.112L89.4804 95.6914L107.7 117.112L122.605 99.8367V116.991L112.171 129.804L112.283 140.514C106.785 145.7 100.139 150.192 93.7184 150.192H85.2348C78.8215 150.192 72.2882 145.669 66.7824 140.514L66.6699 129.691L56.3411 116.908L56.3561 99.7161ZM75.266 130.467C76.5996 129.852 78.0382 129.499 79.5041 129.427C82.8345 129.427 84.5522 131.274 89.4804 131.274C94.4085 131.274 96.1263 129.427 99.3367 129.427C100.811 129.498 102.257 129.854 103.597 130.475L104.857 127.023C103.105 126.303 101.248 125.876 99.3592 125.757C94.6561 125.757 92.9383 127.596 89.5029 127.596C86.0674 127.596 84.2522 125.757 79.5266 125.757C77.6394 125.888 75.7842 126.315 74.0284 127.023L75.266 130.467ZM99.3367 137.492L98.5341 133.806C92.5641 135.072 86.3967 135.072 80.4267 133.806L79.6241 137.492C86.1345 138.758 92.8262 138.758 99.3367 137.492V137.492ZM146.353 105.248L147.275 74.4972H140.052L139.362 105.248H146.353Z" fill="white"/>
  </svg>